G04 #@! TF.GenerationSoftware,KiCad,Pcbnew,5.1.5-52549c5~84~ubuntu18.04.1*
G04 #@! TF.CreationDate,2020-01-16T16:08:21-05:00*
G04 #@! TF.ProjectId,PIC16LF18326_breakout,50494331-364c-4463-9138-3332365f6272,rev?*
G04 #@! TF.SameCoordinates,Original*
G04 #@! TF.FileFunction,Legend,Bot*
G04 #@! TF.FilePolarity,Positive*
%FSLAX46Y46*%
G04 Gerber Fmt 4.6, Leading zero omitted, Abs format (unit mm)*
G04 Created by KiCad (PCBNEW 5.1.5-52549c5~84~ubuntu18.04.1) date 2020-01-16 16:08:21*
%MOMM*%
%LPD*%
G04 APERTURE LIST*
%ADD10C,0.250000*%
%ADD11O,1.802000X1.802000*%
%ADD12R,1.802000X1.802000*%
G04 APERTURE END LIST*
D10*
X139786666Y-119352380D02*
X139786666Y-118352380D01*
X139405714Y-118352380D01*
X139310476Y-118400000D01*
X139262857Y-118447619D01*
X139215238Y-118542857D01*
X139215238Y-118685714D01*
X139262857Y-118780952D01*
X139310476Y-118828571D01*
X139405714Y-118876190D01*
X139786666Y-118876190D01*
X138786666Y-119352380D02*
X138786666Y-118352380D01*
X137739047Y-119257142D02*
X137786666Y-119304761D01*
X137929523Y-119352380D01*
X138024761Y-119352380D01*
X138167619Y-119304761D01*
X138262857Y-119209523D01*
X138310476Y-119114285D01*
X138358095Y-118923809D01*
X138358095Y-118780952D01*
X138310476Y-118590476D01*
X138262857Y-118495238D01*
X138167619Y-118400000D01*
X138024761Y-118352380D01*
X137929523Y-118352380D01*
X137786666Y-118400000D01*
X137739047Y-118447619D01*
X136786666Y-119352380D02*
X137358095Y-119352380D01*
X137072380Y-119352380D02*
X137072380Y-118352380D01*
X137167619Y-118495238D01*
X137262857Y-118590476D01*
X137358095Y-118638095D01*
X135929523Y-118352380D02*
X136120000Y-118352380D01*
X136215238Y-118400000D01*
X136262857Y-118447619D01*
X136358095Y-118590476D01*
X136405714Y-118780952D01*
X136405714Y-119161904D01*
X136358095Y-119257142D01*
X136310476Y-119304761D01*
X136215238Y-119352380D01*
X136024761Y-119352380D01*
X135929523Y-119304761D01*
X135881904Y-119257142D01*
X135834285Y-119161904D01*
X135834285Y-118923809D01*
X135881904Y-118828571D01*
X135929523Y-118780952D01*
X136024761Y-118733333D01*
X136215238Y-118733333D01*
X136310476Y-118780952D01*
X136358095Y-118828571D01*
X136405714Y-118923809D01*
X134929523Y-119352380D02*
X135405714Y-119352380D01*
X135405714Y-118352380D01*
X134262857Y-118828571D02*
X134596190Y-118828571D01*
X134596190Y-119352380D02*
X134596190Y-118352380D01*
X134120000Y-118352380D01*
X133215238Y-119352380D02*
X133786666Y-119352380D01*
X133500952Y-119352380D02*
X133500952Y-118352380D01*
X133596190Y-118495238D01*
X133691428Y-118590476D01*
X133786666Y-118638095D01*
X132643809Y-118780952D02*
X132739047Y-118733333D01*
X132786666Y-118685714D01*
X132834285Y-118590476D01*
X132834285Y-118542857D01*
X132786666Y-118447619D01*
X132739047Y-118400000D01*
X132643809Y-118352380D01*
X132453333Y-118352380D01*
X132358095Y-118400000D01*
X132310476Y-118447619D01*
X132262857Y-118542857D01*
X132262857Y-118590476D01*
X132310476Y-118685714D01*
X132358095Y-118733333D01*
X132453333Y-118780952D01*
X132643809Y-118780952D01*
X132739047Y-118828571D01*
X132786666Y-118876190D01*
X132834285Y-118971428D01*
X132834285Y-119161904D01*
X132786666Y-119257142D01*
X132739047Y-119304761D01*
X132643809Y-119352380D01*
X132453333Y-119352380D01*
X132358095Y-119304761D01*
X132310476Y-119257142D01*
X132262857Y-119161904D01*
X132262857Y-118971428D01*
X132310476Y-118876190D01*
X132358095Y-118828571D01*
X132453333Y-118780952D01*
X131929523Y-118352380D02*
X131310476Y-118352380D01*
X131643809Y-118733333D01*
X131500952Y-118733333D01*
X131405714Y-118780952D01*
X131358095Y-118828571D01*
X131310476Y-118923809D01*
X131310476Y-119161904D01*
X131358095Y-119257142D01*
X131405714Y-119304761D01*
X131500952Y-119352380D01*
X131786666Y-119352380D01*
X131881904Y-119304761D01*
X131929523Y-119257142D01*
X130929523Y-118447619D02*
X130881904Y-118400000D01*
X130786666Y-118352380D01*
X130548571Y-118352380D01*
X130453333Y-118400000D01*
X130405714Y-118447619D01*
X130358095Y-118542857D01*
X130358095Y-118638095D01*
X130405714Y-118780952D01*
X130977142Y-119352380D01*
X130358095Y-119352380D01*
X129500952Y-118352380D02*
X129691428Y-118352380D01*
X129786666Y-118400000D01*
X129834285Y-118447619D01*
X129929523Y-118590476D01*
X129977142Y-118780952D01*
X129977142Y-119161904D01*
X129929523Y-119257142D01*
X129881904Y-119304761D01*
X129786666Y-119352380D01*
X129596190Y-119352380D01*
X129500952Y-119304761D01*
X129453333Y-119257142D01*
X129405714Y-119161904D01*
X129405714Y-118923809D01*
X129453333Y-118828571D01*
X129500952Y-118780952D01*
X129596190Y-118733333D01*
X129786666Y-118733333D01*
X129881904Y-118780952D01*
X129929523Y-118828571D01*
X129977142Y-118923809D01*
X139024761Y-121007142D02*
X139072380Y-121054761D01*
X139215238Y-121102380D01*
X139310476Y-121102380D01*
X139453333Y-121054761D01*
X139548571Y-120959523D01*
X139596190Y-120864285D01*
X139643809Y-120673809D01*
X139643809Y-120530952D01*
X139596190Y-120340476D01*
X139548571Y-120245238D01*
X139453333Y-120150000D01*
X139310476Y-120102380D01*
X139215238Y-120102380D01*
X139072380Y-120150000D01*
X139024761Y-120197619D01*
X138167619Y-121102380D02*
X138167619Y-120578571D01*
X138215238Y-120483333D01*
X138310476Y-120435714D01*
X138500952Y-120435714D01*
X138596190Y-120483333D01*
X138167619Y-121054761D02*
X138262857Y-121102380D01*
X138500952Y-121102380D01*
X138596190Y-121054761D01*
X138643809Y-120959523D01*
X138643809Y-120864285D01*
X138596190Y-120769047D01*
X138500952Y-120721428D01*
X138262857Y-120721428D01*
X138167619Y-120673809D01*
X137691428Y-120435714D02*
X137691428Y-121435714D01*
X137691428Y-120483333D02*
X137596190Y-120435714D01*
X137405714Y-120435714D01*
X137310476Y-120483333D01*
X137262857Y-120530952D01*
X137215238Y-120626190D01*
X137215238Y-120911904D01*
X137262857Y-121007142D01*
X137310476Y-121054761D01*
X137405714Y-121102380D01*
X137596190Y-121102380D01*
X137691428Y-121054761D01*
X136215238Y-121007142D02*
X136262857Y-121054761D01*
X136405714Y-121102380D01*
X136500952Y-121102380D01*
X136643809Y-121054761D01*
X136739047Y-120959523D01*
X136786666Y-120864285D01*
X136834285Y-120673809D01*
X136834285Y-120530952D01*
X136786666Y-120340476D01*
X136739047Y-120245238D01*
X136643809Y-120150000D01*
X136500952Y-120102380D01*
X136405714Y-120102380D01*
X136262857Y-120150000D01*
X136215238Y-120197619D01*
X135643809Y-121102380D02*
X135739047Y-121054761D01*
X135786666Y-121007142D01*
X135834285Y-120911904D01*
X135834285Y-120626190D01*
X135786666Y-120530952D01*
X135739047Y-120483333D01*
X135643809Y-120435714D01*
X135500952Y-120435714D01*
X135405714Y-120483333D01*
X135358095Y-120530952D01*
X135310476Y-120626190D01*
X135310476Y-120911904D01*
X135358095Y-121007142D01*
X135405714Y-121054761D01*
X135500952Y-121102380D01*
X135643809Y-121102380D01*
X134881904Y-120435714D02*
X134881904Y-121102380D01*
X134881904Y-120530952D02*
X134834285Y-120483333D01*
X134739047Y-120435714D01*
X134596190Y-120435714D01*
X134500952Y-120483333D01*
X134453333Y-120578571D01*
X134453333Y-121102380D01*
X133977142Y-121102380D02*
X133977142Y-120435714D01*
X133977142Y-120102380D02*
X134024761Y-120150000D01*
X133977142Y-120197619D01*
X133929523Y-120150000D01*
X133977142Y-120102380D01*
X133977142Y-120197619D01*
X133596190Y-120102380D02*
X132929523Y-121102380D01*
X132929523Y-120102380D02*
X133596190Y-121102380D01*
X131310476Y-121102380D02*
X131786666Y-121102380D01*
X131786666Y-120102380D01*
X130500952Y-121102380D02*
X130977142Y-121102380D01*
X130977142Y-120102380D01*
X129596190Y-121007142D02*
X129643809Y-121054761D01*
X129786666Y-121102380D01*
X129881904Y-121102380D01*
X130024761Y-121054761D01*
X130120000Y-120959523D01*
X130167619Y-120864285D01*
X130215238Y-120673809D01*
X130215238Y-120530952D01*
X130167619Y-120340476D01*
X130120000Y-120245238D01*
X130024761Y-120150000D01*
X129881904Y-120102380D01*
X129786666Y-120102380D01*
X129643809Y-120150000D01*
X129596190Y-120197619D01*
X137810476Y-121947619D02*
X137762857Y-121900000D01*
X137667619Y-121852380D01*
X137429523Y-121852380D01*
X137334285Y-121900000D01*
X137286666Y-121947619D01*
X137239047Y-122042857D01*
X137239047Y-122138095D01*
X137286666Y-122280952D01*
X137858095Y-122852380D01*
X137239047Y-122852380D01*
X136620000Y-121852380D02*
X136524761Y-121852380D01*
X136429523Y-121900000D01*
X136381904Y-121947619D01*
X136334285Y-122042857D01*
X136286666Y-122233333D01*
X136286666Y-122471428D01*
X136334285Y-122661904D01*
X136381904Y-122757142D01*
X136429523Y-122804761D01*
X136524761Y-122852380D01*
X136620000Y-122852380D01*
X136715238Y-122804761D01*
X136762857Y-122757142D01*
X136810476Y-122661904D01*
X136858095Y-122471428D01*
X136858095Y-122233333D01*
X136810476Y-122042857D01*
X136762857Y-121947619D01*
X136715238Y-121900000D01*
X136620000Y-121852380D01*
X135905714Y-121947619D02*
X135858095Y-121900000D01*
X135762857Y-121852380D01*
X135524761Y-121852380D01*
X135429523Y-121900000D01*
X135381904Y-121947619D01*
X135334285Y-122042857D01*
X135334285Y-122138095D01*
X135381904Y-122280952D01*
X135953333Y-122852380D01*
X135334285Y-122852380D01*
X134715238Y-121852380D02*
X134620000Y-121852380D01*
X134524761Y-121900000D01*
X134477142Y-121947619D01*
X134429523Y-122042857D01*
X134381904Y-122233333D01*
X134381904Y-122471428D01*
X134429523Y-122661904D01*
X134477142Y-122757142D01*
X134524761Y-122804761D01*
X134620000Y-122852380D01*
X134715238Y-122852380D01*
X134810476Y-122804761D01*
X134858095Y-122757142D01*
X134905714Y-122661904D01*
X134953333Y-122471428D01*
X134953333Y-122233333D01*
X134905714Y-122042857D01*
X134858095Y-121947619D01*
X134810476Y-121900000D01*
X134715238Y-121852380D01*
X133239047Y-121804761D02*
X134096190Y-123090476D01*
X132715238Y-121852380D02*
X132620000Y-121852380D01*
X132524761Y-121900000D01*
X132477142Y-121947619D01*
X132429523Y-122042857D01*
X132381904Y-122233333D01*
X132381904Y-122471428D01*
X132429523Y-122661904D01*
X132477142Y-122757142D01*
X132524761Y-122804761D01*
X132620000Y-122852380D01*
X132715238Y-122852380D01*
X132810476Y-122804761D01*
X132858095Y-122757142D01*
X132905714Y-122661904D01*
X132953333Y-122471428D01*
X132953333Y-122233333D01*
X132905714Y-122042857D01*
X132858095Y-121947619D01*
X132810476Y-121900000D01*
X132715238Y-121852380D01*
X131429523Y-122852380D02*
X132000952Y-122852380D01*
X131715238Y-122852380D02*
X131715238Y-121852380D01*
X131810476Y-121995238D01*
X131905714Y-122090476D01*
X132000952Y-122138095D01*
%LPC*%
D11*
X142240000Y-113665000D03*
X142240000Y-111125000D03*
X142240000Y-108585000D03*
X142240000Y-106045000D03*
X142240000Y-103505000D03*
D12*
X142240000Y-100965000D03*
D11*
X142240000Y-131445000D03*
X142240000Y-128905000D03*
X142240000Y-126365000D03*
X142240000Y-123825000D03*
X142240000Y-121285000D03*
D12*
X142240000Y-118745000D03*
D11*
X142240000Y-95885000D03*
X142240000Y-93345000D03*
X142240000Y-90805000D03*
D12*
X142240000Y-88265000D03*
D11*
X127000000Y-114935000D03*
X127000000Y-112395000D03*
X127000000Y-109855000D03*
X127000000Y-107315000D03*
D12*
X127000000Y-104775000D03*
M02*
