M48
; DRILL file {KiCad 5.1.5-52549c5~84~ubuntu18.04.1} date Thu 16 Jan 2020 04:08:23 PM EST
; FORMAT={-:-/ absolute / inch / decimal}
; #@! TF.CreationDate,2020-01-16T16:08:23-05:00
; #@! TF.GenerationSoftware,Kicad,Pcbnew,5.1.5-52549c5~84~ubuntu18.04.1
FMAT,2
INCH
T1C0.0157
T2C0.0394
%
G90
G05
T1
X5.125Y-4.225
X5.125Y-4.525
X5.15Y-4.575
X5.175Y-4.4
X5.175Y-4.475
X5.3Y-4.025
X5.325Y-3.975
X5.325Y-4.325
X5.35Y-4.125
X5.425Y-4.2
T2
X5.6Y-3.475
X5.6Y-3.575
X5.6Y-3.675
X5.6Y-3.775
X5.6Y-4.675
X5.6Y-4.775
X5.6Y-4.875
X5.6Y-4.975
X5.6Y-5.075
X5.6Y-5.175
X5.0Y-4.125
X5.0Y-4.225
X5.0Y-4.325
X5.0Y-4.425
X5.0Y-4.525
X5.6Y-3.975
X5.6Y-4.075
X5.6Y-4.175
X5.6Y-4.275
X5.6Y-4.375
X5.6Y-4.475
T0
M30
