G04 #@! TF.GenerationSoftware,KiCad,Pcbnew,5.1.5-52549c5~84~ubuntu18.04.1*
G04 #@! TF.CreationDate,2020-01-16T16:08:21-05:00*
G04 #@! TF.ProjectId,PIC16LF18326_breakout,50494331-364c-4463-9138-3332365f6272,rev?*
G04 #@! TF.SameCoordinates,Original*
G04 #@! TF.FileFunction,Legend,Top*
G04 #@! TF.FilePolarity,Positive*
%FSLAX46Y46*%
G04 Gerber Fmt 4.6, Leading zero omitted, Abs format (unit mm)*
G04 Created by KiCad (PCBNEW 5.1.5-52549c5~84~ubuntu18.04.1) date 2020-01-16 16:08:21*
%MOMM*%
%LPD*%
G04 APERTURE LIST*
%ADD10C,0.010000*%
%ADD11C,0.120000*%
%ADD12C,0.150000*%
%ADD13O,1.802000X1.802000*%
%ADD14R,1.802000X1.802000*%
%ADD15R,0.452000X0.902000*%
%ADD16R,0.902000X0.452000*%
%ADD17R,2.802000X2.802000*%
G04 APERTURE END LIST*
D10*
G36*
X135631964Y-93810018D02*
G01*
X135688812Y-94111570D01*
X136108338Y-94284512D01*
X136359984Y-94113395D01*
X136430458Y-94065750D01*
X136494163Y-94023210D01*
X136548126Y-93987715D01*
X136589373Y-93961210D01*
X136614934Y-93945636D01*
X136621895Y-93942278D01*
X136634435Y-93950914D01*
X136661231Y-93974792D01*
X136699280Y-94010859D01*
X136745579Y-94056067D01*
X136797123Y-94107364D01*
X136850909Y-94161701D01*
X136903935Y-94216028D01*
X136953195Y-94267295D01*
X136995687Y-94312451D01*
X137028407Y-94348446D01*
X137048351Y-94372230D01*
X137053119Y-94380190D01*
X137046257Y-94394865D01*
X137027020Y-94427014D01*
X136997430Y-94473492D01*
X136959510Y-94531156D01*
X136915282Y-94596860D01*
X136889654Y-94634336D01*
X136842941Y-94702768D01*
X136801432Y-94764520D01*
X136767140Y-94816519D01*
X136742080Y-94855692D01*
X136728264Y-94878965D01*
X136726188Y-94883855D01*
X136730895Y-94897755D01*
X136743723Y-94930150D01*
X136762738Y-94976485D01*
X136786003Y-95032206D01*
X136811584Y-95092758D01*
X136837545Y-95153586D01*
X136861950Y-95210136D01*
X136882863Y-95257852D01*
X136898349Y-95292181D01*
X136906472Y-95308568D01*
X136906952Y-95309212D01*
X136919707Y-95312341D01*
X136953677Y-95319321D01*
X137005340Y-95329467D01*
X137071176Y-95342092D01*
X137147664Y-95356509D01*
X137192290Y-95364823D01*
X137274021Y-95380384D01*
X137347843Y-95395192D01*
X137410021Y-95408436D01*
X137456822Y-95419305D01*
X137484509Y-95426989D01*
X137490074Y-95429427D01*
X137495526Y-95445930D01*
X137499924Y-95483200D01*
X137503272Y-95536880D01*
X137505574Y-95602612D01*
X137506832Y-95676037D01*
X137507048Y-95752796D01*
X137506227Y-95828532D01*
X137504371Y-95898886D01*
X137501482Y-95959500D01*
X137497565Y-96006016D01*
X137492622Y-96034075D01*
X137489657Y-96039916D01*
X137471934Y-96046917D01*
X137434381Y-96056927D01*
X137381964Y-96068769D01*
X137319652Y-96081267D01*
X137297900Y-96085310D01*
X137193024Y-96104520D01*
X137110180Y-96119991D01*
X137046630Y-96132337D01*
X136999637Y-96142173D01*
X136966463Y-96150114D01*
X136944371Y-96156776D01*
X136930624Y-96162773D01*
X136922484Y-96168719D01*
X136921345Y-96169894D01*
X136909977Y-96188826D01*
X136892635Y-96225669D01*
X136871050Y-96275913D01*
X136846954Y-96335046D01*
X136822079Y-96398556D01*
X136798157Y-96461932D01*
X136776919Y-96520662D01*
X136760097Y-96570235D01*
X136749422Y-96606139D01*
X136746627Y-96623862D01*
X136746860Y-96624483D01*
X136756331Y-96638970D01*
X136777818Y-96670844D01*
X136809063Y-96716789D01*
X136847807Y-96773485D01*
X136891793Y-96837617D01*
X136904319Y-96855842D01*
X136948984Y-96921914D01*
X136988288Y-96982200D01*
X137020088Y-97033235D01*
X137042245Y-97071560D01*
X137052617Y-97093711D01*
X137053119Y-97096432D01*
X137044405Y-97110736D01*
X137020325Y-97139072D01*
X136983976Y-97178396D01*
X136938453Y-97225661D01*
X136886852Y-97277823D01*
X136832267Y-97331835D01*
X136777794Y-97384653D01*
X136726529Y-97433231D01*
X136681567Y-97474523D01*
X136646004Y-97505485D01*
X136622935Y-97523070D01*
X136616554Y-97525941D01*
X136601699Y-97519178D01*
X136571286Y-97500939D01*
X136530268Y-97474297D01*
X136498709Y-97452852D01*
X136441525Y-97413503D01*
X136373806Y-97367171D01*
X136305880Y-97320913D01*
X136269361Y-97296155D01*
X136145752Y-97212547D01*
X136041991Y-97268650D01*
X135994720Y-97293228D01*
X135954523Y-97312331D01*
X135927326Y-97323227D01*
X135920402Y-97324743D01*
X135912077Y-97313549D01*
X135895654Y-97281917D01*
X135872357Y-97232765D01*
X135843414Y-97169010D01*
X135810050Y-97093571D01*
X135773491Y-97009364D01*
X135734964Y-96919308D01*
X135695694Y-96826321D01*
X135656908Y-96733320D01*
X135619830Y-96643223D01*
X135585689Y-96558948D01*
X135555708Y-96483413D01*
X135531116Y-96419534D01*
X135513136Y-96370231D01*
X135502997Y-96338421D01*
X135501366Y-96327496D01*
X135514291Y-96313561D01*
X135542589Y-96290940D01*
X135580346Y-96264333D01*
X135583515Y-96262228D01*
X135681100Y-96184114D01*
X135759786Y-96092982D01*
X135818891Y-95991745D01*
X135857732Y-95883318D01*
X135875628Y-95770614D01*
X135871897Y-95656548D01*
X135845857Y-95544034D01*
X135796825Y-95435985D01*
X135782400Y-95412345D01*
X135707369Y-95316887D01*
X135618730Y-95240232D01*
X135519549Y-95182780D01*
X135412895Y-95144929D01*
X135301836Y-95127078D01*
X135189439Y-95129625D01*
X135078773Y-95152970D01*
X134972906Y-95197510D01*
X134874905Y-95263645D01*
X134844590Y-95290487D01*
X134767438Y-95374512D01*
X134711218Y-95462966D01*
X134672653Y-95562115D01*
X134651174Y-95660303D01*
X134645872Y-95770697D01*
X134663552Y-95881640D01*
X134702419Y-95989381D01*
X134760677Y-96090169D01*
X134836531Y-96180256D01*
X134928183Y-96255892D01*
X134940228Y-96263864D01*
X134978389Y-96289974D01*
X135007399Y-96312595D01*
X135021268Y-96327039D01*
X135021469Y-96327496D01*
X135018492Y-96343121D01*
X135006689Y-96378582D01*
X134987286Y-96430962D01*
X134961512Y-96497345D01*
X134930591Y-96574814D01*
X134895751Y-96660450D01*
X134858217Y-96751337D01*
X134819217Y-96844559D01*
X134779977Y-96937197D01*
X134741724Y-97026335D01*
X134705683Y-97109055D01*
X134673083Y-97182441D01*
X134645148Y-97243575D01*
X134623105Y-97289541D01*
X134608182Y-97317421D01*
X134602172Y-97324743D01*
X134583809Y-97319041D01*
X134549448Y-97303749D01*
X134505016Y-97281599D01*
X134480583Y-97268650D01*
X134376822Y-97212547D01*
X134253213Y-97296155D01*
X134190114Y-97338987D01*
X134121030Y-97386122D01*
X134056293Y-97430503D01*
X134023866Y-97452852D01*
X133978259Y-97483477D01*
X133939640Y-97507747D01*
X133913048Y-97522587D01*
X133904410Y-97525724D01*
X133891839Y-97517261D01*
X133864016Y-97493636D01*
X133823639Y-97457302D01*
X133773405Y-97410711D01*
X133716012Y-97356317D01*
X133679714Y-97321392D01*
X133616210Y-97258996D01*
X133561327Y-97203188D01*
X133517286Y-97156354D01*
X133486305Y-97120882D01*
X133470602Y-97099161D01*
X133469095Y-97094752D01*
X133476086Y-97077985D01*
X133495406Y-97044082D01*
X133524909Y-96996476D01*
X133562455Y-96938599D01*
X133605900Y-96873884D01*
X133618255Y-96855842D01*
X133663273Y-96790267D01*
X133703660Y-96731228D01*
X133737160Y-96682042D01*
X133761514Y-96646028D01*
X133774464Y-96626502D01*
X133775715Y-96624483D01*
X133773844Y-96608922D01*
X133763913Y-96574709D01*
X133747653Y-96526355D01*
X133726795Y-96468371D01*
X133703073Y-96405270D01*
X133678216Y-96341563D01*
X133653958Y-96281761D01*
X133632029Y-96230376D01*
X133614162Y-96191919D01*
X133602087Y-96170902D01*
X133601229Y-96169894D01*
X133593846Y-96163888D01*
X133581375Y-96157948D01*
X133561080Y-96151460D01*
X133530222Y-96143809D01*
X133486066Y-96134380D01*
X133425874Y-96122559D01*
X133346907Y-96107729D01*
X133246430Y-96089277D01*
X133224675Y-96085310D01*
X133160198Y-96072853D01*
X133103989Y-96060666D01*
X133061013Y-96049926D01*
X133036240Y-96041809D01*
X133032918Y-96039916D01*
X133027444Y-96023138D01*
X133022994Y-95985645D01*
X133019572Y-95931794D01*
X133017181Y-95865944D01*
X133015823Y-95792453D01*
X133015501Y-95715680D01*
X133016219Y-95639983D01*
X133017979Y-95569720D01*
X133020784Y-95509250D01*
X133024638Y-95462930D01*
X133029543Y-95435119D01*
X133032500Y-95429427D01*
X133048963Y-95423686D01*
X133086449Y-95414345D01*
X133141225Y-95402215D01*
X133209555Y-95388107D01*
X133287706Y-95372830D01*
X133330284Y-95364823D01*
X133411071Y-95349721D01*
X133483113Y-95336040D01*
X133542889Y-95324467D01*
X133586879Y-95315687D01*
X133611561Y-95310387D01*
X133615623Y-95309212D01*
X133622489Y-95295965D01*
X133637002Y-95264057D01*
X133657229Y-95218047D01*
X133681234Y-95162492D01*
X133707082Y-95101953D01*
X133732840Y-95040986D01*
X133756573Y-94984151D01*
X133776346Y-94936006D01*
X133790224Y-94901110D01*
X133796274Y-94884021D01*
X133796386Y-94883274D01*
X133789528Y-94869793D01*
X133770302Y-94838770D01*
X133740728Y-94793289D01*
X133702827Y-94736432D01*
X133658620Y-94671283D01*
X133632921Y-94633862D01*
X133586093Y-94565247D01*
X133544501Y-94502952D01*
X133510175Y-94450129D01*
X133485143Y-94409927D01*
X133471435Y-94385500D01*
X133469456Y-94380024D01*
X133477966Y-94367278D01*
X133501493Y-94340063D01*
X133537032Y-94301428D01*
X133581577Y-94254423D01*
X133632123Y-94202095D01*
X133685664Y-94147495D01*
X133739195Y-94093670D01*
X133789711Y-94043670D01*
X133834206Y-94000543D01*
X133869675Y-93967339D01*
X133893113Y-93947106D01*
X133900954Y-93942278D01*
X133913720Y-93949067D01*
X133944256Y-93968142D01*
X133989590Y-93997561D01*
X134046756Y-94035381D01*
X134112784Y-94079661D01*
X134162590Y-94113395D01*
X134414236Y-94284512D01*
X134623999Y-94198041D01*
X134833763Y-94111570D01*
X134890611Y-93810018D01*
X134947460Y-93508466D01*
X135575115Y-93508466D01*
X135631964Y-93810018D01*
G37*
X135631964Y-93810018D02*
X135688812Y-94111570D01*
X136108338Y-94284512D01*
X136359984Y-94113395D01*
X136430458Y-94065750D01*
X136494163Y-94023210D01*
X136548126Y-93987715D01*
X136589373Y-93961210D01*
X136614934Y-93945636D01*
X136621895Y-93942278D01*
X136634435Y-93950914D01*
X136661231Y-93974792D01*
X136699280Y-94010859D01*
X136745579Y-94056067D01*
X136797123Y-94107364D01*
X136850909Y-94161701D01*
X136903935Y-94216028D01*
X136953195Y-94267295D01*
X136995687Y-94312451D01*
X137028407Y-94348446D01*
X137048351Y-94372230D01*
X137053119Y-94380190D01*
X137046257Y-94394865D01*
X137027020Y-94427014D01*
X136997430Y-94473492D01*
X136959510Y-94531156D01*
X136915282Y-94596860D01*
X136889654Y-94634336D01*
X136842941Y-94702768D01*
X136801432Y-94764520D01*
X136767140Y-94816519D01*
X136742080Y-94855692D01*
X136728264Y-94878965D01*
X136726188Y-94883855D01*
X136730895Y-94897755D01*
X136743723Y-94930150D01*
X136762738Y-94976485D01*
X136786003Y-95032206D01*
X136811584Y-95092758D01*
X136837545Y-95153586D01*
X136861950Y-95210136D01*
X136882863Y-95257852D01*
X136898349Y-95292181D01*
X136906472Y-95308568D01*
X136906952Y-95309212D01*
X136919707Y-95312341D01*
X136953677Y-95319321D01*
X137005340Y-95329467D01*
X137071176Y-95342092D01*
X137147664Y-95356509D01*
X137192290Y-95364823D01*
X137274021Y-95380384D01*
X137347843Y-95395192D01*
X137410021Y-95408436D01*
X137456822Y-95419305D01*
X137484509Y-95426989D01*
X137490074Y-95429427D01*
X137495526Y-95445930D01*
X137499924Y-95483200D01*
X137503272Y-95536880D01*
X137505574Y-95602612D01*
X137506832Y-95676037D01*
X137507048Y-95752796D01*
X137506227Y-95828532D01*
X137504371Y-95898886D01*
X137501482Y-95959500D01*
X137497565Y-96006016D01*
X137492622Y-96034075D01*
X137489657Y-96039916D01*
X137471934Y-96046917D01*
X137434381Y-96056927D01*
X137381964Y-96068769D01*
X137319652Y-96081267D01*
X137297900Y-96085310D01*
X137193024Y-96104520D01*
X137110180Y-96119991D01*
X137046630Y-96132337D01*
X136999637Y-96142173D01*
X136966463Y-96150114D01*
X136944371Y-96156776D01*
X136930624Y-96162773D01*
X136922484Y-96168719D01*
X136921345Y-96169894D01*
X136909977Y-96188826D01*
X136892635Y-96225669D01*
X136871050Y-96275913D01*
X136846954Y-96335046D01*
X136822079Y-96398556D01*
X136798157Y-96461932D01*
X136776919Y-96520662D01*
X136760097Y-96570235D01*
X136749422Y-96606139D01*
X136746627Y-96623862D01*
X136746860Y-96624483D01*
X136756331Y-96638970D01*
X136777818Y-96670844D01*
X136809063Y-96716789D01*
X136847807Y-96773485D01*
X136891793Y-96837617D01*
X136904319Y-96855842D01*
X136948984Y-96921914D01*
X136988288Y-96982200D01*
X137020088Y-97033235D01*
X137042245Y-97071560D01*
X137052617Y-97093711D01*
X137053119Y-97096432D01*
X137044405Y-97110736D01*
X137020325Y-97139072D01*
X136983976Y-97178396D01*
X136938453Y-97225661D01*
X136886852Y-97277823D01*
X136832267Y-97331835D01*
X136777794Y-97384653D01*
X136726529Y-97433231D01*
X136681567Y-97474523D01*
X136646004Y-97505485D01*
X136622935Y-97523070D01*
X136616554Y-97525941D01*
X136601699Y-97519178D01*
X136571286Y-97500939D01*
X136530268Y-97474297D01*
X136498709Y-97452852D01*
X136441525Y-97413503D01*
X136373806Y-97367171D01*
X136305880Y-97320913D01*
X136269361Y-97296155D01*
X136145752Y-97212547D01*
X136041991Y-97268650D01*
X135994720Y-97293228D01*
X135954523Y-97312331D01*
X135927326Y-97323227D01*
X135920402Y-97324743D01*
X135912077Y-97313549D01*
X135895654Y-97281917D01*
X135872357Y-97232765D01*
X135843414Y-97169010D01*
X135810050Y-97093571D01*
X135773491Y-97009364D01*
X135734964Y-96919308D01*
X135695694Y-96826321D01*
X135656908Y-96733320D01*
X135619830Y-96643223D01*
X135585689Y-96558948D01*
X135555708Y-96483413D01*
X135531116Y-96419534D01*
X135513136Y-96370231D01*
X135502997Y-96338421D01*
X135501366Y-96327496D01*
X135514291Y-96313561D01*
X135542589Y-96290940D01*
X135580346Y-96264333D01*
X135583515Y-96262228D01*
X135681100Y-96184114D01*
X135759786Y-96092982D01*
X135818891Y-95991745D01*
X135857732Y-95883318D01*
X135875628Y-95770614D01*
X135871897Y-95656548D01*
X135845857Y-95544034D01*
X135796825Y-95435985D01*
X135782400Y-95412345D01*
X135707369Y-95316887D01*
X135618730Y-95240232D01*
X135519549Y-95182780D01*
X135412895Y-95144929D01*
X135301836Y-95127078D01*
X135189439Y-95129625D01*
X135078773Y-95152970D01*
X134972906Y-95197510D01*
X134874905Y-95263645D01*
X134844590Y-95290487D01*
X134767438Y-95374512D01*
X134711218Y-95462966D01*
X134672653Y-95562115D01*
X134651174Y-95660303D01*
X134645872Y-95770697D01*
X134663552Y-95881640D01*
X134702419Y-95989381D01*
X134760677Y-96090169D01*
X134836531Y-96180256D01*
X134928183Y-96255892D01*
X134940228Y-96263864D01*
X134978389Y-96289974D01*
X135007399Y-96312595D01*
X135021268Y-96327039D01*
X135021469Y-96327496D01*
X135018492Y-96343121D01*
X135006689Y-96378582D01*
X134987286Y-96430962D01*
X134961512Y-96497345D01*
X134930591Y-96574814D01*
X134895751Y-96660450D01*
X134858217Y-96751337D01*
X134819217Y-96844559D01*
X134779977Y-96937197D01*
X134741724Y-97026335D01*
X134705683Y-97109055D01*
X134673083Y-97182441D01*
X134645148Y-97243575D01*
X134623105Y-97289541D01*
X134608182Y-97317421D01*
X134602172Y-97324743D01*
X134583809Y-97319041D01*
X134549448Y-97303749D01*
X134505016Y-97281599D01*
X134480583Y-97268650D01*
X134376822Y-97212547D01*
X134253213Y-97296155D01*
X134190114Y-97338987D01*
X134121030Y-97386122D01*
X134056293Y-97430503D01*
X134023866Y-97452852D01*
X133978259Y-97483477D01*
X133939640Y-97507747D01*
X133913048Y-97522587D01*
X133904410Y-97525724D01*
X133891839Y-97517261D01*
X133864016Y-97493636D01*
X133823639Y-97457302D01*
X133773405Y-97410711D01*
X133716012Y-97356317D01*
X133679714Y-97321392D01*
X133616210Y-97258996D01*
X133561327Y-97203188D01*
X133517286Y-97156354D01*
X133486305Y-97120882D01*
X133470602Y-97099161D01*
X133469095Y-97094752D01*
X133476086Y-97077985D01*
X133495406Y-97044082D01*
X133524909Y-96996476D01*
X133562455Y-96938599D01*
X133605900Y-96873884D01*
X133618255Y-96855842D01*
X133663273Y-96790267D01*
X133703660Y-96731228D01*
X133737160Y-96682042D01*
X133761514Y-96646028D01*
X133774464Y-96626502D01*
X133775715Y-96624483D01*
X133773844Y-96608922D01*
X133763913Y-96574709D01*
X133747653Y-96526355D01*
X133726795Y-96468371D01*
X133703073Y-96405270D01*
X133678216Y-96341563D01*
X133653958Y-96281761D01*
X133632029Y-96230376D01*
X133614162Y-96191919D01*
X133602087Y-96170902D01*
X133601229Y-96169894D01*
X133593846Y-96163888D01*
X133581375Y-96157948D01*
X133561080Y-96151460D01*
X133530222Y-96143809D01*
X133486066Y-96134380D01*
X133425874Y-96122559D01*
X133346907Y-96107729D01*
X133246430Y-96089277D01*
X133224675Y-96085310D01*
X133160198Y-96072853D01*
X133103989Y-96060666D01*
X133061013Y-96049926D01*
X133036240Y-96041809D01*
X133032918Y-96039916D01*
X133027444Y-96023138D01*
X133022994Y-95985645D01*
X133019572Y-95931794D01*
X133017181Y-95865944D01*
X133015823Y-95792453D01*
X133015501Y-95715680D01*
X133016219Y-95639983D01*
X133017979Y-95569720D01*
X133020784Y-95509250D01*
X133024638Y-95462930D01*
X133029543Y-95435119D01*
X133032500Y-95429427D01*
X133048963Y-95423686D01*
X133086449Y-95414345D01*
X133141225Y-95402215D01*
X133209555Y-95388107D01*
X133287706Y-95372830D01*
X133330284Y-95364823D01*
X133411071Y-95349721D01*
X133483113Y-95336040D01*
X133542889Y-95324467D01*
X133586879Y-95315687D01*
X133611561Y-95310387D01*
X133615623Y-95309212D01*
X133622489Y-95295965D01*
X133637002Y-95264057D01*
X133657229Y-95218047D01*
X133681234Y-95162492D01*
X133707082Y-95101953D01*
X133732840Y-95040986D01*
X133756573Y-94984151D01*
X133776346Y-94936006D01*
X133790224Y-94901110D01*
X133796274Y-94884021D01*
X133796386Y-94883274D01*
X133789528Y-94869793D01*
X133770302Y-94838770D01*
X133740728Y-94793289D01*
X133702827Y-94736432D01*
X133658620Y-94671283D01*
X133632921Y-94633862D01*
X133586093Y-94565247D01*
X133544501Y-94502952D01*
X133510175Y-94450129D01*
X133485143Y-94409927D01*
X133471435Y-94385500D01*
X133469456Y-94380024D01*
X133477966Y-94367278D01*
X133501493Y-94340063D01*
X133537032Y-94301428D01*
X133581577Y-94254423D01*
X133632123Y-94202095D01*
X133685664Y-94147495D01*
X133739195Y-94093670D01*
X133789711Y-94043670D01*
X133834206Y-94000543D01*
X133869675Y-93967339D01*
X133893113Y-93947106D01*
X133900954Y-93942278D01*
X133913720Y-93949067D01*
X133944256Y-93968142D01*
X133989590Y-93997561D01*
X134046756Y-94035381D01*
X134112784Y-94079661D01*
X134162590Y-94113395D01*
X134414236Y-94284512D01*
X134623999Y-94198041D01*
X134833763Y-94111570D01*
X134890611Y-93810018D01*
X134947460Y-93508466D01*
X135575115Y-93508466D01*
X135631964Y-93810018D01*
G36*
X137054460Y-97978030D02*
G01*
X137097711Y-97991245D01*
X137125558Y-98007941D01*
X137134629Y-98021145D01*
X137132132Y-98036797D01*
X137115931Y-98061385D01*
X137102232Y-98078800D01*
X137073992Y-98110283D01*
X137052775Y-98123529D01*
X137034688Y-98122664D01*
X136981035Y-98109010D01*
X136941630Y-98109630D01*
X136909632Y-98125104D01*
X136898890Y-98134161D01*
X136864505Y-98166027D01*
X136864505Y-98582179D01*
X136726188Y-98582179D01*
X136726188Y-97978614D01*
X136795347Y-97978614D01*
X136836869Y-97980256D01*
X136858291Y-97986087D01*
X136864502Y-97997461D01*
X136864505Y-97997798D01*
X136867439Y-98009713D01*
X136880704Y-98008159D01*
X136899084Y-97999563D01*
X136937046Y-97983568D01*
X136967872Y-97973945D01*
X137007536Y-97971478D01*
X137054460Y-97978030D01*
G37*
X137054460Y-97978030D02*
X137097711Y-97991245D01*
X137125558Y-98007941D01*
X137134629Y-98021145D01*
X137132132Y-98036797D01*
X137115931Y-98061385D01*
X137102232Y-98078800D01*
X137073992Y-98110283D01*
X137052775Y-98123529D01*
X137034688Y-98122664D01*
X136981035Y-98109010D01*
X136941630Y-98109630D01*
X136909632Y-98125104D01*
X136898890Y-98134161D01*
X136864505Y-98166027D01*
X136864505Y-98582179D01*
X136726188Y-98582179D01*
X136726188Y-97978614D01*
X136795347Y-97978614D01*
X136836869Y-97980256D01*
X136858291Y-97986087D01*
X136864502Y-97997461D01*
X136864505Y-97997798D01*
X136867439Y-98009713D01*
X136880704Y-98008159D01*
X136899084Y-97999563D01*
X136937046Y-97983568D01*
X136967872Y-97973945D01*
X137007536Y-97971478D01*
X137054460Y-97978030D01*
G36*
X134500988Y-97989002D02*
G01*
X134532283Y-98003950D01*
X134562591Y-98025541D01*
X134585682Y-98050391D01*
X134602500Y-98082087D01*
X134613994Y-98124214D01*
X134621109Y-98180358D01*
X134624793Y-98254106D01*
X134625992Y-98349044D01*
X134626011Y-98358985D01*
X134626287Y-98582179D01*
X134487970Y-98582179D01*
X134487970Y-98376418D01*
X134487872Y-98300189D01*
X134487191Y-98244939D01*
X134485349Y-98206501D01*
X134481767Y-98180706D01*
X134475868Y-98163384D01*
X134467073Y-98150368D01*
X134454820Y-98137507D01*
X134411953Y-98109873D01*
X134365157Y-98104745D01*
X134320576Y-98122217D01*
X134305072Y-98135221D01*
X134293690Y-98147447D01*
X134285519Y-98160540D01*
X134280026Y-98178615D01*
X134276680Y-98205787D01*
X134274949Y-98246170D01*
X134274303Y-98303879D01*
X134274208Y-98374132D01*
X134274208Y-98582179D01*
X134135891Y-98582179D01*
X134135891Y-97978614D01*
X134205050Y-97978614D01*
X134246572Y-97980256D01*
X134267994Y-97986087D01*
X134274205Y-97997461D01*
X134274208Y-97997798D01*
X134277090Y-98008938D01*
X134289801Y-98007674D01*
X134315074Y-97995434D01*
X134372395Y-97977424D01*
X134437963Y-97975421D01*
X134500988Y-97989002D01*
G37*
X134500988Y-97989002D02*
X134532283Y-98003950D01*
X134562591Y-98025541D01*
X134585682Y-98050391D01*
X134602500Y-98082087D01*
X134613994Y-98124214D01*
X134621109Y-98180358D01*
X134624793Y-98254106D01*
X134625992Y-98349044D01*
X134626011Y-98358985D01*
X134626287Y-98582179D01*
X134487970Y-98582179D01*
X134487970Y-98376418D01*
X134487872Y-98300189D01*
X134487191Y-98244939D01*
X134485349Y-98206501D01*
X134481767Y-98180706D01*
X134475868Y-98163384D01*
X134467073Y-98150368D01*
X134454820Y-98137507D01*
X134411953Y-98109873D01*
X134365157Y-98104745D01*
X134320576Y-98122217D01*
X134305072Y-98135221D01*
X134293690Y-98147447D01*
X134285519Y-98160540D01*
X134280026Y-98178615D01*
X134276680Y-98205787D01*
X134274949Y-98246170D01*
X134274303Y-98303879D01*
X134274208Y-98374132D01*
X134274208Y-98582179D01*
X134135891Y-98582179D01*
X134135891Y-97978614D01*
X134205050Y-97978614D01*
X134246572Y-97980256D01*
X134267994Y-97986087D01*
X134274205Y-97997461D01*
X134274208Y-97997798D01*
X134277090Y-98008938D01*
X134289801Y-98007674D01*
X134315074Y-97995434D01*
X134372395Y-97977424D01*
X134437963Y-97975421D01*
X134500988Y-97989002D01*
G36*
X137932898Y-97976457D02*
G01*
X137965096Y-97984279D01*
X138026825Y-98012921D01*
X138079610Y-98056667D01*
X138116141Y-98109117D01*
X138121160Y-98120893D01*
X138128045Y-98151740D01*
X138132864Y-98197371D01*
X138134505Y-98243492D01*
X138134505Y-98330693D01*
X137952178Y-98330693D01*
X137876979Y-98330978D01*
X137824003Y-98332704D01*
X137790325Y-98337181D01*
X137773020Y-98345720D01*
X137769163Y-98359630D01*
X137775829Y-98380222D01*
X137787770Y-98404315D01*
X137821080Y-98444525D01*
X137867368Y-98464558D01*
X137923944Y-98463905D01*
X137988031Y-98442101D01*
X138043417Y-98415193D01*
X138089375Y-98451532D01*
X138135333Y-98487872D01*
X138092096Y-98527819D01*
X138034374Y-98565563D01*
X137963386Y-98588320D01*
X137887029Y-98594688D01*
X137813199Y-98583268D01*
X137801287Y-98579393D01*
X137736399Y-98545506D01*
X137688130Y-98494986D01*
X137655465Y-98426325D01*
X137637385Y-98338014D01*
X137637175Y-98336121D01*
X137635556Y-98239878D01*
X137642100Y-98205542D01*
X137769852Y-98205542D01*
X137781584Y-98210822D01*
X137813438Y-98214867D01*
X137860397Y-98217176D01*
X137890154Y-98217525D01*
X137945648Y-98217306D01*
X137980346Y-98215916D01*
X137998601Y-98212251D01*
X138004766Y-98205210D01*
X138003195Y-98193690D01*
X138001878Y-98189233D01*
X137979382Y-98147355D01*
X137944003Y-98113604D01*
X137912780Y-98098773D01*
X137871301Y-98099668D01*
X137829269Y-98118164D01*
X137794012Y-98148786D01*
X137772854Y-98186062D01*
X137769852Y-98205542D01*
X137642100Y-98205542D01*
X137651690Y-98155229D01*
X137683698Y-98084191D01*
X137729701Y-98028779D01*
X137787821Y-97991009D01*
X137856180Y-97972896D01*
X137932898Y-97976457D01*
G37*
X137932898Y-97976457D02*
X137965096Y-97984279D01*
X138026825Y-98012921D01*
X138079610Y-98056667D01*
X138116141Y-98109117D01*
X138121160Y-98120893D01*
X138128045Y-98151740D01*
X138132864Y-98197371D01*
X138134505Y-98243492D01*
X138134505Y-98330693D01*
X137952178Y-98330693D01*
X137876979Y-98330978D01*
X137824003Y-98332704D01*
X137790325Y-98337181D01*
X137773020Y-98345720D01*
X137769163Y-98359630D01*
X137775829Y-98380222D01*
X137787770Y-98404315D01*
X137821080Y-98444525D01*
X137867368Y-98464558D01*
X137923944Y-98463905D01*
X137988031Y-98442101D01*
X138043417Y-98415193D01*
X138089375Y-98451532D01*
X138135333Y-98487872D01*
X138092096Y-98527819D01*
X138034374Y-98565563D01*
X137963386Y-98588320D01*
X137887029Y-98594688D01*
X137813199Y-98583268D01*
X137801287Y-98579393D01*
X137736399Y-98545506D01*
X137688130Y-98494986D01*
X137655465Y-98426325D01*
X137637385Y-98338014D01*
X137637175Y-98336121D01*
X137635556Y-98239878D01*
X137642100Y-98205542D01*
X137769852Y-98205542D01*
X137781584Y-98210822D01*
X137813438Y-98214867D01*
X137860397Y-98217176D01*
X137890154Y-98217525D01*
X137945648Y-98217306D01*
X137980346Y-98215916D01*
X137998601Y-98212251D01*
X138004766Y-98205210D01*
X138003195Y-98193690D01*
X138001878Y-98189233D01*
X137979382Y-98147355D01*
X137944003Y-98113604D01*
X137912780Y-98098773D01*
X137871301Y-98099668D01*
X137829269Y-98118164D01*
X137794012Y-98148786D01*
X137772854Y-98186062D01*
X137769852Y-98205542D01*
X137642100Y-98205542D01*
X137651690Y-98155229D01*
X137683698Y-98084191D01*
X137729701Y-98028779D01*
X137787821Y-97991009D01*
X137856180Y-97972896D01*
X137932898Y-97976457D01*
G36*
X137472226Y-97983880D02*
G01*
X137545080Y-98014830D01*
X137568027Y-98029895D01*
X137597354Y-98053048D01*
X137615764Y-98071253D01*
X137618961Y-98077183D01*
X137609935Y-98090340D01*
X137586837Y-98112667D01*
X137568344Y-98128250D01*
X137517728Y-98168926D01*
X137477760Y-98135295D01*
X137446874Y-98113584D01*
X137416759Y-98106090D01*
X137382292Y-98107920D01*
X137327561Y-98121528D01*
X137289886Y-98149772D01*
X137266991Y-98195433D01*
X137256597Y-98261289D01*
X137256595Y-98261331D01*
X137257494Y-98334939D01*
X137271463Y-98388946D01*
X137299328Y-98425716D01*
X137318325Y-98438168D01*
X137368776Y-98453673D01*
X137422663Y-98453683D01*
X137469546Y-98438638D01*
X137480644Y-98431287D01*
X137508476Y-98412511D01*
X137530236Y-98409434D01*
X137553704Y-98423409D01*
X137579649Y-98448510D01*
X137620716Y-98490880D01*
X137575121Y-98528464D01*
X137504674Y-98570882D01*
X137425233Y-98591785D01*
X137342215Y-98590272D01*
X137287694Y-98576411D01*
X137223970Y-98542135D01*
X137173005Y-98488212D01*
X137149851Y-98450149D01*
X137131099Y-98395536D01*
X137121715Y-98326369D01*
X137121643Y-98251407D01*
X137130824Y-98179409D01*
X137149199Y-98119137D01*
X137152093Y-98112958D01*
X137194952Y-98052351D01*
X137252979Y-98008224D01*
X137321591Y-97981493D01*
X137396201Y-97973073D01*
X137472226Y-97983880D01*
G37*
X137472226Y-97983880D02*
X137545080Y-98014830D01*
X137568027Y-98029895D01*
X137597354Y-98053048D01*
X137615764Y-98071253D01*
X137618961Y-98077183D01*
X137609935Y-98090340D01*
X137586837Y-98112667D01*
X137568344Y-98128250D01*
X137517728Y-98168926D01*
X137477760Y-98135295D01*
X137446874Y-98113584D01*
X137416759Y-98106090D01*
X137382292Y-98107920D01*
X137327561Y-98121528D01*
X137289886Y-98149772D01*
X137266991Y-98195433D01*
X137256597Y-98261289D01*
X137256595Y-98261331D01*
X137257494Y-98334939D01*
X137271463Y-98388946D01*
X137299328Y-98425716D01*
X137318325Y-98438168D01*
X137368776Y-98453673D01*
X137422663Y-98453683D01*
X137469546Y-98438638D01*
X137480644Y-98431287D01*
X137508476Y-98412511D01*
X137530236Y-98409434D01*
X137553704Y-98423409D01*
X137579649Y-98448510D01*
X137620716Y-98490880D01*
X137575121Y-98528464D01*
X137504674Y-98570882D01*
X137425233Y-98591785D01*
X137342215Y-98590272D01*
X137287694Y-98576411D01*
X137223970Y-98542135D01*
X137173005Y-98488212D01*
X137149851Y-98450149D01*
X137131099Y-98395536D01*
X137121715Y-98326369D01*
X137121643Y-98251407D01*
X137130824Y-98179409D01*
X137149199Y-98119137D01*
X137152093Y-98112958D01*
X137194952Y-98052351D01*
X137252979Y-98008224D01*
X137321591Y-97981493D01*
X137396201Y-97973073D01*
X137472226Y-97983880D01*
G36*
X136248367Y-98174342D02*
G01*
X136249555Y-98266563D01*
X136253897Y-98336610D01*
X136262558Y-98387381D01*
X136276704Y-98421772D01*
X136297500Y-98442679D01*
X136326110Y-98453000D01*
X136361535Y-98455636D01*
X136398636Y-98452682D01*
X136426818Y-98441889D01*
X136447243Y-98420360D01*
X136461079Y-98385199D01*
X136469491Y-98333510D01*
X136473643Y-98262394D01*
X136474703Y-98174342D01*
X136474703Y-97978614D01*
X136613020Y-97978614D01*
X136613020Y-98582179D01*
X136543862Y-98582179D01*
X136502170Y-98580489D01*
X136480701Y-98574556D01*
X136474703Y-98563293D01*
X136471091Y-98553261D01*
X136456714Y-98555383D01*
X136427736Y-98569580D01*
X136361319Y-98591480D01*
X136290875Y-98589928D01*
X136223377Y-98566147D01*
X136191233Y-98547362D01*
X136166715Y-98527022D01*
X136148804Y-98501573D01*
X136136479Y-98467458D01*
X136128723Y-98421121D01*
X136124516Y-98359007D01*
X136122840Y-98277561D01*
X136122624Y-98214578D01*
X136122624Y-97978614D01*
X136248367Y-97978614D01*
X136248367Y-98174342D01*
G37*
X136248367Y-98174342D02*
X136249555Y-98266563D01*
X136253897Y-98336610D01*
X136262558Y-98387381D01*
X136276704Y-98421772D01*
X136297500Y-98442679D01*
X136326110Y-98453000D01*
X136361535Y-98455636D01*
X136398636Y-98452682D01*
X136426818Y-98441889D01*
X136447243Y-98420360D01*
X136461079Y-98385199D01*
X136469491Y-98333510D01*
X136473643Y-98262394D01*
X136474703Y-98174342D01*
X136474703Y-97978614D01*
X136613020Y-97978614D01*
X136613020Y-98582179D01*
X136543862Y-98582179D01*
X136502170Y-98580489D01*
X136480701Y-98574556D01*
X136474703Y-98563293D01*
X136471091Y-98553261D01*
X136456714Y-98555383D01*
X136427736Y-98569580D01*
X136361319Y-98591480D01*
X136290875Y-98589928D01*
X136223377Y-98566147D01*
X136191233Y-98547362D01*
X136166715Y-98527022D01*
X136148804Y-98501573D01*
X136136479Y-98467458D01*
X136128723Y-98421121D01*
X136124516Y-98359007D01*
X136122840Y-98277561D01*
X136122624Y-98214578D01*
X136122624Y-97978614D01*
X136248367Y-97978614D01*
X136248367Y-98174342D01*
G36*
X135865762Y-97986055D02*
G01*
X135929363Y-98020692D01*
X135979123Y-98075372D01*
X136002568Y-98119842D01*
X136012634Y-98159121D01*
X136019156Y-98215116D01*
X136021951Y-98279621D01*
X136020836Y-98344429D01*
X136015626Y-98401334D01*
X136009541Y-98431727D01*
X135989014Y-98473306D01*
X135953463Y-98517468D01*
X135910619Y-98556087D01*
X135868211Y-98581034D01*
X135867177Y-98581430D01*
X135814553Y-98592331D01*
X135752188Y-98592601D01*
X135692924Y-98582676D01*
X135670040Y-98574722D01*
X135611102Y-98541300D01*
X135568890Y-98497511D01*
X135541156Y-98439538D01*
X135525651Y-98363565D01*
X135522143Y-98323771D01*
X135522590Y-98273766D01*
X135657376Y-98273766D01*
X135661917Y-98346732D01*
X135674986Y-98402334D01*
X135695756Y-98437861D01*
X135710552Y-98448020D01*
X135748464Y-98455104D01*
X135793527Y-98453007D01*
X135832487Y-98442812D01*
X135842704Y-98437204D01*
X135869659Y-98404538D01*
X135887451Y-98354545D01*
X135895024Y-98293705D01*
X135891325Y-98228497D01*
X135883057Y-98189253D01*
X135859320Y-98143805D01*
X135821849Y-98115396D01*
X135776720Y-98105573D01*
X135730011Y-98115887D01*
X135694132Y-98141112D01*
X135675277Y-98161925D01*
X135664272Y-98182439D01*
X135659026Y-98210203D01*
X135657449Y-98252762D01*
X135657376Y-98273766D01*
X135522590Y-98273766D01*
X135523094Y-98217580D01*
X135540388Y-98130501D01*
X135574029Y-98062530D01*
X135624018Y-98013664D01*
X135690356Y-97983899D01*
X135704601Y-97980448D01*
X135790210Y-97972345D01*
X135865762Y-97986055D01*
G37*
X135865762Y-97986055D02*
X135929363Y-98020692D01*
X135979123Y-98075372D01*
X136002568Y-98119842D01*
X136012634Y-98159121D01*
X136019156Y-98215116D01*
X136021951Y-98279621D01*
X136020836Y-98344429D01*
X136015626Y-98401334D01*
X136009541Y-98431727D01*
X135989014Y-98473306D01*
X135953463Y-98517468D01*
X135910619Y-98556087D01*
X135868211Y-98581034D01*
X135867177Y-98581430D01*
X135814553Y-98592331D01*
X135752188Y-98592601D01*
X135692924Y-98582676D01*
X135670040Y-98574722D01*
X135611102Y-98541300D01*
X135568890Y-98497511D01*
X135541156Y-98439538D01*
X135525651Y-98363565D01*
X135522143Y-98323771D01*
X135522590Y-98273766D01*
X135657376Y-98273766D01*
X135661917Y-98346732D01*
X135674986Y-98402334D01*
X135695756Y-98437861D01*
X135710552Y-98448020D01*
X135748464Y-98455104D01*
X135793527Y-98453007D01*
X135832487Y-98442812D01*
X135842704Y-98437204D01*
X135869659Y-98404538D01*
X135887451Y-98354545D01*
X135895024Y-98293705D01*
X135891325Y-98228497D01*
X135883057Y-98189253D01*
X135859320Y-98143805D01*
X135821849Y-98115396D01*
X135776720Y-98105573D01*
X135730011Y-98115887D01*
X135694132Y-98141112D01*
X135675277Y-98161925D01*
X135664272Y-98182439D01*
X135659026Y-98210203D01*
X135657449Y-98252762D01*
X135657376Y-98273766D01*
X135522590Y-98273766D01*
X135523094Y-98217580D01*
X135540388Y-98130501D01*
X135574029Y-98062530D01*
X135624018Y-98013664D01*
X135690356Y-97983899D01*
X135704601Y-97980448D01*
X135790210Y-97972345D01*
X135865762Y-97986055D01*
G36*
X135269017Y-97976452D02*
G01*
X135316634Y-97985482D01*
X135366034Y-98004370D01*
X135371312Y-98006777D01*
X135408774Y-98026476D01*
X135434717Y-98044781D01*
X135443103Y-98056508D01*
X135435117Y-98075632D01*
X135415720Y-98103850D01*
X135407110Y-98114384D01*
X135371628Y-98155847D01*
X135325885Y-98128858D01*
X135282350Y-98110878D01*
X135232050Y-98101267D01*
X135183812Y-98100660D01*
X135146467Y-98109691D01*
X135137505Y-98115327D01*
X135120437Y-98141171D01*
X135118363Y-98170941D01*
X135131134Y-98194197D01*
X135138688Y-98198708D01*
X135161325Y-98204309D01*
X135201115Y-98210892D01*
X135250166Y-98217183D01*
X135259215Y-98218170D01*
X135337996Y-98231798D01*
X135395136Y-98254946D01*
X135433030Y-98289752D01*
X135454079Y-98338354D01*
X135460635Y-98397718D01*
X135451577Y-98465198D01*
X135422164Y-98518188D01*
X135372278Y-98556783D01*
X135301800Y-98581081D01*
X135223565Y-98590667D01*
X135159766Y-98590552D01*
X135108016Y-98581845D01*
X135072673Y-98569825D01*
X135028017Y-98548880D01*
X134986747Y-98524574D01*
X134972079Y-98513876D01*
X134934357Y-98483084D01*
X134979852Y-98437049D01*
X135025347Y-98391013D01*
X135077072Y-98425243D01*
X135128952Y-98450952D01*
X135184351Y-98464399D01*
X135237605Y-98465818D01*
X135283049Y-98455443D01*
X135315016Y-98433507D01*
X135325338Y-98414998D01*
X135323789Y-98385314D01*
X135298140Y-98362615D01*
X135248460Y-98346940D01*
X135194031Y-98339695D01*
X135110264Y-98325873D01*
X135048033Y-98299796D01*
X135006507Y-98260699D01*
X134984853Y-98207820D01*
X134981853Y-98145126D01*
X134996671Y-98079642D01*
X135030454Y-98030144D01*
X135083505Y-97996408D01*
X135156126Y-97978207D01*
X135209928Y-97974639D01*
X135269017Y-97976452D01*
G37*
X135269017Y-97976452D02*
X135316634Y-97985482D01*
X135366034Y-98004370D01*
X135371312Y-98006777D01*
X135408774Y-98026476D01*
X135434717Y-98044781D01*
X135443103Y-98056508D01*
X135435117Y-98075632D01*
X135415720Y-98103850D01*
X135407110Y-98114384D01*
X135371628Y-98155847D01*
X135325885Y-98128858D01*
X135282350Y-98110878D01*
X135232050Y-98101267D01*
X135183812Y-98100660D01*
X135146467Y-98109691D01*
X135137505Y-98115327D01*
X135120437Y-98141171D01*
X135118363Y-98170941D01*
X135131134Y-98194197D01*
X135138688Y-98198708D01*
X135161325Y-98204309D01*
X135201115Y-98210892D01*
X135250166Y-98217183D01*
X135259215Y-98218170D01*
X135337996Y-98231798D01*
X135395136Y-98254946D01*
X135433030Y-98289752D01*
X135454079Y-98338354D01*
X135460635Y-98397718D01*
X135451577Y-98465198D01*
X135422164Y-98518188D01*
X135372278Y-98556783D01*
X135301800Y-98581081D01*
X135223565Y-98590667D01*
X135159766Y-98590552D01*
X135108016Y-98581845D01*
X135072673Y-98569825D01*
X135028017Y-98548880D01*
X134986747Y-98524574D01*
X134972079Y-98513876D01*
X134934357Y-98483084D01*
X134979852Y-98437049D01*
X135025347Y-98391013D01*
X135077072Y-98425243D01*
X135128952Y-98450952D01*
X135184351Y-98464399D01*
X135237605Y-98465818D01*
X135283049Y-98455443D01*
X135315016Y-98433507D01*
X135325338Y-98414998D01*
X135323789Y-98385314D01*
X135298140Y-98362615D01*
X135248460Y-98346940D01*
X135194031Y-98339695D01*
X135110264Y-98325873D01*
X135048033Y-98299796D01*
X135006507Y-98260699D01*
X134984853Y-98207820D01*
X134981853Y-98145126D01*
X134996671Y-98079642D01*
X135030454Y-98030144D01*
X135083505Y-97996408D01*
X135156126Y-97978207D01*
X135209928Y-97974639D01*
X135269017Y-97976452D01*
G36*
X133898301Y-97992614D02*
G01*
X133910832Y-97998514D01*
X133954201Y-98030283D01*
X133995210Y-98076646D01*
X134025832Y-98127696D01*
X134034541Y-98151166D01*
X134042488Y-98193091D01*
X134047226Y-98243757D01*
X134047801Y-98264679D01*
X134047871Y-98330693D01*
X133667917Y-98330693D01*
X133676017Y-98365273D01*
X133695896Y-98406170D01*
X133730653Y-98441514D01*
X133772002Y-98464282D01*
X133798351Y-98469010D01*
X133834084Y-98463273D01*
X133876718Y-98448882D01*
X133891201Y-98442262D01*
X133944760Y-98415513D01*
X133990467Y-98450376D01*
X134016842Y-98473955D01*
X134030876Y-98493417D01*
X134031586Y-98499129D01*
X134019049Y-98512973D01*
X133991572Y-98534012D01*
X133966634Y-98550425D01*
X133899336Y-98579930D01*
X133823890Y-98593284D01*
X133749112Y-98589812D01*
X133689505Y-98571663D01*
X133628059Y-98532784D01*
X133584392Y-98481595D01*
X133557074Y-98415367D01*
X133544678Y-98331371D01*
X133543579Y-98292936D01*
X133547978Y-98204861D01*
X133548518Y-98202299D01*
X133674418Y-98202299D01*
X133677885Y-98210558D01*
X133692137Y-98215113D01*
X133721530Y-98217065D01*
X133770425Y-98217517D01*
X133789252Y-98217525D01*
X133846533Y-98216843D01*
X133882859Y-98214364D01*
X133902396Y-98209443D01*
X133909310Y-98201434D01*
X133909555Y-98198862D01*
X133901664Y-98178423D01*
X133881915Y-98149789D01*
X133873425Y-98139763D01*
X133841906Y-98111408D01*
X133809051Y-98100259D01*
X133791349Y-98099327D01*
X133743461Y-98110981D01*
X133703301Y-98142285D01*
X133677827Y-98187752D01*
X133677375Y-98189233D01*
X133674418Y-98202299D01*
X133548518Y-98202299D01*
X133562608Y-98135510D01*
X133588962Y-98080025D01*
X133621193Y-98040639D01*
X133680783Y-97997931D01*
X133750832Y-97975109D01*
X133825339Y-97973046D01*
X133898301Y-97992614D01*
G37*
X133898301Y-97992614D02*
X133910832Y-97998514D01*
X133954201Y-98030283D01*
X133995210Y-98076646D01*
X134025832Y-98127696D01*
X134034541Y-98151166D01*
X134042488Y-98193091D01*
X134047226Y-98243757D01*
X134047801Y-98264679D01*
X134047871Y-98330693D01*
X133667917Y-98330693D01*
X133676017Y-98365273D01*
X133695896Y-98406170D01*
X133730653Y-98441514D01*
X133772002Y-98464282D01*
X133798351Y-98469010D01*
X133834084Y-98463273D01*
X133876718Y-98448882D01*
X133891201Y-98442262D01*
X133944760Y-98415513D01*
X133990467Y-98450376D01*
X134016842Y-98473955D01*
X134030876Y-98493417D01*
X134031586Y-98499129D01*
X134019049Y-98512973D01*
X133991572Y-98534012D01*
X133966634Y-98550425D01*
X133899336Y-98579930D01*
X133823890Y-98593284D01*
X133749112Y-98589812D01*
X133689505Y-98571663D01*
X133628059Y-98532784D01*
X133584392Y-98481595D01*
X133557074Y-98415367D01*
X133544678Y-98331371D01*
X133543579Y-98292936D01*
X133547978Y-98204861D01*
X133548518Y-98202299D01*
X133674418Y-98202299D01*
X133677885Y-98210558D01*
X133692137Y-98215113D01*
X133721530Y-98217065D01*
X133770425Y-98217517D01*
X133789252Y-98217525D01*
X133846533Y-98216843D01*
X133882859Y-98214364D01*
X133902396Y-98209443D01*
X133909310Y-98201434D01*
X133909555Y-98198862D01*
X133901664Y-98178423D01*
X133881915Y-98149789D01*
X133873425Y-98139763D01*
X133841906Y-98111408D01*
X133809051Y-98100259D01*
X133791349Y-98099327D01*
X133743461Y-98110981D01*
X133703301Y-98142285D01*
X133677827Y-98187752D01*
X133677375Y-98189233D01*
X133674418Y-98202299D01*
X133548518Y-98202299D01*
X133562608Y-98135510D01*
X133588962Y-98080025D01*
X133621193Y-98040639D01*
X133680783Y-97997931D01*
X133750832Y-97975109D01*
X133825339Y-97973046D01*
X133898301Y-97992614D01*
G36*
X132716739Y-97985148D02*
G01*
X132782521Y-98014231D01*
X132832460Y-98062793D01*
X132866626Y-98130908D01*
X132885093Y-98218651D01*
X132886417Y-98232351D01*
X132887454Y-98328939D01*
X132874007Y-98413602D01*
X132846892Y-98482221D01*
X132832373Y-98504294D01*
X132781799Y-98551011D01*
X132717391Y-98581268D01*
X132645334Y-98593824D01*
X132571815Y-98587439D01*
X132515928Y-98567772D01*
X132467868Y-98534629D01*
X132428588Y-98491175D01*
X132427908Y-98490158D01*
X132411956Y-98463338D01*
X132401590Y-98436368D01*
X132395312Y-98402332D01*
X132391627Y-98354310D01*
X132390003Y-98314931D01*
X132389328Y-98279219D01*
X132515045Y-98279219D01*
X132516274Y-98314770D01*
X132520734Y-98362094D01*
X132528603Y-98392465D01*
X132542793Y-98414072D01*
X132556083Y-98426694D01*
X132603198Y-98453122D01*
X132652495Y-98456653D01*
X132698407Y-98437639D01*
X132721362Y-98416331D01*
X132737904Y-98394859D01*
X132747579Y-98374313D01*
X132751826Y-98347574D01*
X132752080Y-98307523D01*
X132750772Y-98270638D01*
X132747957Y-98217947D01*
X132743495Y-98183772D01*
X132735452Y-98161480D01*
X132721897Y-98144442D01*
X132711155Y-98134703D01*
X132666223Y-98109123D01*
X132617751Y-98107847D01*
X132577106Y-98122999D01*
X132542433Y-98154642D01*
X132521776Y-98206620D01*
X132515045Y-98279219D01*
X132389328Y-98279219D01*
X132388521Y-98236621D01*
X132391052Y-98178056D01*
X132398638Y-98134007D01*
X132412319Y-98099248D01*
X132433135Y-98068551D01*
X132440853Y-98059436D01*
X132489111Y-98014021D01*
X132540872Y-97987493D01*
X132604172Y-97976379D01*
X132635039Y-97975471D01*
X132716739Y-97985148D01*
G37*
X132716739Y-97985148D02*
X132782521Y-98014231D01*
X132832460Y-98062793D01*
X132866626Y-98130908D01*
X132885093Y-98218651D01*
X132886417Y-98232351D01*
X132887454Y-98328939D01*
X132874007Y-98413602D01*
X132846892Y-98482221D01*
X132832373Y-98504294D01*
X132781799Y-98551011D01*
X132717391Y-98581268D01*
X132645334Y-98593824D01*
X132571815Y-98587439D01*
X132515928Y-98567772D01*
X132467868Y-98534629D01*
X132428588Y-98491175D01*
X132427908Y-98490158D01*
X132411956Y-98463338D01*
X132401590Y-98436368D01*
X132395312Y-98402332D01*
X132391627Y-98354310D01*
X132390003Y-98314931D01*
X132389328Y-98279219D01*
X132515045Y-98279219D01*
X132516274Y-98314770D01*
X132520734Y-98362094D01*
X132528603Y-98392465D01*
X132542793Y-98414072D01*
X132556083Y-98426694D01*
X132603198Y-98453122D01*
X132652495Y-98456653D01*
X132698407Y-98437639D01*
X132721362Y-98416331D01*
X132737904Y-98394859D01*
X132747579Y-98374313D01*
X132751826Y-98347574D01*
X132752080Y-98307523D01*
X132750772Y-98270638D01*
X132747957Y-98217947D01*
X132743495Y-98183772D01*
X132735452Y-98161480D01*
X132721897Y-98144442D01*
X132711155Y-98134703D01*
X132666223Y-98109123D01*
X132617751Y-98107847D01*
X132577106Y-98122999D01*
X132542433Y-98154642D01*
X132521776Y-98206620D01*
X132515045Y-98279219D01*
X132389328Y-98279219D01*
X132388521Y-98236621D01*
X132391052Y-98178056D01*
X132398638Y-98134007D01*
X132412319Y-98099248D01*
X132433135Y-98068551D01*
X132440853Y-98059436D01*
X132489111Y-98014021D01*
X132540872Y-97987493D01*
X132604172Y-97976379D01*
X132635039Y-97975471D01*
X132716739Y-97985148D01*
G36*
X137287581Y-98924970D02*
G01*
X137347685Y-98940597D01*
X137398021Y-98972848D01*
X137422393Y-98996940D01*
X137462345Y-99053895D01*
X137485242Y-99119965D01*
X137493108Y-99201182D01*
X137493148Y-99207748D01*
X137493218Y-99273763D01*
X137113264Y-99273763D01*
X137121363Y-99308342D01*
X137135987Y-99339659D01*
X137161581Y-99372291D01*
X137166935Y-99377500D01*
X137212943Y-99405694D01*
X137265410Y-99410475D01*
X137325803Y-99391926D01*
X137336040Y-99386931D01*
X137367439Y-99371745D01*
X137388470Y-99363094D01*
X137392139Y-99362293D01*
X137404948Y-99370063D01*
X137429378Y-99389072D01*
X137441779Y-99399460D01*
X137467476Y-99423321D01*
X137475915Y-99439077D01*
X137470058Y-99453571D01*
X137466928Y-99457534D01*
X137445725Y-99474879D01*
X137410738Y-99495959D01*
X137386337Y-99508265D01*
X137317072Y-99529946D01*
X137240388Y-99536971D01*
X137167765Y-99528647D01*
X137147426Y-99522686D01*
X137084476Y-99488952D01*
X137037815Y-99437045D01*
X137007173Y-99366459D01*
X136992282Y-99276692D01*
X136990647Y-99229753D01*
X136995421Y-99161413D01*
X137115990Y-99161413D01*
X137127652Y-99166465D01*
X137158998Y-99170429D01*
X137204571Y-99172768D01*
X137235446Y-99173169D01*
X137290981Y-99172783D01*
X137326033Y-99170975D01*
X137345262Y-99166773D01*
X137353330Y-99159203D01*
X137354901Y-99148218D01*
X137344121Y-99114381D01*
X137316980Y-99080940D01*
X137281277Y-99055272D01*
X137245560Y-99044772D01*
X137197048Y-99054086D01*
X137155053Y-99081013D01*
X137125936Y-99119827D01*
X137115990Y-99161413D01*
X136995421Y-99161413D01*
X136997599Y-99130236D01*
X137019055Y-99050949D01*
X137055470Y-98991263D01*
X137107297Y-98950549D01*
X137174990Y-98928179D01*
X137211662Y-98923871D01*
X137287581Y-98924970D01*
G37*
X137287581Y-98924970D02*
X137347685Y-98940597D01*
X137398021Y-98972848D01*
X137422393Y-98996940D01*
X137462345Y-99053895D01*
X137485242Y-99119965D01*
X137493108Y-99201182D01*
X137493148Y-99207748D01*
X137493218Y-99273763D01*
X137113264Y-99273763D01*
X137121363Y-99308342D01*
X137135987Y-99339659D01*
X137161581Y-99372291D01*
X137166935Y-99377500D01*
X137212943Y-99405694D01*
X137265410Y-99410475D01*
X137325803Y-99391926D01*
X137336040Y-99386931D01*
X137367439Y-99371745D01*
X137388470Y-99363094D01*
X137392139Y-99362293D01*
X137404948Y-99370063D01*
X137429378Y-99389072D01*
X137441779Y-99399460D01*
X137467476Y-99423321D01*
X137475915Y-99439077D01*
X137470058Y-99453571D01*
X137466928Y-99457534D01*
X137445725Y-99474879D01*
X137410738Y-99495959D01*
X137386337Y-99508265D01*
X137317072Y-99529946D01*
X137240388Y-99536971D01*
X137167765Y-99528647D01*
X137147426Y-99522686D01*
X137084476Y-99488952D01*
X137037815Y-99437045D01*
X137007173Y-99366459D01*
X136992282Y-99276692D01*
X136990647Y-99229753D01*
X136995421Y-99161413D01*
X137115990Y-99161413D01*
X137127652Y-99166465D01*
X137158998Y-99170429D01*
X137204571Y-99172768D01*
X137235446Y-99173169D01*
X137290981Y-99172783D01*
X137326033Y-99170975D01*
X137345262Y-99166773D01*
X137353330Y-99159203D01*
X137354901Y-99148218D01*
X137344121Y-99114381D01*
X137316980Y-99080940D01*
X137281277Y-99055272D01*
X137245560Y-99044772D01*
X137197048Y-99054086D01*
X137155053Y-99081013D01*
X137125936Y-99119827D01*
X137115990Y-99161413D01*
X136995421Y-99161413D01*
X136997599Y-99130236D01*
X137019055Y-99050949D01*
X137055470Y-98991263D01*
X137107297Y-98950549D01*
X137174990Y-98928179D01*
X137211662Y-98923871D01*
X137287581Y-98924970D01*
G36*
X136890255Y-98921486D02*
G01*
X136938595Y-98931015D01*
X136966114Y-98945125D01*
X136995064Y-98968568D01*
X136953876Y-99020571D01*
X136928482Y-99052064D01*
X136911238Y-99067428D01*
X136894102Y-99069776D01*
X136869027Y-99062217D01*
X136857257Y-99057941D01*
X136809270Y-99051631D01*
X136765324Y-99065156D01*
X136733060Y-99095710D01*
X136727819Y-99105452D01*
X136722112Y-99131258D01*
X136717706Y-99178817D01*
X136714811Y-99244758D01*
X136713631Y-99325710D01*
X136713614Y-99337226D01*
X136713614Y-99537822D01*
X136575297Y-99537822D01*
X136575297Y-98921683D01*
X136644456Y-98921683D01*
X136684333Y-98922725D01*
X136705107Y-98927358D01*
X136712789Y-98937849D01*
X136713614Y-98947745D01*
X136713614Y-98973806D01*
X136746745Y-98947745D01*
X136784735Y-98929965D01*
X136835770Y-98921174D01*
X136890255Y-98921486D01*
G37*
X136890255Y-98921486D02*
X136938595Y-98931015D01*
X136966114Y-98945125D01*
X136995064Y-98968568D01*
X136953876Y-99020571D01*
X136928482Y-99052064D01*
X136911238Y-99067428D01*
X136894102Y-99069776D01*
X136869027Y-99062217D01*
X136857257Y-99057941D01*
X136809270Y-99051631D01*
X136765324Y-99065156D01*
X136733060Y-99095710D01*
X136727819Y-99105452D01*
X136722112Y-99131258D01*
X136717706Y-99178817D01*
X136714811Y-99244758D01*
X136713631Y-99325710D01*
X136713614Y-99337226D01*
X136713614Y-99537822D01*
X136575297Y-99537822D01*
X136575297Y-98921683D01*
X136644456Y-98921683D01*
X136684333Y-98922725D01*
X136705107Y-98927358D01*
X136712789Y-98937849D01*
X136713614Y-98947745D01*
X136713614Y-98973806D01*
X136746745Y-98947745D01*
X136784735Y-98929965D01*
X136835770Y-98921174D01*
X136890255Y-98921486D01*
G36*
X136293411Y-98925417D02*
G01*
X136346411Y-98938290D01*
X136361731Y-98945110D01*
X136391428Y-98962974D01*
X136414220Y-98983093D01*
X136431083Y-99008962D01*
X136442998Y-99044073D01*
X136450942Y-99091920D01*
X136455894Y-99155996D01*
X136458831Y-99239794D01*
X136459947Y-99295768D01*
X136464052Y-99537822D01*
X136393932Y-99537822D01*
X136351393Y-99536038D01*
X136329476Y-99529942D01*
X136323812Y-99519706D01*
X136320821Y-99508637D01*
X136307451Y-99510754D01*
X136289233Y-99519629D01*
X136243624Y-99533233D01*
X136185007Y-99536899D01*
X136123354Y-99530903D01*
X136068638Y-99515521D01*
X136063730Y-99513386D01*
X136013723Y-99478255D01*
X135980756Y-99429419D01*
X135965587Y-99372333D01*
X135966746Y-99351824D01*
X136090508Y-99351824D01*
X136101413Y-99379425D01*
X136133745Y-99399204D01*
X136185910Y-99409819D01*
X136213787Y-99411228D01*
X136260247Y-99407620D01*
X136291129Y-99393597D01*
X136298664Y-99386931D01*
X136319076Y-99350666D01*
X136323812Y-99317773D01*
X136323812Y-99273763D01*
X136262513Y-99273763D01*
X136191256Y-99277395D01*
X136141276Y-99288818D01*
X136109696Y-99308824D01*
X136102626Y-99317743D01*
X136090508Y-99351824D01*
X135966746Y-99351824D01*
X135968971Y-99312456D01*
X135991663Y-99255244D01*
X136022624Y-99216580D01*
X136041376Y-99199864D01*
X136059733Y-99188878D01*
X136083619Y-99182180D01*
X136118957Y-99178326D01*
X136171669Y-99175873D01*
X136192577Y-99175168D01*
X136323812Y-99170879D01*
X136323620Y-99131158D01*
X136318537Y-99089405D01*
X136300162Y-99064158D01*
X136263039Y-99048030D01*
X136262043Y-99047742D01*
X136209410Y-99041400D01*
X136157906Y-99049684D01*
X136119630Y-99069827D01*
X136104272Y-99079773D01*
X136087730Y-99078397D01*
X136062275Y-99063987D01*
X136047328Y-99053817D01*
X136018091Y-99032088D01*
X135999980Y-99015800D01*
X135997074Y-99011137D01*
X136009040Y-98987005D01*
X136044396Y-98958185D01*
X136059753Y-98948461D01*
X136103901Y-98931714D01*
X136163398Y-98922227D01*
X136229487Y-98920095D01*
X136293411Y-98925417D01*
G37*
X136293411Y-98925417D02*
X136346411Y-98938290D01*
X136361731Y-98945110D01*
X136391428Y-98962974D01*
X136414220Y-98983093D01*
X136431083Y-99008962D01*
X136442998Y-99044073D01*
X136450942Y-99091920D01*
X136455894Y-99155996D01*
X136458831Y-99239794D01*
X136459947Y-99295768D01*
X136464052Y-99537822D01*
X136393932Y-99537822D01*
X136351393Y-99536038D01*
X136329476Y-99529942D01*
X136323812Y-99519706D01*
X136320821Y-99508637D01*
X136307451Y-99510754D01*
X136289233Y-99519629D01*
X136243624Y-99533233D01*
X136185007Y-99536899D01*
X136123354Y-99530903D01*
X136068638Y-99515521D01*
X136063730Y-99513386D01*
X136013723Y-99478255D01*
X135980756Y-99429419D01*
X135965587Y-99372333D01*
X135966746Y-99351824D01*
X136090508Y-99351824D01*
X136101413Y-99379425D01*
X136133745Y-99399204D01*
X136185910Y-99409819D01*
X136213787Y-99411228D01*
X136260247Y-99407620D01*
X136291129Y-99393597D01*
X136298664Y-99386931D01*
X136319076Y-99350666D01*
X136323812Y-99317773D01*
X136323812Y-99273763D01*
X136262513Y-99273763D01*
X136191256Y-99277395D01*
X136141276Y-99288818D01*
X136109696Y-99308824D01*
X136102626Y-99317743D01*
X136090508Y-99351824D01*
X135966746Y-99351824D01*
X135968971Y-99312456D01*
X135991663Y-99255244D01*
X136022624Y-99216580D01*
X136041376Y-99199864D01*
X136059733Y-99188878D01*
X136083619Y-99182180D01*
X136118957Y-99178326D01*
X136171669Y-99175873D01*
X136192577Y-99175168D01*
X136323812Y-99170879D01*
X136323620Y-99131158D01*
X136318537Y-99089405D01*
X136300162Y-99064158D01*
X136263039Y-99048030D01*
X136262043Y-99047742D01*
X136209410Y-99041400D01*
X136157906Y-99049684D01*
X136119630Y-99069827D01*
X136104272Y-99079773D01*
X136087730Y-99078397D01*
X136062275Y-99063987D01*
X136047328Y-99053817D01*
X136018091Y-99032088D01*
X135999980Y-99015800D01*
X135997074Y-99011137D01*
X136009040Y-98987005D01*
X136044396Y-98958185D01*
X136059753Y-98948461D01*
X136103901Y-98931714D01*
X136163398Y-98922227D01*
X136229487Y-98920095D01*
X136293411Y-98925417D01*
G36*
X135536524Y-98924237D02*
G01*
X135586255Y-98927971D01*
X135716291Y-99317773D01*
X135736678Y-99248614D01*
X135748946Y-99205874D01*
X135765085Y-99148115D01*
X135782512Y-99084625D01*
X135791726Y-99050570D01*
X135826388Y-98921683D01*
X135969391Y-98921683D01*
X135926646Y-99056857D01*
X135905596Y-99123342D01*
X135880167Y-99203539D01*
X135853610Y-99287193D01*
X135829902Y-99361782D01*
X135775902Y-99531535D01*
X135717598Y-99535328D01*
X135659295Y-99539122D01*
X135627679Y-99434734D01*
X135608182Y-99369889D01*
X135586904Y-99298400D01*
X135568308Y-99235263D01*
X135567574Y-99232750D01*
X135553684Y-99189969D01*
X135541429Y-99160779D01*
X135532846Y-99149741D01*
X135531082Y-99151018D01*
X135524891Y-99168130D01*
X135513128Y-99204787D01*
X135497225Y-99256378D01*
X135478614Y-99318294D01*
X135468543Y-99352352D01*
X135414007Y-99537822D01*
X135298264Y-99537822D01*
X135205737Y-99245471D01*
X135179744Y-99163462D01*
X135156066Y-99088987D01*
X135135820Y-99025544D01*
X135120126Y-98976632D01*
X135110102Y-98945749D01*
X135107055Y-98936726D01*
X135109467Y-98927487D01*
X135128408Y-98923441D01*
X135167823Y-98923846D01*
X135173993Y-98924152D01*
X135247086Y-98927971D01*
X135294957Y-99104010D01*
X135312553Y-99168211D01*
X135328277Y-99224649D01*
X135340746Y-99268422D01*
X135348574Y-99294630D01*
X135350020Y-99298903D01*
X135356014Y-99293990D01*
X135368101Y-99268532D01*
X135384893Y-99225997D01*
X135405003Y-99169850D01*
X135422003Y-99119130D01*
X135486794Y-98920504D01*
X135536524Y-98924237D01*
G37*
X135536524Y-98924237D02*
X135586255Y-98927971D01*
X135716291Y-99317773D01*
X135736678Y-99248614D01*
X135748946Y-99205874D01*
X135765085Y-99148115D01*
X135782512Y-99084625D01*
X135791726Y-99050570D01*
X135826388Y-98921683D01*
X135969391Y-98921683D01*
X135926646Y-99056857D01*
X135905596Y-99123342D01*
X135880167Y-99203539D01*
X135853610Y-99287193D01*
X135829902Y-99361782D01*
X135775902Y-99531535D01*
X135717598Y-99535328D01*
X135659295Y-99539122D01*
X135627679Y-99434734D01*
X135608182Y-99369889D01*
X135586904Y-99298400D01*
X135568308Y-99235263D01*
X135567574Y-99232750D01*
X135553684Y-99189969D01*
X135541429Y-99160779D01*
X135532846Y-99149741D01*
X135531082Y-99151018D01*
X135524891Y-99168130D01*
X135513128Y-99204787D01*
X135497225Y-99256378D01*
X135478614Y-99318294D01*
X135468543Y-99352352D01*
X135414007Y-99537822D01*
X135298264Y-99537822D01*
X135205737Y-99245471D01*
X135179744Y-99163462D01*
X135156066Y-99088987D01*
X135135820Y-99025544D01*
X135120126Y-98976632D01*
X135110102Y-98945749D01*
X135107055Y-98936726D01*
X135109467Y-98927487D01*
X135128408Y-98923441D01*
X135167823Y-98923846D01*
X135173993Y-98924152D01*
X135247086Y-98927971D01*
X135294957Y-99104010D01*
X135312553Y-99168211D01*
X135328277Y-99224649D01*
X135340746Y-99268422D01*
X135348574Y-99294630D01*
X135350020Y-99298903D01*
X135356014Y-99293990D01*
X135368101Y-99268532D01*
X135384893Y-99225997D01*
X135405003Y-99169850D01*
X135422003Y-99119130D01*
X135486794Y-98920504D01*
X135536524Y-98924237D01*
G36*
X135053812Y-99537822D02*
G01*
X134984654Y-99537822D01*
X134944512Y-99536645D01*
X134923606Y-99531772D01*
X134916078Y-99521186D01*
X134915495Y-99514029D01*
X134914226Y-99499676D01*
X134906221Y-99496923D01*
X134885185Y-99505771D01*
X134868827Y-99514029D01*
X134806023Y-99533597D01*
X134737752Y-99534729D01*
X134682248Y-99520135D01*
X134630562Y-99484877D01*
X134591162Y-99432835D01*
X134569587Y-99371450D01*
X134569038Y-99368018D01*
X134565833Y-99330571D01*
X134564239Y-99276813D01*
X134564367Y-99236155D01*
X134701721Y-99236155D01*
X134704903Y-99290194D01*
X134712141Y-99334735D01*
X134721940Y-99359888D01*
X134759011Y-99394260D01*
X134803026Y-99406582D01*
X134848416Y-99396618D01*
X134887203Y-99366895D01*
X134901892Y-99346905D01*
X134910481Y-99323050D01*
X134914504Y-99288230D01*
X134915495Y-99235930D01*
X134913722Y-99184139D01*
X134909037Y-99138634D01*
X134902397Y-99108181D01*
X134901290Y-99105452D01*
X134874509Y-99073000D01*
X134835421Y-99055183D01*
X134791685Y-99052306D01*
X134750962Y-99064674D01*
X134720913Y-99092593D01*
X134717796Y-99098148D01*
X134708039Y-99132022D01*
X134702723Y-99180728D01*
X134701721Y-99236155D01*
X134564367Y-99236155D01*
X134564432Y-99215540D01*
X134565336Y-99182563D01*
X134571486Y-99100981D01*
X134584267Y-99039730D01*
X134605529Y-98994449D01*
X134637122Y-98960779D01*
X134667793Y-98941014D01*
X134710646Y-98927120D01*
X134763944Y-98922354D01*
X134818520Y-98926236D01*
X134865208Y-98938282D01*
X134889876Y-98952693D01*
X134915495Y-98975878D01*
X134915495Y-98682773D01*
X135053812Y-98682773D01*
X135053812Y-99537822D01*
G37*
X135053812Y-99537822D02*
X134984654Y-99537822D01*
X134944512Y-99536645D01*
X134923606Y-99531772D01*
X134916078Y-99521186D01*
X134915495Y-99514029D01*
X134914226Y-99499676D01*
X134906221Y-99496923D01*
X134885185Y-99505771D01*
X134868827Y-99514029D01*
X134806023Y-99533597D01*
X134737752Y-99534729D01*
X134682248Y-99520135D01*
X134630562Y-99484877D01*
X134591162Y-99432835D01*
X134569587Y-99371450D01*
X134569038Y-99368018D01*
X134565833Y-99330571D01*
X134564239Y-99276813D01*
X134564367Y-99236155D01*
X134701721Y-99236155D01*
X134704903Y-99290194D01*
X134712141Y-99334735D01*
X134721940Y-99359888D01*
X134759011Y-99394260D01*
X134803026Y-99406582D01*
X134848416Y-99396618D01*
X134887203Y-99366895D01*
X134901892Y-99346905D01*
X134910481Y-99323050D01*
X134914504Y-99288230D01*
X134915495Y-99235930D01*
X134913722Y-99184139D01*
X134909037Y-99138634D01*
X134902397Y-99108181D01*
X134901290Y-99105452D01*
X134874509Y-99073000D01*
X134835421Y-99055183D01*
X134791685Y-99052306D01*
X134750962Y-99064674D01*
X134720913Y-99092593D01*
X134717796Y-99098148D01*
X134708039Y-99132022D01*
X134702723Y-99180728D01*
X134701721Y-99236155D01*
X134564367Y-99236155D01*
X134564432Y-99215540D01*
X134565336Y-99182563D01*
X134571486Y-99100981D01*
X134584267Y-99039730D01*
X134605529Y-98994449D01*
X134637122Y-98960779D01*
X134667793Y-98941014D01*
X134710646Y-98927120D01*
X134763944Y-98922354D01*
X134818520Y-98926236D01*
X134865208Y-98938282D01*
X134889876Y-98952693D01*
X134915495Y-98975878D01*
X134915495Y-98682773D01*
X135053812Y-98682773D01*
X135053812Y-99537822D01*
G36*
X134261644Y-98923020D02*
G01*
X134280461Y-98928660D01*
X134286527Y-98941053D01*
X134286782Y-98946647D01*
X134287871Y-98962230D01*
X134295368Y-98964676D01*
X134315619Y-98953993D01*
X134327649Y-98946694D01*
X134365600Y-98931063D01*
X134410928Y-98923334D01*
X134458456Y-98922740D01*
X134503005Y-98928513D01*
X134539398Y-98939884D01*
X134562457Y-98956088D01*
X134567004Y-98976355D01*
X134564709Y-98981843D01*
X134547980Y-99004626D01*
X134522037Y-99032647D01*
X134517345Y-99037177D01*
X134492617Y-99058005D01*
X134471282Y-99064735D01*
X134441445Y-99060038D01*
X134429492Y-99056917D01*
X134392295Y-99049421D01*
X134366141Y-99052792D01*
X134344054Y-99064681D01*
X134323822Y-99080635D01*
X134308921Y-99100700D01*
X134298566Y-99128702D01*
X134291971Y-99168467D01*
X134288351Y-99223823D01*
X134286922Y-99298594D01*
X134286782Y-99343740D01*
X134286782Y-99537822D01*
X134161040Y-99537822D01*
X134161040Y-98921683D01*
X134223911Y-98921683D01*
X134261644Y-98923020D01*
G37*
X134261644Y-98923020D02*
X134280461Y-98928660D01*
X134286527Y-98941053D01*
X134286782Y-98946647D01*
X134287871Y-98962230D01*
X134295368Y-98964676D01*
X134315619Y-98953993D01*
X134327649Y-98946694D01*
X134365600Y-98931063D01*
X134410928Y-98923334D01*
X134458456Y-98922740D01*
X134503005Y-98928513D01*
X134539398Y-98939884D01*
X134562457Y-98956088D01*
X134567004Y-98976355D01*
X134564709Y-98981843D01*
X134547980Y-99004626D01*
X134522037Y-99032647D01*
X134517345Y-99037177D01*
X134492617Y-99058005D01*
X134471282Y-99064735D01*
X134441445Y-99060038D01*
X134429492Y-99056917D01*
X134392295Y-99049421D01*
X134366141Y-99052792D01*
X134344054Y-99064681D01*
X134323822Y-99080635D01*
X134308921Y-99100700D01*
X134298566Y-99128702D01*
X134291971Y-99168467D01*
X134288351Y-99223823D01*
X134286922Y-99298594D01*
X134286782Y-99343740D01*
X134286782Y-99537822D01*
X134161040Y-99537822D01*
X134161040Y-98921683D01*
X134223911Y-98921683D01*
X134261644Y-98923020D01*
G36*
X133870790Y-98926555D02*
G01*
X133929945Y-98942339D01*
X133974977Y-98970948D01*
X134006754Y-99008419D01*
X134016634Y-99024411D01*
X134023927Y-99041163D01*
X134029026Y-99062592D01*
X134032321Y-99092616D01*
X134034203Y-99135154D01*
X134035063Y-99194122D01*
X134035293Y-99273440D01*
X134035297Y-99294484D01*
X134035297Y-99537822D01*
X133974941Y-99537822D01*
X133936443Y-99535126D01*
X133907977Y-99528295D01*
X133900845Y-99524083D01*
X133881348Y-99516813D01*
X133861434Y-99524083D01*
X133828647Y-99533160D01*
X133781022Y-99536813D01*
X133728236Y-99535228D01*
X133679964Y-99528589D01*
X133651782Y-99520072D01*
X133597247Y-99485063D01*
X133563165Y-99436479D01*
X133547843Y-99371882D01*
X133547701Y-99370223D01*
X133549045Y-99341566D01*
X133670644Y-99341566D01*
X133681274Y-99374161D01*
X133698590Y-99392505D01*
X133733348Y-99406379D01*
X133779227Y-99411917D01*
X133826012Y-99409191D01*
X133863486Y-99398274D01*
X133873985Y-99391269D01*
X133892332Y-99358904D01*
X133896980Y-99322111D01*
X133896980Y-99273763D01*
X133827418Y-99273763D01*
X133761333Y-99278850D01*
X133711236Y-99293263D01*
X133680071Y-99315729D01*
X133670644Y-99341566D01*
X133549045Y-99341566D01*
X133551013Y-99299647D01*
X133574290Y-99243845D01*
X133618052Y-99201647D01*
X133624101Y-99197808D01*
X133650093Y-99185309D01*
X133682265Y-99177740D01*
X133727240Y-99174061D01*
X133780669Y-99173216D01*
X133896980Y-99173169D01*
X133896980Y-99124411D01*
X133892047Y-99086581D01*
X133879457Y-99061236D01*
X133877983Y-99059887D01*
X133849966Y-99048800D01*
X133807674Y-99044503D01*
X133760936Y-99046615D01*
X133719582Y-99054756D01*
X133695043Y-99066965D01*
X133681747Y-99076746D01*
X133667706Y-99078613D01*
X133648329Y-99070600D01*
X133619024Y-99050739D01*
X133575197Y-99017063D01*
X133571175Y-99013909D01*
X133573236Y-99002236D01*
X133590432Y-98982822D01*
X133616567Y-98961248D01*
X133645448Y-98943096D01*
X133654522Y-98938809D01*
X133687620Y-98930256D01*
X133736120Y-98924155D01*
X133790305Y-98921708D01*
X133792839Y-98921703D01*
X133870790Y-98926555D01*
G37*
X133870790Y-98926555D02*
X133929945Y-98942339D01*
X133974977Y-98970948D01*
X134006754Y-99008419D01*
X134016634Y-99024411D01*
X134023927Y-99041163D01*
X134029026Y-99062592D01*
X134032321Y-99092616D01*
X134034203Y-99135154D01*
X134035063Y-99194122D01*
X134035293Y-99273440D01*
X134035297Y-99294484D01*
X134035297Y-99537822D01*
X133974941Y-99537822D01*
X133936443Y-99535126D01*
X133907977Y-99528295D01*
X133900845Y-99524083D01*
X133881348Y-99516813D01*
X133861434Y-99524083D01*
X133828647Y-99533160D01*
X133781022Y-99536813D01*
X133728236Y-99535228D01*
X133679964Y-99528589D01*
X133651782Y-99520072D01*
X133597247Y-99485063D01*
X133563165Y-99436479D01*
X133547843Y-99371882D01*
X133547701Y-99370223D01*
X133549045Y-99341566D01*
X133670644Y-99341566D01*
X133681274Y-99374161D01*
X133698590Y-99392505D01*
X133733348Y-99406379D01*
X133779227Y-99411917D01*
X133826012Y-99409191D01*
X133863486Y-99398274D01*
X133873985Y-99391269D01*
X133892332Y-99358904D01*
X133896980Y-99322111D01*
X133896980Y-99273763D01*
X133827418Y-99273763D01*
X133761333Y-99278850D01*
X133711236Y-99293263D01*
X133680071Y-99315729D01*
X133670644Y-99341566D01*
X133549045Y-99341566D01*
X133551013Y-99299647D01*
X133574290Y-99243845D01*
X133618052Y-99201647D01*
X133624101Y-99197808D01*
X133650093Y-99185309D01*
X133682265Y-99177740D01*
X133727240Y-99174061D01*
X133780669Y-99173216D01*
X133896980Y-99173169D01*
X133896980Y-99124411D01*
X133892047Y-99086581D01*
X133879457Y-99061236D01*
X133877983Y-99059887D01*
X133849966Y-99048800D01*
X133807674Y-99044503D01*
X133760936Y-99046615D01*
X133719582Y-99054756D01*
X133695043Y-99066965D01*
X133681747Y-99076746D01*
X133667706Y-99078613D01*
X133648329Y-99070600D01*
X133619024Y-99050739D01*
X133575197Y-99017063D01*
X133571175Y-99013909D01*
X133573236Y-99002236D01*
X133590432Y-98982822D01*
X133616567Y-98961248D01*
X133645448Y-98943096D01*
X133654522Y-98938809D01*
X133687620Y-98930256D01*
X133736120Y-98924155D01*
X133790305Y-98921708D01*
X133792839Y-98921703D01*
X133870790Y-98926555D01*
G36*
X133346241Y-97989184D02*
G01*
X133372753Y-98002282D01*
X133405447Y-98025106D01*
X133429275Y-98049996D01*
X133445594Y-98081249D01*
X133455760Y-98123166D01*
X133461128Y-98180044D01*
X133463056Y-98256184D01*
X133463169Y-98288917D01*
X133462839Y-98360656D01*
X133461473Y-98411927D01*
X133458500Y-98447404D01*
X133453351Y-98471763D01*
X133445457Y-98489680D01*
X133437243Y-98501902D01*
X133384813Y-98553905D01*
X133323070Y-98585184D01*
X133256464Y-98594592D01*
X133189442Y-98580980D01*
X133168208Y-98571354D01*
X133117376Y-98544859D01*
X133117376Y-98960052D01*
X133154475Y-98940868D01*
X133203357Y-98926025D01*
X133263439Y-98922222D01*
X133323436Y-98929243D01*
X133368744Y-98945013D01*
X133406325Y-98975047D01*
X133438436Y-99018024D01*
X133440850Y-99022436D01*
X133451033Y-99043221D01*
X133458470Y-99064170D01*
X133463589Y-99089548D01*
X133466819Y-99123618D01*
X133468587Y-99170641D01*
X133469323Y-99234882D01*
X133469456Y-99307176D01*
X133469456Y-99537822D01*
X133331139Y-99537822D01*
X133331139Y-99112533D01*
X133292451Y-99079979D01*
X133252262Y-99053940D01*
X133214203Y-99049205D01*
X133175934Y-99061389D01*
X133155538Y-99073320D01*
X133140358Y-99090313D01*
X133129562Y-99115995D01*
X133122317Y-99153991D01*
X133117792Y-99207926D01*
X133115156Y-99281425D01*
X133114228Y-99330347D01*
X133111089Y-99531535D01*
X133045074Y-99535336D01*
X132979060Y-99539136D01*
X132979060Y-98290650D01*
X133117376Y-98290650D01*
X133120903Y-98360254D01*
X133132785Y-98408569D01*
X133154980Y-98438631D01*
X133189441Y-98453471D01*
X133224258Y-98456436D01*
X133263671Y-98453028D01*
X133289829Y-98439617D01*
X133306186Y-98421896D01*
X133319063Y-98402835D01*
X133326728Y-98381601D01*
X133330139Y-98351849D01*
X133330251Y-98307236D01*
X133329103Y-98269880D01*
X133326468Y-98213604D01*
X133322544Y-98176658D01*
X133315937Y-98153223D01*
X133305251Y-98137480D01*
X133295167Y-98128380D01*
X133253030Y-98108537D01*
X133203160Y-98105332D01*
X133174524Y-98112168D01*
X133146172Y-98136464D01*
X133127391Y-98183728D01*
X133118288Y-98253624D01*
X133117376Y-98290650D01*
X132979060Y-98290650D01*
X132979060Y-97978614D01*
X133048218Y-97978614D01*
X133089740Y-97980256D01*
X133111162Y-97986087D01*
X133117374Y-97997461D01*
X133117376Y-97997798D01*
X133120258Y-98008938D01*
X133132970Y-98007673D01*
X133158243Y-97995433D01*
X133217131Y-97976707D01*
X133283385Y-97974739D01*
X133346241Y-97989184D01*
G37*
X133346241Y-97989184D02*
X133372753Y-98002282D01*
X133405447Y-98025106D01*
X133429275Y-98049996D01*
X133445594Y-98081249D01*
X133455760Y-98123166D01*
X133461128Y-98180044D01*
X133463056Y-98256184D01*
X133463169Y-98288917D01*
X133462839Y-98360656D01*
X133461473Y-98411927D01*
X133458500Y-98447404D01*
X133453351Y-98471763D01*
X133445457Y-98489680D01*
X133437243Y-98501902D01*
X133384813Y-98553905D01*
X133323070Y-98585184D01*
X133256464Y-98594592D01*
X133189442Y-98580980D01*
X133168208Y-98571354D01*
X133117376Y-98544859D01*
X133117376Y-98960052D01*
X133154475Y-98940868D01*
X133203357Y-98926025D01*
X133263439Y-98922222D01*
X133323436Y-98929243D01*
X133368744Y-98945013D01*
X133406325Y-98975047D01*
X133438436Y-99018024D01*
X133440850Y-99022436D01*
X133451033Y-99043221D01*
X133458470Y-99064170D01*
X133463589Y-99089548D01*
X133466819Y-99123618D01*
X133468587Y-99170641D01*
X133469323Y-99234882D01*
X133469456Y-99307176D01*
X133469456Y-99537822D01*
X133331139Y-99537822D01*
X133331139Y-99112533D01*
X133292451Y-99079979D01*
X133252262Y-99053940D01*
X133214203Y-99049205D01*
X133175934Y-99061389D01*
X133155538Y-99073320D01*
X133140358Y-99090313D01*
X133129562Y-99115995D01*
X133122317Y-99153991D01*
X133117792Y-99207926D01*
X133115156Y-99281425D01*
X133114228Y-99330347D01*
X133111089Y-99531535D01*
X133045074Y-99535336D01*
X132979060Y-99539136D01*
X132979060Y-98290650D01*
X133117376Y-98290650D01*
X133120903Y-98360254D01*
X133132785Y-98408569D01*
X133154980Y-98438631D01*
X133189441Y-98453471D01*
X133224258Y-98456436D01*
X133263671Y-98453028D01*
X133289829Y-98439617D01*
X133306186Y-98421896D01*
X133319063Y-98402835D01*
X133326728Y-98381601D01*
X133330139Y-98351849D01*
X133330251Y-98307236D01*
X133329103Y-98269880D01*
X133326468Y-98213604D01*
X133322544Y-98176658D01*
X133315937Y-98153223D01*
X133305251Y-98137480D01*
X133295167Y-98128380D01*
X133253030Y-98108537D01*
X133203160Y-98105332D01*
X133174524Y-98112168D01*
X133146172Y-98136464D01*
X133127391Y-98183728D01*
X133118288Y-98253624D01*
X133117376Y-98290650D01*
X132979060Y-98290650D01*
X132979060Y-97978614D01*
X133048218Y-97978614D01*
X133089740Y-97980256D01*
X133111162Y-97986087D01*
X133117374Y-97997461D01*
X133117376Y-97997798D01*
X133120258Y-98008938D01*
X133132970Y-98007673D01*
X133158243Y-97995433D01*
X133217131Y-97976707D01*
X133283385Y-97974739D01*
X133346241Y-97989184D01*
G36*
X138162762Y-114882847D02*
G01*
X138210452Y-114915684D01*
X138302339Y-114982175D01*
X138424674Y-115072279D01*
X138547928Y-115164127D01*
X138883571Y-115415557D01*
X138883571Y-121064789D01*
X138475357Y-121190644D01*
X138255717Y-121258096D01*
X138014806Y-121331627D01*
X137762262Y-121408343D01*
X137507722Y-121485347D01*
X137260826Y-121559744D01*
X137031213Y-121628637D01*
X136828520Y-121689132D01*
X136662386Y-121738331D01*
X136542449Y-121773340D01*
X136478348Y-121791263D01*
X136470450Y-121793000D01*
X136461337Y-121826131D01*
X136454856Y-121912928D01*
X136452429Y-122032739D01*
X136454818Y-122161104D01*
X136464381Y-122230499D01*
X136484706Y-122254441D01*
X136510228Y-122250299D01*
X136572545Y-122227640D01*
X136627720Y-122215166D01*
X136683951Y-122217132D01*
X136749433Y-122237796D01*
X136832362Y-122281415D01*
X136940934Y-122352246D01*
X137083344Y-122454546D01*
X137267789Y-122592572D01*
X137482038Y-122755063D01*
X138230428Y-123323576D01*
X138230428Y-123592431D01*
X138228710Y-123721652D01*
X138224168Y-123816903D01*
X138217723Y-123860337D01*
X138216557Y-123861286D01*
X138180337Y-123871496D01*
X138080513Y-123900953D01*
X137922947Y-123947898D01*
X137713498Y-124010573D01*
X137458028Y-124087218D01*
X137162397Y-124176075D01*
X136832467Y-124275385D01*
X136474098Y-124383389D01*
X136093151Y-124498328D01*
X135979736Y-124532571D01*
X135592512Y-124649299D01*
X135225475Y-124759540D01*
X134884576Y-124861534D01*
X134575766Y-124953520D01*
X134304995Y-125033736D01*
X134078215Y-125100421D01*
X133901375Y-125151813D01*
X133780427Y-125186151D01*
X133721322Y-125201674D01*
X133716680Y-125202410D01*
X133678151Y-125180892D01*
X133589997Y-125120976D01*
X133460185Y-125028418D01*
X133296683Y-124908976D01*
X133107457Y-124768407D01*
X132904045Y-124615176D01*
X132131518Y-124029388D01*
X132132597Y-124003446D01*
X132243286Y-124003446D01*
X132936929Y-124531080D01*
X133131811Y-124678482D01*
X133307826Y-124810013D01*
X133456699Y-124919622D01*
X133570158Y-125001257D01*
X133639930Y-125048865D01*
X133658186Y-125058714D01*
X133670615Y-125026485D01*
X133671327Y-124944449D01*
X133666460Y-124887132D01*
X133637390Y-124753314D01*
X133625640Y-124735259D01*
X133731000Y-124735259D01*
X133731000Y-124915130D01*
X133739012Y-125035870D01*
X133763891Y-125090545D01*
X133778245Y-125095000D01*
X133821044Y-125084767D01*
X133926723Y-125055356D01*
X134088727Y-125008700D01*
X134300502Y-124946730D01*
X134555495Y-124871381D01*
X134847152Y-124784584D01*
X135168918Y-124688271D01*
X135514240Y-124584376D01*
X135692316Y-124530604D01*
X136057026Y-124420333D01*
X136409507Y-124313744D01*
X136741989Y-124213188D01*
X137046699Y-124121016D01*
X137315865Y-124039579D01*
X137541716Y-123971228D01*
X137716480Y-123918315D01*
X137832385Y-123883192D01*
X137858500Y-123875265D01*
X138157857Y-123784323D01*
X138157857Y-123605090D01*
X138149943Y-123485108D01*
X138125232Y-123430574D01*
X138110253Y-123425857D01*
X138068884Y-123436022D01*
X137965060Y-123465122D01*
X137805786Y-123511070D01*
X137598064Y-123571776D01*
X137348899Y-123645150D01*
X137065295Y-123729105D01*
X136754256Y-123821551D01*
X136422786Y-123920398D01*
X136077889Y-124023558D01*
X135726568Y-124128941D01*
X135375829Y-124234459D01*
X135032674Y-124338023D01*
X134704108Y-124437543D01*
X134397135Y-124530930D01*
X134118758Y-124616095D01*
X134084786Y-124626531D01*
X133731000Y-124735259D01*
X133625640Y-124735259D01*
X133579488Y-124664348D01*
X133554281Y-124642203D01*
X133497913Y-124598453D01*
X133394020Y-124518558D01*
X133252814Y-124410342D01*
X133084504Y-124281627D01*
X132899302Y-124140237D01*
X132852363Y-124104439D01*
X132243286Y-123640020D01*
X132243286Y-124003446D01*
X132132597Y-124003446D01*
X132142045Y-123776522D01*
X132150779Y-123566686D01*
X132329704Y-123566686D01*
X132349305Y-123591685D01*
X132417395Y-123653204D01*
X132524653Y-123743891D01*
X132661760Y-123856394D01*
X132819395Y-123983360D01*
X132988238Y-124117439D01*
X133158968Y-124251277D01*
X133322266Y-124377524D01*
X133468811Y-124488826D01*
X133589284Y-124577832D01*
X133674363Y-124637191D01*
X133714728Y-124659549D01*
X133715173Y-124659571D01*
X133751025Y-124649381D01*
X133850421Y-124619996D01*
X134007433Y-124573194D01*
X134216130Y-124510754D01*
X134470581Y-124434455D01*
X134764858Y-124346074D01*
X135093030Y-124247391D01*
X135449167Y-124140183D01*
X135827340Y-124026228D01*
X135894397Y-124006011D01*
X136275918Y-123890823D01*
X136636476Y-123781670D01*
X136970131Y-123680371D01*
X137270942Y-123588744D01*
X137532966Y-123508606D01*
X137750264Y-123441774D01*
X137916893Y-123390068D01*
X138026913Y-123355304D01*
X138074382Y-123339301D01*
X138075804Y-123338577D01*
X138054750Y-123311851D01*
X137984155Y-123250336D01*
X137873681Y-123161214D01*
X137732989Y-123051668D01*
X137571742Y-122928882D01*
X137399601Y-122800037D01*
X137226227Y-122672317D01*
X137061283Y-122552905D01*
X136914431Y-122448983D01*
X136795331Y-122367733D01*
X136713645Y-122316340D01*
X136680803Y-122301495D01*
X136592086Y-122311347D01*
X136534071Y-122323870D01*
X136502463Y-122334934D01*
X136480287Y-122355942D01*
X136465872Y-122398268D01*
X136457549Y-122473288D01*
X136453646Y-122592376D01*
X136452495Y-122766908D01*
X136452429Y-122879892D01*
X136452429Y-123414035D01*
X135536214Y-123668823D01*
X134620000Y-123923610D01*
X133985000Y-123486250D01*
X133985000Y-123292768D01*
X133978256Y-123178218D01*
X133960190Y-123110624D01*
X133946010Y-123099286D01*
X133900048Y-123109085D01*
X133796914Y-123136099D01*
X133648965Y-123176755D01*
X133468560Y-123227479D01*
X133268055Y-123284698D01*
X133059810Y-123344838D01*
X132856182Y-123404325D01*
X132669528Y-123459586D01*
X132512207Y-123507047D01*
X132396576Y-123543135D01*
X132334993Y-123564276D01*
X132329704Y-123566686D01*
X132150779Y-123566686D01*
X132152571Y-123523656D01*
X132860143Y-123316288D01*
X133090960Y-123248686D01*
X133312368Y-123183921D01*
X133509545Y-123126323D01*
X133667669Y-123080220D01*
X133771916Y-123049943D01*
X133776357Y-123048660D01*
X133985000Y-122988401D01*
X133985000Y-122771009D01*
X133983256Y-122651111D01*
X133973786Y-122588467D01*
X133950234Y-122567771D01*
X133906241Y-122573719D01*
X133903357Y-122574450D01*
X133844315Y-122591171D01*
X133728000Y-122625461D01*
X133566546Y-122673695D01*
X133372089Y-122732245D01*
X133156761Y-122797484D01*
X133132286Y-122804924D01*
X132442857Y-123014565D01*
X132036134Y-122739425D01*
X131629410Y-122464286D01*
X131629390Y-122406213D01*
X131735286Y-122406213D01*
X132049932Y-122625750D01*
X132180083Y-122715822D01*
X132286376Y-122787992D01*
X132355985Y-122833638D01*
X132376504Y-122845286D01*
X132378421Y-122809936D01*
X132380243Y-122707628D01*
X132381945Y-122543977D01*
X132383503Y-122324597D01*
X132384891Y-122055101D01*
X132386085Y-121741104D01*
X132386782Y-121488488D01*
X132715000Y-121488488D01*
X132716947Y-121791678D01*
X132722662Y-122038053D01*
X132731953Y-122223372D01*
X132744630Y-122343395D01*
X132755425Y-122386309D01*
X132829467Y-122479524D01*
X132936138Y-122541403D01*
X132989511Y-122552544D01*
X133029652Y-122542673D01*
X133133775Y-122513336D01*
X133296424Y-122466155D01*
X133512143Y-122402751D01*
X133775473Y-122324746D01*
X134080958Y-122233762D01*
X134423140Y-122131420D01*
X134796563Y-122019342D01*
X135195769Y-121899149D01*
X135615302Y-121772462D01*
X135647906Y-121762602D01*
X136149345Y-121610891D01*
X136586009Y-121478454D01*
X136962576Y-121363518D01*
X137283724Y-121264308D01*
X137554129Y-121179052D01*
X137778470Y-121105975D01*
X137961424Y-121043304D01*
X138107668Y-120989265D01*
X138221880Y-120942085D01*
X138308737Y-120899989D01*
X138372918Y-120861205D01*
X138419098Y-120823959D01*
X138451957Y-120786477D01*
X138476171Y-120746985D01*
X138496418Y-120703709D01*
X138507248Y-120678380D01*
X138531029Y-120588054D01*
X138547584Y-120457178D01*
X138556893Y-120303070D01*
X138558934Y-120143050D01*
X138553688Y-119994437D01*
X138541135Y-119874550D01*
X138521255Y-119800708D01*
X138508287Y-119786357D01*
X138450960Y-119732891D01*
X138397066Y-119631466D01*
X138356577Y-119506400D01*
X138339464Y-119382011D01*
X138339399Y-119374516D01*
X138339512Y-119234857D01*
X138445474Y-119452571D01*
X138551436Y-119670286D01*
X138554066Y-119071571D01*
X138554462Y-118847716D01*
X138552364Y-118682780D01*
X138546238Y-118563121D01*
X138534551Y-118475092D01*
X138515771Y-118405050D01*
X138488363Y-118339350D01*
X138466915Y-118295894D01*
X138413478Y-118168608D01*
X138359761Y-118005168D01*
X138317480Y-117841324D01*
X138257825Y-117563718D01*
X138134925Y-117686618D01*
X138051359Y-117761786D01*
X137984147Y-117792068D01*
X137904084Y-117789066D01*
X137885369Y-117785758D01*
X137800948Y-117774771D01*
X137765748Y-117792304D01*
X137758714Y-117848450D01*
X137784760Y-117928701D01*
X137853700Y-118031088D01*
X137896239Y-118079471D01*
X137983226Y-118188914D01*
X138057225Y-118326789D01*
X138128746Y-118513270D01*
X138140351Y-118548020D01*
X138190879Y-118695479D01*
X138237112Y-118819594D01*
X138272029Y-118901970D01*
X138282946Y-118921616D01*
X138303191Y-118990413D01*
X138311023Y-119106966D01*
X138307847Y-119247786D01*
X138295068Y-119389383D01*
X138274088Y-119508271D01*
X138246311Y-119580960D01*
X138243318Y-119584667D01*
X138183838Y-119632695D01*
X138083028Y-119697386D01*
X137983474Y-119753479D01*
X137771959Y-119850684D01*
X137542336Y-119931371D01*
X137308615Y-119993006D01*
X137084807Y-120033052D01*
X136884922Y-120048977D01*
X136722972Y-120038243D01*
X136616611Y-120000781D01*
X136568870Y-119964125D01*
X136541512Y-119919557D01*
X136529488Y-119847998D01*
X136527748Y-119730368D01*
X136528749Y-119668768D01*
X136533525Y-119527439D01*
X136545827Y-119436966D01*
X136572716Y-119375636D01*
X136621256Y-119321733D01*
X136650048Y-119295867D01*
X136744142Y-119228545D01*
X136876338Y-119152436D01*
X137008697Y-119088285D01*
X137124919Y-119034613D01*
X137207960Y-118990411D01*
X137241978Y-118964223D01*
X137241933Y-118962494D01*
X137225736Y-118921403D01*
X137190800Y-118829582D01*
X137143685Y-118704318D01*
X137126613Y-118658669D01*
X137074521Y-118521416D01*
X137040146Y-118443219D01*
X137016104Y-118415043D01*
X136995012Y-118427851D01*
X136971482Y-118468798D01*
X136897733Y-118551901D01*
X136780675Y-118592728D01*
X136611273Y-118594071D01*
X136577269Y-118590647D01*
X136416143Y-118572486D01*
X136416143Y-119239314D01*
X136416697Y-119476753D01*
X136419049Y-119652452D01*
X136424235Y-119777241D01*
X136433291Y-119861946D01*
X136447254Y-119917396D01*
X136467158Y-119954420D01*
X136486690Y-119976690D01*
X136599288Y-120042468D01*
X136762645Y-120075475D01*
X136964097Y-120078208D01*
X137190977Y-120053161D01*
X137430619Y-120002832D01*
X137670358Y-119929716D01*
X137897527Y-119836309D01*
X138099461Y-119725107D01*
X138223240Y-119634481D01*
X138335254Y-119540227D01*
X138335254Y-119976797D01*
X138334411Y-120162772D01*
X138330131Y-120291577D01*
X138319784Y-120378609D01*
X138300740Y-120439264D01*
X138270369Y-120488939D01*
X138241712Y-120524534D01*
X138112437Y-120637626D01*
X137927020Y-120745423D01*
X137701886Y-120842005D01*
X137453462Y-120921452D01*
X137198174Y-120977845D01*
X136952448Y-121005262D01*
X136903580Y-121006785D01*
X136733906Y-121003665D01*
X136623726Y-120981245D01*
X136560526Y-120929238D01*
X136531789Y-120837354D01*
X136525000Y-120695543D01*
X136526791Y-120576945D01*
X136535152Y-120518377D01*
X136554566Y-120507325D01*
X136585151Y-120527628D01*
X136675566Y-120564545D01*
X136819553Y-120579001D01*
X137002053Y-120572125D01*
X137208007Y-120545048D01*
X137422357Y-120498897D01*
X137577286Y-120453212D01*
X137750112Y-120388513D01*
X137919947Y-120312748D01*
X138073449Y-120233311D01*
X138197274Y-120157593D01*
X138278077Y-120092987D01*
X138303000Y-120051155D01*
X138277455Y-120051487D01*
X138211300Y-120089034D01*
X138140962Y-120139166D01*
X137927082Y-120270320D01*
X137664804Y-120381139D01*
X137377090Y-120464491D01*
X137086902Y-120513243D01*
X136905312Y-120523000D01*
X136734023Y-120515728D01*
X136621795Y-120488898D01*
X136556123Y-120434989D01*
X136524501Y-120346482D01*
X136517780Y-120289948D01*
X136500191Y-120178794D01*
X136473603Y-120136187D01*
X136443612Y-120159583D01*
X136415812Y-120246441D01*
X136400706Y-120343153D01*
X136366686Y-120547535D01*
X136317639Y-120683415D01*
X136251769Y-120753647D01*
X136167278Y-120761083D01*
X136142454Y-120753243D01*
X136081890Y-120708156D01*
X136024877Y-120618018D01*
X135970153Y-120478263D01*
X135916452Y-120284325D01*
X135862510Y-120031637D01*
X135807065Y-119715632D01*
X135748851Y-119331745D01*
X135748720Y-119330828D01*
X135708580Y-119060271D01*
X135675825Y-118861447D01*
X135650351Y-118733907D01*
X135632052Y-118677200D01*
X135620823Y-118690877D01*
X135616635Y-118766167D01*
X135609754Y-118936130D01*
X135594248Y-119125721D01*
X135572488Y-119316896D01*
X135546841Y-119491612D01*
X135519678Y-119631826D01*
X135493368Y-119719497D01*
X135490742Y-119724937D01*
X135409119Y-119830894D01*
X135294511Y-119919492D01*
X135174221Y-119971854D01*
X135123822Y-119978579D01*
X135041789Y-119956811D01*
X134952594Y-119904398D01*
X134858116Y-119830081D01*
X134835676Y-119931612D01*
X134777373Y-120166122D01*
X134718256Y-120339665D01*
X134653777Y-120463749D01*
X134598127Y-120532313D01*
X134496147Y-120606961D01*
X134385641Y-120623935D01*
X134246814Y-120585730D01*
X134229929Y-120578678D01*
X134192793Y-120571296D01*
X134173726Y-120600038D01*
X134166979Y-120679545D01*
X134166429Y-120740420D01*
X134145892Y-120930845D01*
X134088193Y-121084104D01*
X133999198Y-121186703D01*
X133963401Y-121207401D01*
X133876709Y-121240506D01*
X133805784Y-121242185D01*
X133716985Y-121210587D01*
X133676024Y-121191594D01*
X133578126Y-121126051D01*
X133486548Y-121021025D01*
X133395049Y-120867097D01*
X133297388Y-120654846D01*
X133260088Y-120563767D01*
X133138571Y-120259820D01*
X133072391Y-120388818D01*
X133009471Y-120478786D01*
X132938091Y-120537179D01*
X132924106Y-120542843D01*
X132858896Y-120564334D01*
X132808883Y-120590090D01*
X132772052Y-120629230D01*
X132746387Y-120690871D01*
X132729870Y-120784131D01*
X132720486Y-120918129D01*
X132716218Y-121101982D01*
X132715051Y-121344809D01*
X132715000Y-121488488D01*
X132386782Y-121488488D01*
X132387060Y-121388219D01*
X132387792Y-121002061D01*
X132388256Y-120588244D01*
X132388288Y-120504857D01*
X132715000Y-120504857D01*
X132733143Y-120523000D01*
X132751286Y-120504857D01*
X132733143Y-120486714D01*
X132715000Y-120504857D01*
X132388288Y-120504857D01*
X132388406Y-120207557D01*
X132715922Y-120207557D01*
X132732040Y-120293843D01*
X132757094Y-120332866D01*
X132805748Y-120359842D01*
X132851286Y-120330470D01*
X132901975Y-120238203D01*
X132915121Y-120207659D01*
X132949694Y-120121699D01*
X132960649Y-120090725D01*
X133200172Y-120090725D01*
X133212559Y-120153697D01*
X133233922Y-120206874D01*
X133273762Y-120296425D01*
X133330037Y-120427651D01*
X133391821Y-120575011D01*
X133403556Y-120603392D01*
X133500830Y-120818151D01*
X133590727Y-120969368D01*
X133678631Y-121064942D01*
X133745083Y-121104295D01*
X133842260Y-121133559D01*
X133909805Y-121118440D01*
X133970305Y-121063502D01*
X134017903Y-120968752D01*
X134047036Y-120821862D01*
X134057310Y-120640978D01*
X134048332Y-120444245D01*
X134019710Y-120249808D01*
X133990454Y-120133477D01*
X133952964Y-119997841D01*
X133917821Y-119856471D01*
X134137153Y-119856471D01*
X134146978Y-120037304D01*
X134170041Y-120207578D01*
X134204571Y-120341120D01*
X134218922Y-120374115D01*
X134299244Y-120481862D01*
X134390065Y-120519791D01*
X134486885Y-120486761D01*
X134527286Y-120452428D01*
X134590180Y-120356062D01*
X134648852Y-120205404D01*
X134697679Y-120018719D01*
X134731036Y-119814274D01*
X134734849Y-119778190D01*
X134743730Y-119651143D01*
X134735538Y-119568289D01*
X134711584Y-119518100D01*
X134896076Y-119518100D01*
X134899542Y-119606645D01*
X134921070Y-119670543D01*
X134965506Y-119733514D01*
X134981792Y-119753117D01*
X135066018Y-119838668D01*
X135136939Y-119863994D01*
X135216566Y-119832271D01*
X135268479Y-119794472D01*
X135334264Y-119736335D01*
X135382089Y-119672598D01*
X135416189Y-119589506D01*
X135440795Y-119473307D01*
X135460142Y-119310247D01*
X135475914Y-119120563D01*
X135497276Y-118896965D01*
X135523532Y-118717132D01*
X135552803Y-118592644D01*
X135567604Y-118555497D01*
X135574151Y-118540761D01*
X135763000Y-118540761D01*
X135768637Y-118618750D01*
X135784156Y-118754200D01*
X135807469Y-118932991D01*
X135836489Y-119141008D01*
X135869127Y-119364133D01*
X135903296Y-119588248D01*
X135936908Y-119799236D01*
X135967876Y-119982979D01*
X135994110Y-120125359D01*
X136005171Y-120178286D01*
X136056179Y-120374319D01*
X136108364Y-120518092D01*
X136158860Y-120604868D01*
X136204800Y-120629907D01*
X136243320Y-120588470D01*
X136247346Y-120578706D01*
X136260486Y-120517977D01*
X136276035Y-120407693D01*
X136290822Y-120270654D01*
X136292051Y-120257293D01*
X136301757Y-120095853D01*
X136293722Y-119972429D01*
X136264285Y-119853843D01*
X136239843Y-119784520D01*
X136200390Y-119666585D01*
X136151071Y-119500855D01*
X136098458Y-119310222D01*
X136053474Y-119135290D01*
X135984418Y-118870046D01*
X135924851Y-118673063D01*
X135873470Y-118540836D01*
X135828967Y-118469862D01*
X135799873Y-118454714D01*
X135771624Y-118485614D01*
X135763000Y-118540761D01*
X135574151Y-118540761D01*
X135594013Y-118496060D01*
X135605631Y-118435523D01*
X135604143Y-118400150D01*
X135950824Y-118400150D01*
X135957110Y-118436710D01*
X135988360Y-118509655D01*
X135990946Y-118514842D01*
X136018822Y-118587658D01*
X136058705Y-118714559D01*
X136105724Y-118879048D01*
X136155011Y-119064629D01*
X136165979Y-119107857D01*
X136289143Y-119597714D01*
X136299157Y-119021997D01*
X136301351Y-118775189D01*
X136297895Y-118594451D01*
X136288451Y-118473475D01*
X136272676Y-118405955D01*
X136265198Y-118393295D01*
X136202956Y-118358441D01*
X136096887Y-118363549D01*
X136091898Y-118364463D01*
X136003838Y-118383233D01*
X135953699Y-118398318D01*
X135950824Y-118400150D01*
X135604143Y-118400150D01*
X135602331Y-118357086D01*
X136457277Y-118357086D01*
X136478414Y-118440052D01*
X136540065Y-118478253D01*
X136652747Y-118484259D01*
X136688286Y-118482324D01*
X136786703Y-118467645D01*
X136847082Y-118426298D01*
X136899611Y-118337374D01*
X136900679Y-118335189D01*
X136967930Y-118197522D01*
X136926186Y-118114043D01*
X137080480Y-118114043D01*
X137091050Y-118207710D01*
X137119889Y-118310653D01*
X137153357Y-118405877D01*
X137240211Y-118640917D01*
X137306267Y-118808710D01*
X137352382Y-118911275D01*
X137379412Y-118950631D01*
X137384312Y-118950069D01*
X137395505Y-118909807D01*
X137413438Y-118813334D01*
X137419153Y-118777646D01*
X137549771Y-118777646D01*
X137554382Y-118860652D01*
X137568715Y-118890143D01*
X137612128Y-118861033D01*
X137627832Y-118832746D01*
X137637799Y-118770938D01*
X137644560Y-118658247D01*
X137646955Y-118516334D01*
X137646808Y-118491000D01*
X137758714Y-118491000D01*
X137758714Y-118853857D01*
X137940143Y-118853857D01*
X138043673Y-118850980D01*
X138109359Y-118843626D01*
X138121571Y-118837877D01*
X138110115Y-118798552D01*
X138079765Y-118708783D01*
X138036546Y-118586281D01*
X138026075Y-118557160D01*
X137945032Y-118350840D01*
X137874803Y-118210475D01*
X137816537Y-118138161D01*
X137790827Y-118128143D01*
X137777347Y-118161862D01*
X137766654Y-118252781D01*
X137760106Y-118385541D01*
X137758714Y-118491000D01*
X137646808Y-118491000D01*
X137646738Y-118478961D01*
X137643606Y-118338873D01*
X137637184Y-118265392D01*
X137626396Y-118252589D01*
X137612101Y-118287928D01*
X137587129Y-118396169D01*
X137567508Y-118526483D01*
X137554601Y-118659949D01*
X137549771Y-118777646D01*
X137419153Y-118777646D01*
X137435369Y-118676387D01*
X137452524Y-118558492D01*
X137491443Y-118329715D01*
X137534823Y-118170150D01*
X137577469Y-118084255D01*
X137629368Y-117976398D01*
X137649246Y-117827452D01*
X137649857Y-117787481D01*
X137644080Y-117662313D01*
X137618490Y-117576086D01*
X137560700Y-117495549D01*
X137527644Y-117459441D01*
X137483559Y-117420959D01*
X137759203Y-117420959D01*
X137764676Y-117509375D01*
X137778623Y-117566873D01*
X137802213Y-117607281D01*
X137813247Y-117620258D01*
X137882546Y-117680739D01*
X137948875Y-117684673D01*
X138014724Y-117655353D01*
X138092286Y-117583058D01*
X138157454Y-117471457D01*
X138180462Y-117393577D01*
X138347332Y-117393577D01*
X138359081Y-117495856D01*
X138371631Y-117563011D01*
X138404016Y-117713119D01*
X138440916Y-117866911D01*
X138477960Y-118008189D01*
X138510782Y-118120755D01*
X138535011Y-118188413D01*
X138543639Y-118200714D01*
X138547435Y-118166126D01*
X138550764Y-118069153D01*
X138553467Y-117919978D01*
X138555387Y-117728787D01*
X138556364Y-117505765D01*
X138556444Y-117375214D01*
X138554810Y-117083000D01*
X138550381Y-116858639D01*
X138543212Y-116703303D01*
X138533356Y-116618164D01*
X138521024Y-116604143D01*
X138497991Y-116661825D01*
X138464949Y-116771725D01*
X138427288Y-116915139D01*
X138406778Y-117000582D01*
X138369691Y-117169773D01*
X138350372Y-117292827D01*
X138347332Y-117393577D01*
X138180462Y-117393577D01*
X138192274Y-117353599D01*
X138194143Y-117325059D01*
X138181561Y-117217165D01*
X138148505Y-117072208D01*
X138102007Y-116912545D01*
X138049100Y-116760532D01*
X137996818Y-116638525D01*
X137958274Y-116575286D01*
X137877541Y-116481428D01*
X137833952Y-116562874D01*
X137815425Y-116629720D01*
X137797051Y-116751842D01*
X137780932Y-116911971D01*
X137769172Y-117092837D01*
X137769019Y-117096061D01*
X137761040Y-117287796D01*
X137759203Y-117420959D01*
X137483559Y-117420959D01*
X137418268Y-117363968D01*
X137326999Y-117331391D01*
X137251789Y-117363586D01*
X137190590Y-117462428D01*
X137141353Y-117629790D01*
X137104770Y-117846575D01*
X137085835Y-118002662D01*
X137080480Y-118114043D01*
X136926186Y-118114043D01*
X136864394Y-117990475D01*
X136778475Y-117851630D01*
X136697261Y-117783925D01*
X136623209Y-117785963D01*
X136558777Y-117856349D01*
X136506421Y-117993686D01*
X136468600Y-118196578D01*
X136466136Y-118216783D01*
X136457277Y-118357086D01*
X135602331Y-118357086D01*
X135602237Y-118354857D01*
X135586791Y-118255489D01*
X135701268Y-118255489D01*
X135727772Y-118313922D01*
X135765465Y-118345672D01*
X135768159Y-118345857D01*
X135779563Y-118319564D01*
X135761337Y-118270178D01*
X135724729Y-118218143D01*
X135704777Y-118210556D01*
X135701268Y-118255489D01*
X135586791Y-118255489D01*
X135583611Y-118235034D01*
X135562618Y-118123968D01*
X135529482Y-117976168D01*
X135493947Y-117854151D01*
X135461855Y-117776794D01*
X135450631Y-117762016D01*
X135373821Y-117737937D01*
X135267251Y-117747236D01*
X135162122Y-117783914D01*
X135099523Y-117829495D01*
X135067895Y-117870686D01*
X135043226Y-117922335D01*
X135023567Y-117995591D01*
X135006970Y-118101606D01*
X134991486Y-118251530D01*
X134975168Y-118456513D01*
X134964914Y-118599857D01*
X134949590Y-118814279D01*
X134933788Y-119027624D01*
X134919201Y-119217490D01*
X134907525Y-119361475D01*
X134905828Y-119381188D01*
X134896076Y-119518100D01*
X134711584Y-119518100D01*
X134703922Y-119502049D01*
X134657549Y-119442547D01*
X134543987Y-119351238D01*
X134423430Y-119326351D01*
X134308950Y-119364566D01*
X134213616Y-119462563D01*
X134164313Y-119567839D01*
X134142341Y-119691258D01*
X134137153Y-119856471D01*
X133917821Y-119856471D01*
X133907739Y-119815916D01*
X133860782Y-119612676D01*
X133822462Y-119434429D01*
X133764606Y-119170835D01*
X133710375Y-118957317D01*
X133661470Y-118799415D01*
X133619592Y-118702667D01*
X133588480Y-118672429D01*
X133524415Y-118708676D01*
X133460111Y-118817269D01*
X133395643Y-118997983D01*
X133331086Y-119250590D01*
X133266514Y-119574867D01*
X133241959Y-119717017D01*
X133214588Y-119889718D01*
X133200753Y-120008510D01*
X133200172Y-120090725D01*
X132960649Y-120090725D01*
X132968083Y-120069709D01*
X132969000Y-120064997D01*
X132938838Y-120052698D01*
X132869905Y-120053573D01*
X132794528Y-120066255D01*
X132772396Y-120073311D01*
X132730021Y-120123076D01*
X132715922Y-120207557D01*
X132388406Y-120207557D01*
X132388428Y-120152381D01*
X132388428Y-118918631D01*
X132715000Y-118918631D01*
X132715000Y-119965450D01*
X132866899Y-119944868D01*
X132957210Y-119928593D01*
X133008480Y-119897886D01*
X133040506Y-119832593D01*
X133065332Y-119742857D01*
X133085887Y-119644216D01*
X133112187Y-119490620D01*
X133141551Y-119299196D01*
X133171296Y-119087071D01*
X133187489Y-118962714D01*
X133227386Y-118661708D01*
X133332393Y-118661708D01*
X133334835Y-118712078D01*
X133353488Y-118715377D01*
X133403869Y-118669643D01*
X133423344Y-118650214D01*
X133515593Y-118579348D01*
X133597724Y-118564845D01*
X133672015Y-118609657D01*
X133740742Y-118716733D01*
X133806179Y-118889021D01*
X133870603Y-119129472D01*
X133901945Y-119270482D01*
X133938881Y-119437375D01*
X133971455Y-119569960D01*
X133996617Y-119656881D01*
X134011318Y-119686782D01*
X134012976Y-119684117D01*
X134032645Y-119620663D01*
X134066628Y-119520710D01*
X134081359Y-119479013D01*
X134163174Y-119343301D01*
X134284803Y-119252983D01*
X134428309Y-119213678D01*
X134575757Y-119231005D01*
X134685052Y-119289854D01*
X134749617Y-119336367D01*
X134780058Y-119337554D01*
X134796427Y-119298925D01*
X134805613Y-119238807D01*
X134816878Y-119123083D01*
X134828769Y-118968633D01*
X134839433Y-118799428D01*
X134864047Y-118364000D01*
X134760166Y-118459352D01*
X134628512Y-118563652D01*
X134503651Y-118618313D01*
X134355025Y-118635919D01*
X134330823Y-118636143D01*
X134195740Y-118623296D01*
X134085684Y-118577734D01*
X133986512Y-118488922D01*
X133884083Y-118346326D01*
X133836901Y-118268224D01*
X133754702Y-118135929D01*
X133691972Y-118058295D01*
X133638163Y-118023910D01*
X133606842Y-118019286D01*
X133523296Y-118038404D01*
X133482594Y-118066973D01*
X133453629Y-118127690D01*
X133418517Y-118236608D01*
X133383159Y-118370362D01*
X133353455Y-118505591D01*
X133335307Y-118618929D01*
X133332393Y-118661708D01*
X133227386Y-118661708D01*
X133228354Y-118654406D01*
X133266203Y-118411217D01*
X133303991Y-118225943D01*
X133344672Y-118091377D01*
X133391202Y-118000313D01*
X133446534Y-117945547D01*
X133513625Y-117919872D01*
X133595429Y-117916083D01*
X133616097Y-117917505D01*
X133698188Y-117932458D01*
X133760955Y-117971681D01*
X133825324Y-118051451D01*
X133863620Y-118110000D01*
X133987271Y-118296479D01*
X134089089Y-118425221D01*
X134179406Y-118503543D01*
X134268553Y-118538760D01*
X134366863Y-118538191D01*
X134444131Y-118521120D01*
X134613953Y-118437741D01*
X134748299Y-118292666D01*
X134844799Y-118088777D01*
X134869329Y-118003511D01*
X134912457Y-117829662D01*
X134953878Y-117662687D01*
X135074371Y-117662687D01*
X135088002Y-117687811D01*
X135131318Y-117675132D01*
X135217069Y-117648699D01*
X135318500Y-117628786D01*
X135398660Y-117612751D01*
X135436068Y-117595884D01*
X135436428Y-117594442D01*
X135417620Y-117531764D01*
X135372758Y-117445303D01*
X135319189Y-117364184D01*
X135274258Y-117317532D01*
X135270412Y-117315687D01*
X135212904Y-117328439D01*
X135154535Y-117397739D01*
X135105731Y-117508447D01*
X135086488Y-117582773D01*
X135074371Y-117662687D01*
X134953878Y-117662687D01*
X134959933Y-117638281D01*
X134987480Y-117527236D01*
X135049520Y-117346590D01*
X135128557Y-117235037D01*
X135223929Y-117193289D01*
X135288566Y-117201994D01*
X135371957Y-117257743D01*
X135454535Y-117359599D01*
X135517615Y-117483332D01*
X135527082Y-117511286D01*
X135563255Y-117608577D01*
X135619978Y-117737904D01*
X135688306Y-117881380D01*
X135759293Y-118021118D01*
X135823991Y-118139233D01*
X135873457Y-118217835D01*
X135890072Y-118237060D01*
X135974001Y-118264522D01*
X136070522Y-118257707D01*
X136176426Y-118251506D01*
X136262024Y-118268654D01*
X136266500Y-118270877D01*
X136309172Y-118285729D01*
X136334751Y-118262508D01*
X136353169Y-118187103D01*
X136361176Y-118136355D01*
X136413128Y-117911888D01*
X136492424Y-117753526D01*
X136573964Y-117674815D01*
X136662099Y-117639577D01*
X136747652Y-117659350D01*
X136842284Y-117738940D01*
X136902791Y-117810418D01*
X136961106Y-117880627D01*
X136988284Y-117897055D01*
X136996035Y-117864496D01*
X136996312Y-117848715D01*
X137011013Y-117700363D01*
X137048359Y-117543511D01*
X137100259Y-117404571D01*
X137158620Y-117309957D01*
X137162629Y-117305787D01*
X137275637Y-117234058D01*
X137397850Y-117233891D01*
X137526614Y-117305254D01*
X137532848Y-117310423D01*
X137639121Y-117399846D01*
X137660043Y-117003266D01*
X137673058Y-116830006D01*
X137691738Y-116674351D01*
X137713285Y-116556415D01*
X137729250Y-116505629D01*
X137797980Y-116416793D01*
X137881603Y-116392104D01*
X137971790Y-116426952D01*
X138060213Y-116516729D01*
X138138542Y-116656826D01*
X138173629Y-116751521D01*
X138211392Y-116870096D01*
X138242183Y-116965399D01*
X138254754Y-117003286D01*
X138271729Y-116998775D01*
X138299228Y-116936529D01*
X138331688Y-116829578D01*
X138335952Y-116813185D01*
X138379519Y-116675174D01*
X138431820Y-116555250D01*
X138477728Y-116484275D01*
X138545549Y-116368706D01*
X138562013Y-116237412D01*
X138533663Y-116107972D01*
X138467039Y-115997968D01*
X138368682Y-115924979D01*
X138262288Y-115905273D01*
X138208229Y-115916487D01*
X138090524Y-115947284D01*
X137914915Y-115995989D01*
X137687145Y-116060929D01*
X137412954Y-116140427D01*
X137098085Y-116232809D01*
X136748281Y-116336400D01*
X136369282Y-116449525D01*
X135966832Y-116570509D01*
X135567121Y-116691467D01*
X135040794Y-116851688D01*
X134580921Y-116992654D01*
X134184280Y-117115413D01*
X133847650Y-117221008D01*
X133567809Y-117310486D01*
X133341537Y-117384890D01*
X133165612Y-117445267D01*
X133036812Y-117492662D01*
X132951916Y-117528119D01*
X132907704Y-117552685D01*
X132904516Y-117555371D01*
X132852452Y-117606800D01*
X132810887Y-117660419D01*
X132778642Y-117724692D01*
X132754543Y-117808081D01*
X132737412Y-117919051D01*
X132726073Y-118066065D01*
X132719349Y-118257586D01*
X132716064Y-118502078D01*
X132715042Y-118808004D01*
X132715000Y-118918631D01*
X132388428Y-118918631D01*
X132388428Y-117411148D01*
X132179786Y-117255091D01*
X132054763Y-117161541D01*
X131934738Y-117071668D01*
X131853214Y-117010568D01*
X131735286Y-116922101D01*
X131735286Y-122406213D01*
X131629390Y-122406213D01*
X131628408Y-119615857D01*
X131627430Y-116832433D01*
X131778974Y-116832433D01*
X132110915Y-117079884D01*
X132245828Y-117177365D01*
X132361062Y-117254872D01*
X132443589Y-117304015D01*
X132479143Y-117317054D01*
X132518503Y-117305277D01*
X132622347Y-117274039D01*
X132785683Y-117224846D01*
X133003516Y-117159204D01*
X133270854Y-117078618D01*
X133582704Y-116984594D01*
X133934074Y-116878636D01*
X134319969Y-116762250D01*
X134735397Y-116636942D01*
X135175365Y-116504218D01*
X135624341Y-116368761D01*
X138733253Y-115430749D01*
X138423469Y-115197083D01*
X138113684Y-114963417D01*
X137908985Y-115021411D01*
X137843366Y-115040434D01*
X137713684Y-115078428D01*
X137525463Y-115133764D01*
X137284227Y-115204812D01*
X136995498Y-115289943D01*
X136664801Y-115387525D01*
X136297658Y-115495931D01*
X135899594Y-115613530D01*
X135476131Y-115738693D01*
X135032794Y-115869789D01*
X134741630Y-115955919D01*
X131778974Y-116832433D01*
X131627430Y-116832433D01*
X131627407Y-116767428D01*
X134870323Y-115810212D01*
X135443992Y-115641357D01*
X135969423Y-115487671D01*
X136444311Y-115349803D01*
X136866352Y-115228404D01*
X137233239Y-115124121D01*
X137542669Y-115037604D01*
X137792337Y-114969502D01*
X137979938Y-114920465D01*
X138103168Y-114891141D01*
X138159721Y-114882180D01*
X138162762Y-114882847D01*
G37*
X138162762Y-114882847D02*
X138210452Y-114915684D01*
X138302339Y-114982175D01*
X138424674Y-115072279D01*
X138547928Y-115164127D01*
X138883571Y-115415557D01*
X138883571Y-121064789D01*
X138475357Y-121190644D01*
X138255717Y-121258096D01*
X138014806Y-121331627D01*
X137762262Y-121408343D01*
X137507722Y-121485347D01*
X137260826Y-121559744D01*
X137031213Y-121628637D01*
X136828520Y-121689132D01*
X136662386Y-121738331D01*
X136542449Y-121773340D01*
X136478348Y-121791263D01*
X136470450Y-121793000D01*
X136461337Y-121826131D01*
X136454856Y-121912928D01*
X136452429Y-122032739D01*
X136454818Y-122161104D01*
X136464381Y-122230499D01*
X136484706Y-122254441D01*
X136510228Y-122250299D01*
X136572545Y-122227640D01*
X136627720Y-122215166D01*
X136683951Y-122217132D01*
X136749433Y-122237796D01*
X136832362Y-122281415D01*
X136940934Y-122352246D01*
X137083344Y-122454546D01*
X137267789Y-122592572D01*
X137482038Y-122755063D01*
X138230428Y-123323576D01*
X138230428Y-123592431D01*
X138228710Y-123721652D01*
X138224168Y-123816903D01*
X138217723Y-123860337D01*
X138216557Y-123861286D01*
X138180337Y-123871496D01*
X138080513Y-123900953D01*
X137922947Y-123947898D01*
X137713498Y-124010573D01*
X137458028Y-124087218D01*
X137162397Y-124176075D01*
X136832467Y-124275385D01*
X136474098Y-124383389D01*
X136093151Y-124498328D01*
X135979736Y-124532571D01*
X135592512Y-124649299D01*
X135225475Y-124759540D01*
X134884576Y-124861534D01*
X134575766Y-124953520D01*
X134304995Y-125033736D01*
X134078215Y-125100421D01*
X133901375Y-125151813D01*
X133780427Y-125186151D01*
X133721322Y-125201674D01*
X133716680Y-125202410D01*
X133678151Y-125180892D01*
X133589997Y-125120976D01*
X133460185Y-125028418D01*
X133296683Y-124908976D01*
X133107457Y-124768407D01*
X132904045Y-124615176D01*
X132131518Y-124029388D01*
X132132597Y-124003446D01*
X132243286Y-124003446D01*
X132936929Y-124531080D01*
X133131811Y-124678482D01*
X133307826Y-124810013D01*
X133456699Y-124919622D01*
X133570158Y-125001257D01*
X133639930Y-125048865D01*
X133658186Y-125058714D01*
X133670615Y-125026485D01*
X133671327Y-124944449D01*
X133666460Y-124887132D01*
X133637390Y-124753314D01*
X133625640Y-124735259D01*
X133731000Y-124735259D01*
X133731000Y-124915130D01*
X133739012Y-125035870D01*
X133763891Y-125090545D01*
X133778245Y-125095000D01*
X133821044Y-125084767D01*
X133926723Y-125055356D01*
X134088727Y-125008700D01*
X134300502Y-124946730D01*
X134555495Y-124871381D01*
X134847152Y-124784584D01*
X135168918Y-124688271D01*
X135514240Y-124584376D01*
X135692316Y-124530604D01*
X136057026Y-124420333D01*
X136409507Y-124313744D01*
X136741989Y-124213188D01*
X137046699Y-124121016D01*
X137315865Y-124039579D01*
X137541716Y-123971228D01*
X137716480Y-123918315D01*
X137832385Y-123883192D01*
X137858500Y-123875265D01*
X138157857Y-123784323D01*
X138157857Y-123605090D01*
X138149943Y-123485108D01*
X138125232Y-123430574D01*
X138110253Y-123425857D01*
X138068884Y-123436022D01*
X137965060Y-123465122D01*
X137805786Y-123511070D01*
X137598064Y-123571776D01*
X137348899Y-123645150D01*
X137065295Y-123729105D01*
X136754256Y-123821551D01*
X136422786Y-123920398D01*
X136077889Y-124023558D01*
X135726568Y-124128941D01*
X135375829Y-124234459D01*
X135032674Y-124338023D01*
X134704108Y-124437543D01*
X134397135Y-124530930D01*
X134118758Y-124616095D01*
X134084786Y-124626531D01*
X133731000Y-124735259D01*
X133625640Y-124735259D01*
X133579488Y-124664348D01*
X133554281Y-124642203D01*
X133497913Y-124598453D01*
X133394020Y-124518558D01*
X133252814Y-124410342D01*
X133084504Y-124281627D01*
X132899302Y-124140237D01*
X132852363Y-124104439D01*
X132243286Y-123640020D01*
X132243286Y-124003446D01*
X132132597Y-124003446D01*
X132142045Y-123776522D01*
X132150779Y-123566686D01*
X132329704Y-123566686D01*
X132349305Y-123591685D01*
X132417395Y-123653204D01*
X132524653Y-123743891D01*
X132661760Y-123856394D01*
X132819395Y-123983360D01*
X132988238Y-124117439D01*
X133158968Y-124251277D01*
X133322266Y-124377524D01*
X133468811Y-124488826D01*
X133589284Y-124577832D01*
X133674363Y-124637191D01*
X133714728Y-124659549D01*
X133715173Y-124659571D01*
X133751025Y-124649381D01*
X133850421Y-124619996D01*
X134007433Y-124573194D01*
X134216130Y-124510754D01*
X134470581Y-124434455D01*
X134764858Y-124346074D01*
X135093030Y-124247391D01*
X135449167Y-124140183D01*
X135827340Y-124026228D01*
X135894397Y-124006011D01*
X136275918Y-123890823D01*
X136636476Y-123781670D01*
X136970131Y-123680371D01*
X137270942Y-123588744D01*
X137532966Y-123508606D01*
X137750264Y-123441774D01*
X137916893Y-123390068D01*
X138026913Y-123355304D01*
X138074382Y-123339301D01*
X138075804Y-123338577D01*
X138054750Y-123311851D01*
X137984155Y-123250336D01*
X137873681Y-123161214D01*
X137732989Y-123051668D01*
X137571742Y-122928882D01*
X137399601Y-122800037D01*
X137226227Y-122672317D01*
X137061283Y-122552905D01*
X136914431Y-122448983D01*
X136795331Y-122367733D01*
X136713645Y-122316340D01*
X136680803Y-122301495D01*
X136592086Y-122311347D01*
X136534071Y-122323870D01*
X136502463Y-122334934D01*
X136480287Y-122355942D01*
X136465872Y-122398268D01*
X136457549Y-122473288D01*
X136453646Y-122592376D01*
X136452495Y-122766908D01*
X136452429Y-122879892D01*
X136452429Y-123414035D01*
X135536214Y-123668823D01*
X134620000Y-123923610D01*
X133985000Y-123486250D01*
X133985000Y-123292768D01*
X133978256Y-123178218D01*
X133960190Y-123110624D01*
X133946010Y-123099286D01*
X133900048Y-123109085D01*
X133796914Y-123136099D01*
X133648965Y-123176755D01*
X133468560Y-123227479D01*
X133268055Y-123284698D01*
X133059810Y-123344838D01*
X132856182Y-123404325D01*
X132669528Y-123459586D01*
X132512207Y-123507047D01*
X132396576Y-123543135D01*
X132334993Y-123564276D01*
X132329704Y-123566686D01*
X132150779Y-123566686D01*
X132152571Y-123523656D01*
X132860143Y-123316288D01*
X133090960Y-123248686D01*
X133312368Y-123183921D01*
X133509545Y-123126323D01*
X133667669Y-123080220D01*
X133771916Y-123049943D01*
X133776357Y-123048660D01*
X133985000Y-122988401D01*
X133985000Y-122771009D01*
X133983256Y-122651111D01*
X133973786Y-122588467D01*
X133950234Y-122567771D01*
X133906241Y-122573719D01*
X133903357Y-122574450D01*
X133844315Y-122591171D01*
X133728000Y-122625461D01*
X133566546Y-122673695D01*
X133372089Y-122732245D01*
X133156761Y-122797484D01*
X133132286Y-122804924D01*
X132442857Y-123014565D01*
X132036134Y-122739425D01*
X131629410Y-122464286D01*
X131629390Y-122406213D01*
X131735286Y-122406213D01*
X132049932Y-122625750D01*
X132180083Y-122715822D01*
X132286376Y-122787992D01*
X132355985Y-122833638D01*
X132376504Y-122845286D01*
X132378421Y-122809936D01*
X132380243Y-122707628D01*
X132381945Y-122543977D01*
X132383503Y-122324597D01*
X132384891Y-122055101D01*
X132386085Y-121741104D01*
X132386782Y-121488488D01*
X132715000Y-121488488D01*
X132716947Y-121791678D01*
X132722662Y-122038053D01*
X132731953Y-122223372D01*
X132744630Y-122343395D01*
X132755425Y-122386309D01*
X132829467Y-122479524D01*
X132936138Y-122541403D01*
X132989511Y-122552544D01*
X133029652Y-122542673D01*
X133133775Y-122513336D01*
X133296424Y-122466155D01*
X133512143Y-122402751D01*
X133775473Y-122324746D01*
X134080958Y-122233762D01*
X134423140Y-122131420D01*
X134796563Y-122019342D01*
X135195769Y-121899149D01*
X135615302Y-121772462D01*
X135647906Y-121762602D01*
X136149345Y-121610891D01*
X136586009Y-121478454D01*
X136962576Y-121363518D01*
X137283724Y-121264308D01*
X137554129Y-121179052D01*
X137778470Y-121105975D01*
X137961424Y-121043304D01*
X138107668Y-120989265D01*
X138221880Y-120942085D01*
X138308737Y-120899989D01*
X138372918Y-120861205D01*
X138419098Y-120823959D01*
X138451957Y-120786477D01*
X138476171Y-120746985D01*
X138496418Y-120703709D01*
X138507248Y-120678380D01*
X138531029Y-120588054D01*
X138547584Y-120457178D01*
X138556893Y-120303070D01*
X138558934Y-120143050D01*
X138553688Y-119994437D01*
X138541135Y-119874550D01*
X138521255Y-119800708D01*
X138508287Y-119786357D01*
X138450960Y-119732891D01*
X138397066Y-119631466D01*
X138356577Y-119506400D01*
X138339464Y-119382011D01*
X138339399Y-119374516D01*
X138339512Y-119234857D01*
X138445474Y-119452571D01*
X138551436Y-119670286D01*
X138554066Y-119071571D01*
X138554462Y-118847716D01*
X138552364Y-118682780D01*
X138546238Y-118563121D01*
X138534551Y-118475092D01*
X138515771Y-118405050D01*
X138488363Y-118339350D01*
X138466915Y-118295894D01*
X138413478Y-118168608D01*
X138359761Y-118005168D01*
X138317480Y-117841324D01*
X138257825Y-117563718D01*
X138134925Y-117686618D01*
X138051359Y-117761786D01*
X137984147Y-117792068D01*
X137904084Y-117789066D01*
X137885369Y-117785758D01*
X137800948Y-117774771D01*
X137765748Y-117792304D01*
X137758714Y-117848450D01*
X137784760Y-117928701D01*
X137853700Y-118031088D01*
X137896239Y-118079471D01*
X137983226Y-118188914D01*
X138057225Y-118326789D01*
X138128746Y-118513270D01*
X138140351Y-118548020D01*
X138190879Y-118695479D01*
X138237112Y-118819594D01*
X138272029Y-118901970D01*
X138282946Y-118921616D01*
X138303191Y-118990413D01*
X138311023Y-119106966D01*
X138307847Y-119247786D01*
X138295068Y-119389383D01*
X138274088Y-119508271D01*
X138246311Y-119580960D01*
X138243318Y-119584667D01*
X138183838Y-119632695D01*
X138083028Y-119697386D01*
X137983474Y-119753479D01*
X137771959Y-119850684D01*
X137542336Y-119931371D01*
X137308615Y-119993006D01*
X137084807Y-120033052D01*
X136884922Y-120048977D01*
X136722972Y-120038243D01*
X136616611Y-120000781D01*
X136568870Y-119964125D01*
X136541512Y-119919557D01*
X136529488Y-119847998D01*
X136527748Y-119730368D01*
X136528749Y-119668768D01*
X136533525Y-119527439D01*
X136545827Y-119436966D01*
X136572716Y-119375636D01*
X136621256Y-119321733D01*
X136650048Y-119295867D01*
X136744142Y-119228545D01*
X136876338Y-119152436D01*
X137008697Y-119088285D01*
X137124919Y-119034613D01*
X137207960Y-118990411D01*
X137241978Y-118964223D01*
X137241933Y-118962494D01*
X137225736Y-118921403D01*
X137190800Y-118829582D01*
X137143685Y-118704318D01*
X137126613Y-118658669D01*
X137074521Y-118521416D01*
X137040146Y-118443219D01*
X137016104Y-118415043D01*
X136995012Y-118427851D01*
X136971482Y-118468798D01*
X136897733Y-118551901D01*
X136780675Y-118592728D01*
X136611273Y-118594071D01*
X136577269Y-118590647D01*
X136416143Y-118572486D01*
X136416143Y-119239314D01*
X136416697Y-119476753D01*
X136419049Y-119652452D01*
X136424235Y-119777241D01*
X136433291Y-119861946D01*
X136447254Y-119917396D01*
X136467158Y-119954420D01*
X136486690Y-119976690D01*
X136599288Y-120042468D01*
X136762645Y-120075475D01*
X136964097Y-120078208D01*
X137190977Y-120053161D01*
X137430619Y-120002832D01*
X137670358Y-119929716D01*
X137897527Y-119836309D01*
X138099461Y-119725107D01*
X138223240Y-119634481D01*
X138335254Y-119540227D01*
X138335254Y-119976797D01*
X138334411Y-120162772D01*
X138330131Y-120291577D01*
X138319784Y-120378609D01*
X138300740Y-120439264D01*
X138270369Y-120488939D01*
X138241712Y-120524534D01*
X138112437Y-120637626D01*
X137927020Y-120745423D01*
X137701886Y-120842005D01*
X137453462Y-120921452D01*
X137198174Y-120977845D01*
X136952448Y-121005262D01*
X136903580Y-121006785D01*
X136733906Y-121003665D01*
X136623726Y-120981245D01*
X136560526Y-120929238D01*
X136531789Y-120837354D01*
X136525000Y-120695543D01*
X136526791Y-120576945D01*
X136535152Y-120518377D01*
X136554566Y-120507325D01*
X136585151Y-120527628D01*
X136675566Y-120564545D01*
X136819553Y-120579001D01*
X137002053Y-120572125D01*
X137208007Y-120545048D01*
X137422357Y-120498897D01*
X137577286Y-120453212D01*
X137750112Y-120388513D01*
X137919947Y-120312748D01*
X138073449Y-120233311D01*
X138197274Y-120157593D01*
X138278077Y-120092987D01*
X138303000Y-120051155D01*
X138277455Y-120051487D01*
X138211300Y-120089034D01*
X138140962Y-120139166D01*
X137927082Y-120270320D01*
X137664804Y-120381139D01*
X137377090Y-120464491D01*
X137086902Y-120513243D01*
X136905312Y-120523000D01*
X136734023Y-120515728D01*
X136621795Y-120488898D01*
X136556123Y-120434989D01*
X136524501Y-120346482D01*
X136517780Y-120289948D01*
X136500191Y-120178794D01*
X136473603Y-120136187D01*
X136443612Y-120159583D01*
X136415812Y-120246441D01*
X136400706Y-120343153D01*
X136366686Y-120547535D01*
X136317639Y-120683415D01*
X136251769Y-120753647D01*
X136167278Y-120761083D01*
X136142454Y-120753243D01*
X136081890Y-120708156D01*
X136024877Y-120618018D01*
X135970153Y-120478263D01*
X135916452Y-120284325D01*
X135862510Y-120031637D01*
X135807065Y-119715632D01*
X135748851Y-119331745D01*
X135748720Y-119330828D01*
X135708580Y-119060271D01*
X135675825Y-118861447D01*
X135650351Y-118733907D01*
X135632052Y-118677200D01*
X135620823Y-118690877D01*
X135616635Y-118766167D01*
X135609754Y-118936130D01*
X135594248Y-119125721D01*
X135572488Y-119316896D01*
X135546841Y-119491612D01*
X135519678Y-119631826D01*
X135493368Y-119719497D01*
X135490742Y-119724937D01*
X135409119Y-119830894D01*
X135294511Y-119919492D01*
X135174221Y-119971854D01*
X135123822Y-119978579D01*
X135041789Y-119956811D01*
X134952594Y-119904398D01*
X134858116Y-119830081D01*
X134835676Y-119931612D01*
X134777373Y-120166122D01*
X134718256Y-120339665D01*
X134653777Y-120463749D01*
X134598127Y-120532313D01*
X134496147Y-120606961D01*
X134385641Y-120623935D01*
X134246814Y-120585730D01*
X134229929Y-120578678D01*
X134192793Y-120571296D01*
X134173726Y-120600038D01*
X134166979Y-120679545D01*
X134166429Y-120740420D01*
X134145892Y-120930845D01*
X134088193Y-121084104D01*
X133999198Y-121186703D01*
X133963401Y-121207401D01*
X133876709Y-121240506D01*
X133805784Y-121242185D01*
X133716985Y-121210587D01*
X133676024Y-121191594D01*
X133578126Y-121126051D01*
X133486548Y-121021025D01*
X133395049Y-120867097D01*
X133297388Y-120654846D01*
X133260088Y-120563767D01*
X133138571Y-120259820D01*
X133072391Y-120388818D01*
X133009471Y-120478786D01*
X132938091Y-120537179D01*
X132924106Y-120542843D01*
X132858896Y-120564334D01*
X132808883Y-120590090D01*
X132772052Y-120629230D01*
X132746387Y-120690871D01*
X132729870Y-120784131D01*
X132720486Y-120918129D01*
X132716218Y-121101982D01*
X132715051Y-121344809D01*
X132715000Y-121488488D01*
X132386782Y-121488488D01*
X132387060Y-121388219D01*
X132387792Y-121002061D01*
X132388256Y-120588244D01*
X132388288Y-120504857D01*
X132715000Y-120504857D01*
X132733143Y-120523000D01*
X132751286Y-120504857D01*
X132733143Y-120486714D01*
X132715000Y-120504857D01*
X132388288Y-120504857D01*
X132388406Y-120207557D01*
X132715922Y-120207557D01*
X132732040Y-120293843D01*
X132757094Y-120332866D01*
X132805748Y-120359842D01*
X132851286Y-120330470D01*
X132901975Y-120238203D01*
X132915121Y-120207659D01*
X132949694Y-120121699D01*
X132960649Y-120090725D01*
X133200172Y-120090725D01*
X133212559Y-120153697D01*
X133233922Y-120206874D01*
X133273762Y-120296425D01*
X133330037Y-120427651D01*
X133391821Y-120575011D01*
X133403556Y-120603392D01*
X133500830Y-120818151D01*
X133590727Y-120969368D01*
X133678631Y-121064942D01*
X133745083Y-121104295D01*
X133842260Y-121133559D01*
X133909805Y-121118440D01*
X133970305Y-121063502D01*
X134017903Y-120968752D01*
X134047036Y-120821862D01*
X134057310Y-120640978D01*
X134048332Y-120444245D01*
X134019710Y-120249808D01*
X133990454Y-120133477D01*
X133952964Y-119997841D01*
X133917821Y-119856471D01*
X134137153Y-119856471D01*
X134146978Y-120037304D01*
X134170041Y-120207578D01*
X134204571Y-120341120D01*
X134218922Y-120374115D01*
X134299244Y-120481862D01*
X134390065Y-120519791D01*
X134486885Y-120486761D01*
X134527286Y-120452428D01*
X134590180Y-120356062D01*
X134648852Y-120205404D01*
X134697679Y-120018719D01*
X134731036Y-119814274D01*
X134734849Y-119778190D01*
X134743730Y-119651143D01*
X134735538Y-119568289D01*
X134711584Y-119518100D01*
X134896076Y-119518100D01*
X134899542Y-119606645D01*
X134921070Y-119670543D01*
X134965506Y-119733514D01*
X134981792Y-119753117D01*
X135066018Y-119838668D01*
X135136939Y-119863994D01*
X135216566Y-119832271D01*
X135268479Y-119794472D01*
X135334264Y-119736335D01*
X135382089Y-119672598D01*
X135416189Y-119589506D01*
X135440795Y-119473307D01*
X135460142Y-119310247D01*
X135475914Y-119120563D01*
X135497276Y-118896965D01*
X135523532Y-118717132D01*
X135552803Y-118592644D01*
X135567604Y-118555497D01*
X135574151Y-118540761D01*
X135763000Y-118540761D01*
X135768637Y-118618750D01*
X135784156Y-118754200D01*
X135807469Y-118932991D01*
X135836489Y-119141008D01*
X135869127Y-119364133D01*
X135903296Y-119588248D01*
X135936908Y-119799236D01*
X135967876Y-119982979D01*
X135994110Y-120125359D01*
X136005171Y-120178286D01*
X136056179Y-120374319D01*
X136108364Y-120518092D01*
X136158860Y-120604868D01*
X136204800Y-120629907D01*
X136243320Y-120588470D01*
X136247346Y-120578706D01*
X136260486Y-120517977D01*
X136276035Y-120407693D01*
X136290822Y-120270654D01*
X136292051Y-120257293D01*
X136301757Y-120095853D01*
X136293722Y-119972429D01*
X136264285Y-119853843D01*
X136239843Y-119784520D01*
X136200390Y-119666585D01*
X136151071Y-119500855D01*
X136098458Y-119310222D01*
X136053474Y-119135290D01*
X135984418Y-118870046D01*
X135924851Y-118673063D01*
X135873470Y-118540836D01*
X135828967Y-118469862D01*
X135799873Y-118454714D01*
X135771624Y-118485614D01*
X135763000Y-118540761D01*
X135574151Y-118540761D01*
X135594013Y-118496060D01*
X135605631Y-118435523D01*
X135604143Y-118400150D01*
X135950824Y-118400150D01*
X135957110Y-118436710D01*
X135988360Y-118509655D01*
X135990946Y-118514842D01*
X136018822Y-118587658D01*
X136058705Y-118714559D01*
X136105724Y-118879048D01*
X136155011Y-119064629D01*
X136165979Y-119107857D01*
X136289143Y-119597714D01*
X136299157Y-119021997D01*
X136301351Y-118775189D01*
X136297895Y-118594451D01*
X136288451Y-118473475D01*
X136272676Y-118405955D01*
X136265198Y-118393295D01*
X136202956Y-118358441D01*
X136096887Y-118363549D01*
X136091898Y-118364463D01*
X136003838Y-118383233D01*
X135953699Y-118398318D01*
X135950824Y-118400150D01*
X135604143Y-118400150D01*
X135602331Y-118357086D01*
X136457277Y-118357086D01*
X136478414Y-118440052D01*
X136540065Y-118478253D01*
X136652747Y-118484259D01*
X136688286Y-118482324D01*
X136786703Y-118467645D01*
X136847082Y-118426298D01*
X136899611Y-118337374D01*
X136900679Y-118335189D01*
X136967930Y-118197522D01*
X136926186Y-118114043D01*
X137080480Y-118114043D01*
X137091050Y-118207710D01*
X137119889Y-118310653D01*
X137153357Y-118405877D01*
X137240211Y-118640917D01*
X137306267Y-118808710D01*
X137352382Y-118911275D01*
X137379412Y-118950631D01*
X137384312Y-118950069D01*
X137395505Y-118909807D01*
X137413438Y-118813334D01*
X137419153Y-118777646D01*
X137549771Y-118777646D01*
X137554382Y-118860652D01*
X137568715Y-118890143D01*
X137612128Y-118861033D01*
X137627832Y-118832746D01*
X137637799Y-118770938D01*
X137644560Y-118658247D01*
X137646955Y-118516334D01*
X137646808Y-118491000D01*
X137758714Y-118491000D01*
X137758714Y-118853857D01*
X137940143Y-118853857D01*
X138043673Y-118850980D01*
X138109359Y-118843626D01*
X138121571Y-118837877D01*
X138110115Y-118798552D01*
X138079765Y-118708783D01*
X138036546Y-118586281D01*
X138026075Y-118557160D01*
X137945032Y-118350840D01*
X137874803Y-118210475D01*
X137816537Y-118138161D01*
X137790827Y-118128143D01*
X137777347Y-118161862D01*
X137766654Y-118252781D01*
X137760106Y-118385541D01*
X137758714Y-118491000D01*
X137646808Y-118491000D01*
X137646738Y-118478961D01*
X137643606Y-118338873D01*
X137637184Y-118265392D01*
X137626396Y-118252589D01*
X137612101Y-118287928D01*
X137587129Y-118396169D01*
X137567508Y-118526483D01*
X137554601Y-118659949D01*
X137549771Y-118777646D01*
X137419153Y-118777646D01*
X137435369Y-118676387D01*
X137452524Y-118558492D01*
X137491443Y-118329715D01*
X137534823Y-118170150D01*
X137577469Y-118084255D01*
X137629368Y-117976398D01*
X137649246Y-117827452D01*
X137649857Y-117787481D01*
X137644080Y-117662313D01*
X137618490Y-117576086D01*
X137560700Y-117495549D01*
X137527644Y-117459441D01*
X137483559Y-117420959D01*
X137759203Y-117420959D01*
X137764676Y-117509375D01*
X137778623Y-117566873D01*
X137802213Y-117607281D01*
X137813247Y-117620258D01*
X137882546Y-117680739D01*
X137948875Y-117684673D01*
X138014724Y-117655353D01*
X138092286Y-117583058D01*
X138157454Y-117471457D01*
X138180462Y-117393577D01*
X138347332Y-117393577D01*
X138359081Y-117495856D01*
X138371631Y-117563011D01*
X138404016Y-117713119D01*
X138440916Y-117866911D01*
X138477960Y-118008189D01*
X138510782Y-118120755D01*
X138535011Y-118188413D01*
X138543639Y-118200714D01*
X138547435Y-118166126D01*
X138550764Y-118069153D01*
X138553467Y-117919978D01*
X138555387Y-117728787D01*
X138556364Y-117505765D01*
X138556444Y-117375214D01*
X138554810Y-117083000D01*
X138550381Y-116858639D01*
X138543212Y-116703303D01*
X138533356Y-116618164D01*
X138521024Y-116604143D01*
X138497991Y-116661825D01*
X138464949Y-116771725D01*
X138427288Y-116915139D01*
X138406778Y-117000582D01*
X138369691Y-117169773D01*
X138350372Y-117292827D01*
X138347332Y-117393577D01*
X138180462Y-117393577D01*
X138192274Y-117353599D01*
X138194143Y-117325059D01*
X138181561Y-117217165D01*
X138148505Y-117072208D01*
X138102007Y-116912545D01*
X138049100Y-116760532D01*
X137996818Y-116638525D01*
X137958274Y-116575286D01*
X137877541Y-116481428D01*
X137833952Y-116562874D01*
X137815425Y-116629720D01*
X137797051Y-116751842D01*
X137780932Y-116911971D01*
X137769172Y-117092837D01*
X137769019Y-117096061D01*
X137761040Y-117287796D01*
X137759203Y-117420959D01*
X137483559Y-117420959D01*
X137418268Y-117363968D01*
X137326999Y-117331391D01*
X137251789Y-117363586D01*
X137190590Y-117462428D01*
X137141353Y-117629790D01*
X137104770Y-117846575D01*
X137085835Y-118002662D01*
X137080480Y-118114043D01*
X136926186Y-118114043D01*
X136864394Y-117990475D01*
X136778475Y-117851630D01*
X136697261Y-117783925D01*
X136623209Y-117785963D01*
X136558777Y-117856349D01*
X136506421Y-117993686D01*
X136468600Y-118196578D01*
X136466136Y-118216783D01*
X136457277Y-118357086D01*
X135602331Y-118357086D01*
X135602237Y-118354857D01*
X135586791Y-118255489D01*
X135701268Y-118255489D01*
X135727772Y-118313922D01*
X135765465Y-118345672D01*
X135768159Y-118345857D01*
X135779563Y-118319564D01*
X135761337Y-118270178D01*
X135724729Y-118218143D01*
X135704777Y-118210556D01*
X135701268Y-118255489D01*
X135586791Y-118255489D01*
X135583611Y-118235034D01*
X135562618Y-118123968D01*
X135529482Y-117976168D01*
X135493947Y-117854151D01*
X135461855Y-117776794D01*
X135450631Y-117762016D01*
X135373821Y-117737937D01*
X135267251Y-117747236D01*
X135162122Y-117783914D01*
X135099523Y-117829495D01*
X135067895Y-117870686D01*
X135043226Y-117922335D01*
X135023567Y-117995591D01*
X135006970Y-118101606D01*
X134991486Y-118251530D01*
X134975168Y-118456513D01*
X134964914Y-118599857D01*
X134949590Y-118814279D01*
X134933788Y-119027624D01*
X134919201Y-119217490D01*
X134907525Y-119361475D01*
X134905828Y-119381188D01*
X134896076Y-119518100D01*
X134711584Y-119518100D01*
X134703922Y-119502049D01*
X134657549Y-119442547D01*
X134543987Y-119351238D01*
X134423430Y-119326351D01*
X134308950Y-119364566D01*
X134213616Y-119462563D01*
X134164313Y-119567839D01*
X134142341Y-119691258D01*
X134137153Y-119856471D01*
X133917821Y-119856471D01*
X133907739Y-119815916D01*
X133860782Y-119612676D01*
X133822462Y-119434429D01*
X133764606Y-119170835D01*
X133710375Y-118957317D01*
X133661470Y-118799415D01*
X133619592Y-118702667D01*
X133588480Y-118672429D01*
X133524415Y-118708676D01*
X133460111Y-118817269D01*
X133395643Y-118997983D01*
X133331086Y-119250590D01*
X133266514Y-119574867D01*
X133241959Y-119717017D01*
X133214588Y-119889718D01*
X133200753Y-120008510D01*
X133200172Y-120090725D01*
X132960649Y-120090725D01*
X132968083Y-120069709D01*
X132969000Y-120064997D01*
X132938838Y-120052698D01*
X132869905Y-120053573D01*
X132794528Y-120066255D01*
X132772396Y-120073311D01*
X132730021Y-120123076D01*
X132715922Y-120207557D01*
X132388406Y-120207557D01*
X132388428Y-120152381D01*
X132388428Y-118918631D01*
X132715000Y-118918631D01*
X132715000Y-119965450D01*
X132866899Y-119944868D01*
X132957210Y-119928593D01*
X133008480Y-119897886D01*
X133040506Y-119832593D01*
X133065332Y-119742857D01*
X133085887Y-119644216D01*
X133112187Y-119490620D01*
X133141551Y-119299196D01*
X133171296Y-119087071D01*
X133187489Y-118962714D01*
X133227386Y-118661708D01*
X133332393Y-118661708D01*
X133334835Y-118712078D01*
X133353488Y-118715377D01*
X133403869Y-118669643D01*
X133423344Y-118650214D01*
X133515593Y-118579348D01*
X133597724Y-118564845D01*
X133672015Y-118609657D01*
X133740742Y-118716733D01*
X133806179Y-118889021D01*
X133870603Y-119129472D01*
X133901945Y-119270482D01*
X133938881Y-119437375D01*
X133971455Y-119569960D01*
X133996617Y-119656881D01*
X134011318Y-119686782D01*
X134012976Y-119684117D01*
X134032645Y-119620663D01*
X134066628Y-119520710D01*
X134081359Y-119479013D01*
X134163174Y-119343301D01*
X134284803Y-119252983D01*
X134428309Y-119213678D01*
X134575757Y-119231005D01*
X134685052Y-119289854D01*
X134749617Y-119336367D01*
X134780058Y-119337554D01*
X134796427Y-119298925D01*
X134805613Y-119238807D01*
X134816878Y-119123083D01*
X134828769Y-118968633D01*
X134839433Y-118799428D01*
X134864047Y-118364000D01*
X134760166Y-118459352D01*
X134628512Y-118563652D01*
X134503651Y-118618313D01*
X134355025Y-118635919D01*
X134330823Y-118636143D01*
X134195740Y-118623296D01*
X134085684Y-118577734D01*
X133986512Y-118488922D01*
X133884083Y-118346326D01*
X133836901Y-118268224D01*
X133754702Y-118135929D01*
X133691972Y-118058295D01*
X133638163Y-118023910D01*
X133606842Y-118019286D01*
X133523296Y-118038404D01*
X133482594Y-118066973D01*
X133453629Y-118127690D01*
X133418517Y-118236608D01*
X133383159Y-118370362D01*
X133353455Y-118505591D01*
X133335307Y-118618929D01*
X133332393Y-118661708D01*
X133227386Y-118661708D01*
X133228354Y-118654406D01*
X133266203Y-118411217D01*
X133303991Y-118225943D01*
X133344672Y-118091377D01*
X133391202Y-118000313D01*
X133446534Y-117945547D01*
X133513625Y-117919872D01*
X133595429Y-117916083D01*
X133616097Y-117917505D01*
X133698188Y-117932458D01*
X133760955Y-117971681D01*
X133825324Y-118051451D01*
X133863620Y-118110000D01*
X133987271Y-118296479D01*
X134089089Y-118425221D01*
X134179406Y-118503543D01*
X134268553Y-118538760D01*
X134366863Y-118538191D01*
X134444131Y-118521120D01*
X134613953Y-118437741D01*
X134748299Y-118292666D01*
X134844799Y-118088777D01*
X134869329Y-118003511D01*
X134912457Y-117829662D01*
X134953878Y-117662687D01*
X135074371Y-117662687D01*
X135088002Y-117687811D01*
X135131318Y-117675132D01*
X135217069Y-117648699D01*
X135318500Y-117628786D01*
X135398660Y-117612751D01*
X135436068Y-117595884D01*
X135436428Y-117594442D01*
X135417620Y-117531764D01*
X135372758Y-117445303D01*
X135319189Y-117364184D01*
X135274258Y-117317532D01*
X135270412Y-117315687D01*
X135212904Y-117328439D01*
X135154535Y-117397739D01*
X135105731Y-117508447D01*
X135086488Y-117582773D01*
X135074371Y-117662687D01*
X134953878Y-117662687D01*
X134959933Y-117638281D01*
X134987480Y-117527236D01*
X135049520Y-117346590D01*
X135128557Y-117235037D01*
X135223929Y-117193289D01*
X135288566Y-117201994D01*
X135371957Y-117257743D01*
X135454535Y-117359599D01*
X135517615Y-117483332D01*
X135527082Y-117511286D01*
X135563255Y-117608577D01*
X135619978Y-117737904D01*
X135688306Y-117881380D01*
X135759293Y-118021118D01*
X135823991Y-118139233D01*
X135873457Y-118217835D01*
X135890072Y-118237060D01*
X135974001Y-118264522D01*
X136070522Y-118257707D01*
X136176426Y-118251506D01*
X136262024Y-118268654D01*
X136266500Y-118270877D01*
X136309172Y-118285729D01*
X136334751Y-118262508D01*
X136353169Y-118187103D01*
X136361176Y-118136355D01*
X136413128Y-117911888D01*
X136492424Y-117753526D01*
X136573964Y-117674815D01*
X136662099Y-117639577D01*
X136747652Y-117659350D01*
X136842284Y-117738940D01*
X136902791Y-117810418D01*
X136961106Y-117880627D01*
X136988284Y-117897055D01*
X136996035Y-117864496D01*
X136996312Y-117848715D01*
X137011013Y-117700363D01*
X137048359Y-117543511D01*
X137100259Y-117404571D01*
X137158620Y-117309957D01*
X137162629Y-117305787D01*
X137275637Y-117234058D01*
X137397850Y-117233891D01*
X137526614Y-117305254D01*
X137532848Y-117310423D01*
X137639121Y-117399846D01*
X137660043Y-117003266D01*
X137673058Y-116830006D01*
X137691738Y-116674351D01*
X137713285Y-116556415D01*
X137729250Y-116505629D01*
X137797980Y-116416793D01*
X137881603Y-116392104D01*
X137971790Y-116426952D01*
X138060213Y-116516729D01*
X138138542Y-116656826D01*
X138173629Y-116751521D01*
X138211392Y-116870096D01*
X138242183Y-116965399D01*
X138254754Y-117003286D01*
X138271729Y-116998775D01*
X138299228Y-116936529D01*
X138331688Y-116829578D01*
X138335952Y-116813185D01*
X138379519Y-116675174D01*
X138431820Y-116555250D01*
X138477728Y-116484275D01*
X138545549Y-116368706D01*
X138562013Y-116237412D01*
X138533663Y-116107972D01*
X138467039Y-115997968D01*
X138368682Y-115924979D01*
X138262288Y-115905273D01*
X138208229Y-115916487D01*
X138090524Y-115947284D01*
X137914915Y-115995989D01*
X137687145Y-116060929D01*
X137412954Y-116140427D01*
X137098085Y-116232809D01*
X136748281Y-116336400D01*
X136369282Y-116449525D01*
X135966832Y-116570509D01*
X135567121Y-116691467D01*
X135040794Y-116851688D01*
X134580921Y-116992654D01*
X134184280Y-117115413D01*
X133847650Y-117221008D01*
X133567809Y-117310486D01*
X133341537Y-117384890D01*
X133165612Y-117445267D01*
X133036812Y-117492662D01*
X132951916Y-117528119D01*
X132907704Y-117552685D01*
X132904516Y-117555371D01*
X132852452Y-117606800D01*
X132810887Y-117660419D01*
X132778642Y-117724692D01*
X132754543Y-117808081D01*
X132737412Y-117919051D01*
X132726073Y-118066065D01*
X132719349Y-118257586D01*
X132716064Y-118502078D01*
X132715042Y-118808004D01*
X132715000Y-118918631D01*
X132388428Y-118918631D01*
X132388428Y-117411148D01*
X132179786Y-117255091D01*
X132054763Y-117161541D01*
X131934738Y-117071668D01*
X131853214Y-117010568D01*
X131735286Y-116922101D01*
X131735286Y-122406213D01*
X131629390Y-122406213D01*
X131628408Y-119615857D01*
X131627430Y-116832433D01*
X131778974Y-116832433D01*
X132110915Y-117079884D01*
X132245828Y-117177365D01*
X132361062Y-117254872D01*
X132443589Y-117304015D01*
X132479143Y-117317054D01*
X132518503Y-117305277D01*
X132622347Y-117274039D01*
X132785683Y-117224846D01*
X133003516Y-117159204D01*
X133270854Y-117078618D01*
X133582704Y-116984594D01*
X133934074Y-116878636D01*
X134319969Y-116762250D01*
X134735397Y-116636942D01*
X135175365Y-116504218D01*
X135624341Y-116368761D01*
X138733253Y-115430749D01*
X138423469Y-115197083D01*
X138113684Y-114963417D01*
X137908985Y-115021411D01*
X137843366Y-115040434D01*
X137713684Y-115078428D01*
X137525463Y-115133764D01*
X137284227Y-115204812D01*
X136995498Y-115289943D01*
X136664801Y-115387525D01*
X136297658Y-115495931D01*
X135899594Y-115613530D01*
X135476131Y-115738693D01*
X135032794Y-115869789D01*
X134741630Y-115955919D01*
X131778974Y-116832433D01*
X131627430Y-116832433D01*
X131627407Y-116767428D01*
X134870323Y-115810212D01*
X135443992Y-115641357D01*
X135969423Y-115487671D01*
X136444311Y-115349803D01*
X136866352Y-115228404D01*
X137233239Y-115124121D01*
X137542669Y-115037604D01*
X137792337Y-114969502D01*
X137979938Y-114920465D01*
X138103168Y-114891141D01*
X138159721Y-114882180D01*
X138162762Y-114882847D01*
D11*
X142240000Y-99635000D02*
X143570000Y-99635000D01*
X143570000Y-99635000D02*
X143570000Y-100965000D01*
X143570000Y-102235000D02*
X143570000Y-114995000D01*
X140910000Y-114995000D02*
X143570000Y-114995000D01*
X140910000Y-102235000D02*
X140910000Y-114995000D01*
X140910000Y-102235000D02*
X143570000Y-102235000D01*
X133215000Y-107315000D02*
G75*
G03X133215000Y-107315000I-500000J0D01*
G01*
X142240000Y-117415000D02*
X143570000Y-117415000D01*
X143570000Y-117415000D02*
X143570000Y-118745000D01*
X143570000Y-120015000D02*
X143570000Y-132775000D01*
X140910000Y-132775000D02*
X143570000Y-132775000D01*
X140910000Y-120015000D02*
X140910000Y-132775000D01*
X140910000Y-120015000D02*
X143570000Y-120015000D01*
X142240000Y-86935000D02*
X143570000Y-86935000D01*
X143570000Y-86935000D02*
X143570000Y-88265000D01*
X143570000Y-89535000D02*
X143570000Y-97215000D01*
X140910000Y-97215000D02*
X143570000Y-97215000D01*
X140910000Y-89535000D02*
X140910000Y-97215000D01*
X140910000Y-89535000D02*
X143570000Y-89535000D01*
X127000000Y-103445000D02*
X128330000Y-103445000D01*
X128330000Y-103445000D02*
X128330000Y-104775000D01*
X128330000Y-106045000D02*
X128330000Y-116265000D01*
X125670000Y-116265000D02*
X128330000Y-116265000D01*
X125670000Y-106045000D02*
X125670000Y-116265000D01*
X125670000Y-106045000D02*
X128330000Y-106045000D01*
D12*
X139289285Y-101215000D02*
X139825000Y-101215000D01*
X139932142Y-101250714D01*
X140003571Y-101322142D01*
X140039285Y-101429285D01*
X140039285Y-101500714D01*
X139289285Y-100929285D02*
X139289285Y-100465000D01*
X139575000Y-100715000D01*
X139575000Y-100607857D01*
X139610714Y-100536428D01*
X139646428Y-100500714D01*
X139717857Y-100465000D01*
X139896428Y-100465000D01*
X139967857Y-100500714D01*
X140003571Y-100536428D01*
X140039285Y-100607857D01*
X140039285Y-100822142D01*
X140003571Y-100893571D01*
X139967857Y-100929285D01*
X140039285Y-113754285D02*
X139682142Y-114004285D01*
X140039285Y-114182857D02*
X139289285Y-114182857D01*
X139289285Y-113897142D01*
X139325000Y-113825714D01*
X139360714Y-113790000D01*
X139432142Y-113754285D01*
X139539285Y-113754285D01*
X139610714Y-113790000D01*
X139646428Y-113825714D01*
X139682142Y-113897142D01*
X139682142Y-114182857D01*
X139825000Y-113468571D02*
X139825000Y-113111428D01*
X140039285Y-113540000D02*
X139289285Y-113290000D01*
X140039285Y-113040000D01*
X134683571Y-106269285D02*
X134683571Y-106876428D01*
X134719285Y-106947857D01*
X134755000Y-106983571D01*
X134826428Y-107019285D01*
X134969285Y-107019285D01*
X135040714Y-106983571D01*
X135076428Y-106947857D01*
X135112142Y-106876428D01*
X135112142Y-106269285D01*
X135862142Y-107019285D02*
X135433571Y-107019285D01*
X135647857Y-107019285D02*
X135647857Y-106269285D01*
X135576428Y-106376428D01*
X135505000Y-106447857D01*
X135433571Y-106483571D01*
X131683571Y-113369285D02*
X131683571Y-112619285D01*
X131969285Y-112619285D01*
X132040714Y-112655000D01*
X132076428Y-112690714D01*
X132112142Y-112762142D01*
X132112142Y-112869285D01*
X132076428Y-112940714D01*
X132040714Y-112976428D01*
X131969285Y-113012142D01*
X131683571Y-113012142D01*
X132433571Y-113369285D02*
X132433571Y-112619285D01*
X133219285Y-113297857D02*
X133183571Y-113333571D01*
X133076428Y-113369285D01*
X133005000Y-113369285D01*
X132897857Y-113333571D01*
X132826428Y-113262142D01*
X132790714Y-113190714D01*
X132755000Y-113047857D01*
X132755000Y-112940714D01*
X132790714Y-112797857D01*
X132826428Y-112726428D01*
X132897857Y-112655000D01*
X133005000Y-112619285D01*
X133076428Y-112619285D01*
X133183571Y-112655000D01*
X133219285Y-112690714D01*
X133933571Y-113369285D02*
X133505000Y-113369285D01*
X133719285Y-113369285D02*
X133719285Y-112619285D01*
X133647857Y-112726428D01*
X133576428Y-112797857D01*
X133505000Y-112833571D01*
X134576428Y-112619285D02*
X134433571Y-112619285D01*
X134362142Y-112655000D01*
X134326428Y-112690714D01*
X134255000Y-112797857D01*
X134219285Y-112940714D01*
X134219285Y-113226428D01*
X134255000Y-113297857D01*
X134290714Y-113333571D01*
X134362142Y-113369285D01*
X134505000Y-113369285D01*
X134576428Y-113333571D01*
X134612142Y-113297857D01*
X134647857Y-113226428D01*
X134647857Y-113047857D01*
X134612142Y-112976428D01*
X134576428Y-112940714D01*
X134505000Y-112905000D01*
X134362142Y-112905000D01*
X134290714Y-112940714D01*
X134255000Y-112976428D01*
X134219285Y-113047857D01*
X135219285Y-112976428D02*
X134969285Y-112976428D01*
X134969285Y-113369285D02*
X134969285Y-112619285D01*
X135326428Y-112619285D01*
X136005000Y-113369285D02*
X135576428Y-113369285D01*
X135790714Y-113369285D02*
X135790714Y-112619285D01*
X135719285Y-112726428D01*
X135647857Y-112797857D01*
X135576428Y-112833571D01*
X136433571Y-112940714D02*
X136362142Y-112905000D01*
X136326428Y-112869285D01*
X136290714Y-112797857D01*
X136290714Y-112762142D01*
X136326428Y-112690714D01*
X136362142Y-112655000D01*
X136433571Y-112619285D01*
X136576428Y-112619285D01*
X136647857Y-112655000D01*
X136683571Y-112690714D01*
X136719285Y-112762142D01*
X136719285Y-112797857D01*
X136683571Y-112869285D01*
X136647857Y-112905000D01*
X136576428Y-112940714D01*
X136433571Y-112940714D01*
X136362142Y-112976428D01*
X136326428Y-113012142D01*
X136290714Y-113083571D01*
X136290714Y-113226428D01*
X136326428Y-113297857D01*
X136362142Y-113333571D01*
X136433571Y-113369285D01*
X136576428Y-113369285D01*
X136647857Y-113333571D01*
X136683571Y-113297857D01*
X136719285Y-113226428D01*
X136719285Y-113083571D01*
X136683571Y-113012142D01*
X136647857Y-112976428D01*
X136576428Y-112940714D01*
X136969285Y-112619285D02*
X137433571Y-112619285D01*
X137183571Y-112905000D01*
X137290714Y-112905000D01*
X137362142Y-112940714D01*
X137397857Y-112976428D01*
X137433571Y-113047857D01*
X137433571Y-113226428D01*
X137397857Y-113297857D01*
X137362142Y-113333571D01*
X137290714Y-113369285D01*
X137076428Y-113369285D01*
X137005000Y-113333571D01*
X136969285Y-113297857D01*
X137719285Y-112690714D02*
X137755000Y-112655000D01*
X137826428Y-112619285D01*
X138005000Y-112619285D01*
X138076428Y-112655000D01*
X138112142Y-112690714D01*
X138147857Y-112762142D01*
X138147857Y-112833571D01*
X138112142Y-112940714D01*
X137683571Y-113369285D01*
X138147857Y-113369285D01*
X138790714Y-112619285D02*
X138647857Y-112619285D01*
X138576428Y-112655000D01*
X138540714Y-112690714D01*
X138469285Y-112797857D01*
X138433571Y-112940714D01*
X138433571Y-113226428D01*
X138469285Y-113297857D01*
X138505000Y-113333571D01*
X138576428Y-113369285D01*
X138719285Y-113369285D01*
X138790714Y-113333571D01*
X138826428Y-113297857D01*
X138862142Y-113226428D01*
X138862142Y-113047857D01*
X138826428Y-112976428D01*
X138790714Y-112940714D01*
X138719285Y-112905000D01*
X138576428Y-112905000D01*
X138505000Y-112940714D01*
X138469285Y-112976428D01*
X138433571Y-113047857D01*
X139289285Y-118995000D02*
X139825000Y-118995000D01*
X139932142Y-119030714D01*
X140003571Y-119102142D01*
X140039285Y-119209285D01*
X140039285Y-119280714D01*
X139539285Y-118316428D02*
X140039285Y-118316428D01*
X139253571Y-118495000D02*
X139789285Y-118673571D01*
X139789285Y-118209285D01*
X140039285Y-131587857D02*
X139682142Y-131837857D01*
X140039285Y-132016428D02*
X139289285Y-132016428D01*
X139289285Y-131730714D01*
X139325000Y-131659285D01*
X139360714Y-131623571D01*
X139432142Y-131587857D01*
X139539285Y-131587857D01*
X139610714Y-131623571D01*
X139646428Y-131659285D01*
X139682142Y-131730714D01*
X139682142Y-132016428D01*
X139967857Y-130837857D02*
X140003571Y-130873571D01*
X140039285Y-130980714D01*
X140039285Y-131052142D01*
X140003571Y-131159285D01*
X139932142Y-131230714D01*
X139860714Y-131266428D01*
X139717857Y-131302142D01*
X139610714Y-131302142D01*
X139467857Y-131266428D01*
X139396428Y-131230714D01*
X139325000Y-131159285D01*
X139289285Y-131052142D01*
X139289285Y-130980714D01*
X139325000Y-130873571D01*
X139360714Y-130837857D01*
X139289285Y-88515000D02*
X139825000Y-88515000D01*
X139932142Y-88550714D01*
X140003571Y-88622142D01*
X140039285Y-88729285D01*
X140039285Y-88800714D01*
X139360714Y-88193571D02*
X139325000Y-88157857D01*
X139289285Y-88086428D01*
X139289285Y-87907857D01*
X139325000Y-87836428D01*
X139360714Y-87800714D01*
X139432142Y-87765000D01*
X139503571Y-87765000D01*
X139610714Y-87800714D01*
X140039285Y-88229285D01*
X140039285Y-87765000D01*
X140039285Y-96982142D02*
X139289285Y-96982142D01*
X139289285Y-96696428D01*
X139325000Y-96625000D01*
X139360714Y-96589285D01*
X139432142Y-96553571D01*
X139539285Y-96553571D01*
X139610714Y-96589285D01*
X139646428Y-96625000D01*
X139682142Y-96696428D01*
X139682142Y-96982142D01*
X139289285Y-96089285D02*
X139289285Y-95946428D01*
X139325000Y-95875000D01*
X139396428Y-95803571D01*
X139539285Y-95767857D01*
X139789285Y-95767857D01*
X139932142Y-95803571D01*
X140003571Y-95875000D01*
X140039285Y-95946428D01*
X140039285Y-96089285D01*
X140003571Y-96160714D01*
X139932142Y-96232142D01*
X139789285Y-96267857D01*
X139539285Y-96267857D01*
X139396428Y-96232142D01*
X139325000Y-96160714D01*
X139289285Y-96089285D01*
X139289285Y-95517857D02*
X140039285Y-95339285D01*
X139503571Y-95196428D01*
X140039285Y-95053571D01*
X139289285Y-94875000D01*
X139646428Y-94589285D02*
X139646428Y-94339285D01*
X140039285Y-94232142D02*
X140039285Y-94589285D01*
X139289285Y-94589285D01*
X139289285Y-94232142D01*
X140039285Y-93482142D02*
X139682142Y-93732142D01*
X140039285Y-93910714D02*
X139289285Y-93910714D01*
X139289285Y-93625000D01*
X139325000Y-93553571D01*
X139360714Y-93517857D01*
X139432142Y-93482142D01*
X139539285Y-93482142D01*
X139610714Y-93517857D01*
X139646428Y-93553571D01*
X139682142Y-93625000D01*
X139682142Y-93910714D01*
X126750000Y-101594285D02*
X126750000Y-102130000D01*
X126714285Y-102237142D01*
X126642857Y-102308571D01*
X126535714Y-102344285D01*
X126464285Y-102344285D01*
X127500000Y-102344285D02*
X127071428Y-102344285D01*
X127285714Y-102344285D02*
X127285714Y-101594285D01*
X127214285Y-101701428D01*
X127142857Y-101772857D01*
X127071428Y-101808571D01*
X125892857Y-117814285D02*
X125892857Y-117064285D01*
X126678571Y-117742857D02*
X126642857Y-117778571D01*
X126535714Y-117814285D01*
X126464285Y-117814285D01*
X126357142Y-117778571D01*
X126285714Y-117707142D01*
X126250000Y-117635714D01*
X126214285Y-117492857D01*
X126214285Y-117385714D01*
X126250000Y-117242857D01*
X126285714Y-117171428D01*
X126357142Y-117100000D01*
X126464285Y-117064285D01*
X126535714Y-117064285D01*
X126642857Y-117100000D01*
X126678571Y-117135714D01*
X126964285Y-117778571D02*
X127071428Y-117814285D01*
X127250000Y-117814285D01*
X127321428Y-117778571D01*
X127357142Y-117742857D01*
X127392857Y-117671428D01*
X127392857Y-117600000D01*
X127357142Y-117528571D01*
X127321428Y-117492857D01*
X127250000Y-117457142D01*
X127107142Y-117421428D01*
X127035714Y-117385714D01*
X127000000Y-117350000D01*
X126964285Y-117278571D01*
X126964285Y-117207142D01*
X127000000Y-117135714D01*
X127035714Y-117100000D01*
X127107142Y-117064285D01*
X127285714Y-117064285D01*
X127392857Y-117100000D01*
X127714285Y-117814285D02*
X127714285Y-117064285D01*
X128000000Y-117064285D01*
X128071428Y-117100000D01*
X128107142Y-117135714D01*
X128142857Y-117207142D01*
X128142857Y-117314285D01*
X128107142Y-117385714D01*
X128071428Y-117421428D01*
X128000000Y-117457142D01*
X127714285Y-117457142D01*
%LPC*%
D13*
X142240000Y-113665000D03*
X142240000Y-111125000D03*
X142240000Y-108585000D03*
X142240000Y-106045000D03*
X142240000Y-103505000D03*
D14*
X142240000Y-100965000D03*
D15*
X135580000Y-111855000D03*
X134930000Y-111855000D03*
X136230000Y-111855000D03*
X134280000Y-111855000D03*
X136230000Y-107855000D03*
X135580000Y-107855000D03*
X134930000Y-107855000D03*
X134280000Y-107855000D03*
D16*
X137255000Y-109530000D03*
X137255000Y-110180000D03*
X137255000Y-108880000D03*
X137255000Y-110830000D03*
X133255000Y-110830000D03*
X133255000Y-110180000D03*
X133255000Y-109530000D03*
X133255000Y-108880000D03*
D17*
X135255000Y-109855000D03*
D13*
X142240000Y-131445000D03*
X142240000Y-128905000D03*
X142240000Y-126365000D03*
X142240000Y-123825000D03*
X142240000Y-121285000D03*
D14*
X142240000Y-118745000D03*
D13*
X142240000Y-95885000D03*
X142240000Y-93345000D03*
X142240000Y-90805000D03*
D14*
X142240000Y-88265000D03*
D13*
X127000000Y-114935000D03*
X127000000Y-112395000D03*
X127000000Y-109855000D03*
X127000000Y-107315000D03*
D14*
X127000000Y-104775000D03*
M02*
