G04 #@! TF.GenerationSoftware,KiCad,Pcbnew,5.1.5-52549c5~84~ubuntu18.04.1*
G04 #@! TF.CreationDate,2020-01-16T16:08:21-05:00*
G04 #@! TF.ProjectId,PIC16LF18326_breakout,50494331-364c-4463-9138-3332365f6272,rev?*
G04 #@! TF.SameCoordinates,Original*
G04 #@! TF.FileFunction,Copper,L2,Bot*
G04 #@! TF.FilePolarity,Positive*
%FSLAX46Y46*%
G04 Gerber Fmt 4.6, Leading zero omitted, Abs format (unit mm)*
G04 Created by KiCad (PCBNEW 5.1.5-52549c5~84~ubuntu18.04.1) date 2020-01-16 16:08:21*
%MOMM*%
%LPD*%
G04 APERTURE LIST*
%ADD10O,1.700000X1.700000*%
%ADD11R,1.700000X1.700000*%
%ADD12C,0.800000*%
%ADD13C,0.300000*%
%ADD14C,0.254000*%
G04 APERTURE END LIST*
D10*
X142240000Y-113665000D03*
X142240000Y-111125000D03*
X142240000Y-108585000D03*
X142240000Y-106045000D03*
X142240000Y-103505000D03*
D11*
X142240000Y-100965000D03*
D10*
X142240000Y-131445000D03*
X142240000Y-128905000D03*
X142240000Y-126365000D03*
X142240000Y-123825000D03*
X142240000Y-121285000D03*
D11*
X142240000Y-118745000D03*
D10*
X142240000Y-95885000D03*
X142240000Y-93345000D03*
X142240000Y-90805000D03*
D11*
X142240000Y-88265000D03*
D10*
X127000000Y-114935000D03*
X127000000Y-112395000D03*
X127000000Y-109855000D03*
X127000000Y-107315000D03*
D11*
X127000000Y-104775000D03*
D12*
X135255000Y-100965000D03*
X137795000Y-106680000D03*
X135890000Y-104775000D03*
X130810000Y-116205000D03*
X131445000Y-113665000D03*
X131445000Y-111760000D03*
X135255000Y-109855000D03*
X130175000Y-114935000D03*
X130175000Y-107315000D03*
X134620000Y-102235000D03*
D13*
X137795000Y-100965000D02*
X140335000Y-103505000D01*
X135255000Y-100965000D02*
X137795000Y-100965000D01*
X140335000Y-103505000D02*
X142240000Y-103505000D01*
X132715000Y-106680000D02*
X137795000Y-106680000D01*
X127000000Y-112395000D02*
X132715000Y-106680000D01*
X129540000Y-104775000D02*
X135890000Y-104775000D01*
X127000000Y-107315000D02*
X129540000Y-104775000D01*
X141037919Y-108585000D02*
X142240000Y-108585000D01*
X132239998Y-108585000D02*
X141037919Y-108585000D01*
X129424999Y-111399999D02*
X132239998Y-108585000D01*
X129424999Y-112914999D02*
X129424999Y-111399999D01*
X141037919Y-108585000D02*
X139700000Y-107247081D01*
X139700000Y-107247081D02*
X139700000Y-105410000D01*
X130810000Y-116205000D02*
X130175000Y-116205000D01*
X129424999Y-115454999D02*
X129424999Y-112914999D01*
X130175000Y-116205000D02*
X129424999Y-115454999D01*
X128150000Y-104775000D02*
X129420000Y-103505000D01*
X127000000Y-104775000D02*
X128150000Y-104775000D01*
X137795000Y-103505000D02*
X139700000Y-105410000D01*
X129420000Y-103505000D02*
X137795000Y-103505000D01*
X135255000Y-113665000D02*
X142240000Y-113665000D01*
X131445000Y-113665000D02*
X135255000Y-113665000D01*
X131445000Y-111760000D02*
X139065000Y-111760000D01*
X139700000Y-111125000D02*
X142240000Y-111125000D01*
X139065000Y-111760000D02*
X139700000Y-111125000D01*
X130175000Y-111919998D02*
X130175000Y-114935000D01*
X135255000Y-109855000D02*
X132239998Y-109855000D01*
X132239998Y-109855000D02*
X130175000Y-111919998D01*
X127000000Y-109855000D02*
X129540000Y-107315000D01*
X129540000Y-107315000D02*
X130175000Y-107315000D01*
D14*
G36*
X130410000Y-111658061D02*
G01*
X130410000Y-111861939D01*
X130449774Y-112061898D01*
X130527795Y-112250256D01*
X130641063Y-112419774D01*
X130785226Y-112563937D01*
X130954744Y-112677205D01*
X131039953Y-112712500D01*
X130954744Y-112747795D01*
X130785226Y-112861063D01*
X130641063Y-113005226D01*
X130527795Y-113174744D01*
X130449774Y-113363102D01*
X130410000Y-113563061D01*
X130410000Y-113766939D01*
X130449774Y-113966898D01*
X130527795Y-114155256D01*
X130641063Y-114324774D01*
X130785226Y-114468937D01*
X130954744Y-114582205D01*
X131143102Y-114660226D01*
X131343061Y-114700000D01*
X131546939Y-114700000D01*
X131746898Y-114660226D01*
X131935256Y-114582205D01*
X132104774Y-114468937D01*
X132123711Y-114450000D01*
X140978526Y-114450000D01*
X141086525Y-114611632D01*
X141293368Y-114818475D01*
X141536589Y-114980990D01*
X141806842Y-115092932D01*
X142093740Y-115150000D01*
X142386260Y-115150000D01*
X142673158Y-115092932D01*
X142943411Y-114980990D01*
X143186632Y-114818475D01*
X143393475Y-114611632D01*
X143460001Y-114512069D01*
X143460001Y-117377189D01*
X143444494Y-117364463D01*
X143334180Y-117305498D01*
X143214482Y-117269188D01*
X143090000Y-117256928D01*
X141390000Y-117256928D01*
X141265518Y-117269188D01*
X141145820Y-117305498D01*
X141035506Y-117364463D01*
X140938815Y-117443815D01*
X140859463Y-117540506D01*
X140800498Y-117650820D01*
X140764188Y-117770518D01*
X140751928Y-117895000D01*
X140751928Y-119595000D01*
X140764188Y-119719482D01*
X140800498Y-119839180D01*
X140859463Y-119949494D01*
X140938815Y-120046185D01*
X141035506Y-120125537D01*
X141145820Y-120184502D01*
X141218380Y-120206513D01*
X141086525Y-120338368D01*
X140924010Y-120581589D01*
X140812068Y-120851842D01*
X140755000Y-121138740D01*
X140755000Y-121431260D01*
X140812068Y-121718158D01*
X140924010Y-121988411D01*
X141086525Y-122231632D01*
X141293368Y-122438475D01*
X141467760Y-122555000D01*
X141293368Y-122671525D01*
X141086525Y-122878368D01*
X140924010Y-123121589D01*
X140812068Y-123391842D01*
X140755000Y-123678740D01*
X140755000Y-123971260D01*
X140812068Y-124258158D01*
X140924010Y-124528411D01*
X141086525Y-124771632D01*
X141293368Y-124978475D01*
X141467760Y-125095000D01*
X141293368Y-125211525D01*
X141086525Y-125418368D01*
X140924010Y-125661589D01*
X140812068Y-125931842D01*
X140755000Y-126218740D01*
X140755000Y-126511260D01*
X140812068Y-126798158D01*
X140924010Y-127068411D01*
X141086525Y-127311632D01*
X141293368Y-127518475D01*
X141467760Y-127635000D01*
X141293368Y-127751525D01*
X141086525Y-127958368D01*
X140924010Y-128201589D01*
X140812068Y-128471842D01*
X140755000Y-128758740D01*
X140755000Y-129051260D01*
X140812068Y-129338158D01*
X140924010Y-129608411D01*
X141086525Y-129851632D01*
X141293368Y-130058475D01*
X141467760Y-130175000D01*
X141293368Y-130291525D01*
X141086525Y-130498368D01*
X140924010Y-130741589D01*
X140812068Y-131011842D01*
X140755000Y-131298740D01*
X140755000Y-131591260D01*
X140812068Y-131878158D01*
X140924010Y-132148411D01*
X141086525Y-132391632D01*
X141293368Y-132598475D01*
X141430345Y-132690000D01*
X139973381Y-132690000D01*
X125755000Y-118471620D01*
X125755000Y-115744655D01*
X125846525Y-115881632D01*
X126053368Y-116088475D01*
X126296589Y-116250990D01*
X126566842Y-116362932D01*
X126853740Y-116420000D01*
X127146260Y-116420000D01*
X127433158Y-116362932D01*
X127703411Y-116250990D01*
X127946632Y-116088475D01*
X128153475Y-115881632D01*
X128315990Y-115638411D01*
X128427932Y-115368158D01*
X128485000Y-115081260D01*
X128485000Y-114788740D01*
X128427932Y-114501842D01*
X128315990Y-114231589D01*
X128153475Y-113988368D01*
X127946632Y-113781525D01*
X127772240Y-113665000D01*
X127946632Y-113548475D01*
X128153475Y-113341632D01*
X128315990Y-113098411D01*
X128427932Y-112828158D01*
X128485000Y-112541260D01*
X128485000Y-112248740D01*
X128447075Y-112058082D01*
X128640000Y-111865157D01*
X128639999Y-112953559D01*
X128640000Y-112953569D01*
X128639999Y-115416446D01*
X128636202Y-115454999D01*
X128639999Y-115493552D01*
X128639999Y-115493559D01*
X128651358Y-115608885D01*
X128696245Y-115756858D01*
X128769137Y-115893231D01*
X128867235Y-116012763D01*
X128897189Y-116037346D01*
X129592653Y-116732810D01*
X129617236Y-116762764D01*
X129736767Y-116860862D01*
X129873140Y-116933754D01*
X130021113Y-116978642D01*
X130096026Y-116986020D01*
X130130726Y-116989437D01*
X130150226Y-117008937D01*
X130319744Y-117122205D01*
X130508102Y-117200226D01*
X130708061Y-117240000D01*
X130911939Y-117240000D01*
X131111898Y-117200226D01*
X131300256Y-117122205D01*
X131469774Y-117008937D01*
X131613937Y-116864774D01*
X131727205Y-116695256D01*
X131805226Y-116506898D01*
X131845000Y-116306939D01*
X131845000Y-116103061D01*
X131805226Y-115903102D01*
X131727205Y-115714744D01*
X131613937Y-115545226D01*
X131469774Y-115401063D01*
X131300256Y-115287795D01*
X131111898Y-115209774D01*
X130911939Y-115170000D01*
X130708061Y-115170000D01*
X130508102Y-115209774D01*
X130353832Y-115273675D01*
X130209999Y-115129842D01*
X130209999Y-111725156D01*
X130443001Y-111492154D01*
X130410000Y-111658061D01*
G37*
X130410000Y-111658061D02*
X130410000Y-111861939D01*
X130449774Y-112061898D01*
X130527795Y-112250256D01*
X130641063Y-112419774D01*
X130785226Y-112563937D01*
X130954744Y-112677205D01*
X131039953Y-112712500D01*
X130954744Y-112747795D01*
X130785226Y-112861063D01*
X130641063Y-113005226D01*
X130527795Y-113174744D01*
X130449774Y-113363102D01*
X130410000Y-113563061D01*
X130410000Y-113766939D01*
X130449774Y-113966898D01*
X130527795Y-114155256D01*
X130641063Y-114324774D01*
X130785226Y-114468937D01*
X130954744Y-114582205D01*
X131143102Y-114660226D01*
X131343061Y-114700000D01*
X131546939Y-114700000D01*
X131746898Y-114660226D01*
X131935256Y-114582205D01*
X132104774Y-114468937D01*
X132123711Y-114450000D01*
X140978526Y-114450000D01*
X141086525Y-114611632D01*
X141293368Y-114818475D01*
X141536589Y-114980990D01*
X141806842Y-115092932D01*
X142093740Y-115150000D01*
X142386260Y-115150000D01*
X142673158Y-115092932D01*
X142943411Y-114980990D01*
X143186632Y-114818475D01*
X143393475Y-114611632D01*
X143460001Y-114512069D01*
X143460001Y-117377189D01*
X143444494Y-117364463D01*
X143334180Y-117305498D01*
X143214482Y-117269188D01*
X143090000Y-117256928D01*
X141390000Y-117256928D01*
X141265518Y-117269188D01*
X141145820Y-117305498D01*
X141035506Y-117364463D01*
X140938815Y-117443815D01*
X140859463Y-117540506D01*
X140800498Y-117650820D01*
X140764188Y-117770518D01*
X140751928Y-117895000D01*
X140751928Y-119595000D01*
X140764188Y-119719482D01*
X140800498Y-119839180D01*
X140859463Y-119949494D01*
X140938815Y-120046185D01*
X141035506Y-120125537D01*
X141145820Y-120184502D01*
X141218380Y-120206513D01*
X141086525Y-120338368D01*
X140924010Y-120581589D01*
X140812068Y-120851842D01*
X140755000Y-121138740D01*
X140755000Y-121431260D01*
X140812068Y-121718158D01*
X140924010Y-121988411D01*
X141086525Y-122231632D01*
X141293368Y-122438475D01*
X141467760Y-122555000D01*
X141293368Y-122671525D01*
X141086525Y-122878368D01*
X140924010Y-123121589D01*
X140812068Y-123391842D01*
X140755000Y-123678740D01*
X140755000Y-123971260D01*
X140812068Y-124258158D01*
X140924010Y-124528411D01*
X141086525Y-124771632D01*
X141293368Y-124978475D01*
X141467760Y-125095000D01*
X141293368Y-125211525D01*
X141086525Y-125418368D01*
X140924010Y-125661589D01*
X140812068Y-125931842D01*
X140755000Y-126218740D01*
X140755000Y-126511260D01*
X140812068Y-126798158D01*
X140924010Y-127068411D01*
X141086525Y-127311632D01*
X141293368Y-127518475D01*
X141467760Y-127635000D01*
X141293368Y-127751525D01*
X141086525Y-127958368D01*
X140924010Y-128201589D01*
X140812068Y-128471842D01*
X140755000Y-128758740D01*
X140755000Y-129051260D01*
X140812068Y-129338158D01*
X140924010Y-129608411D01*
X141086525Y-129851632D01*
X141293368Y-130058475D01*
X141467760Y-130175000D01*
X141293368Y-130291525D01*
X141086525Y-130498368D01*
X140924010Y-130741589D01*
X140812068Y-131011842D01*
X140755000Y-131298740D01*
X140755000Y-131591260D01*
X140812068Y-131878158D01*
X140924010Y-132148411D01*
X141086525Y-132391632D01*
X141293368Y-132598475D01*
X141430345Y-132690000D01*
X139973381Y-132690000D01*
X125755000Y-118471620D01*
X125755000Y-115744655D01*
X125846525Y-115881632D01*
X126053368Y-116088475D01*
X126296589Y-116250990D01*
X126566842Y-116362932D01*
X126853740Y-116420000D01*
X127146260Y-116420000D01*
X127433158Y-116362932D01*
X127703411Y-116250990D01*
X127946632Y-116088475D01*
X128153475Y-115881632D01*
X128315990Y-115638411D01*
X128427932Y-115368158D01*
X128485000Y-115081260D01*
X128485000Y-114788740D01*
X128427932Y-114501842D01*
X128315990Y-114231589D01*
X128153475Y-113988368D01*
X127946632Y-113781525D01*
X127772240Y-113665000D01*
X127946632Y-113548475D01*
X128153475Y-113341632D01*
X128315990Y-113098411D01*
X128427932Y-112828158D01*
X128485000Y-112541260D01*
X128485000Y-112248740D01*
X128447075Y-112058082D01*
X128640000Y-111865157D01*
X128639999Y-112953559D01*
X128640000Y-112953569D01*
X128639999Y-115416446D01*
X128636202Y-115454999D01*
X128639999Y-115493552D01*
X128639999Y-115493559D01*
X128651358Y-115608885D01*
X128696245Y-115756858D01*
X128769137Y-115893231D01*
X128867235Y-116012763D01*
X128897189Y-116037346D01*
X129592653Y-116732810D01*
X129617236Y-116762764D01*
X129736767Y-116860862D01*
X129873140Y-116933754D01*
X130021113Y-116978642D01*
X130096026Y-116986020D01*
X130130726Y-116989437D01*
X130150226Y-117008937D01*
X130319744Y-117122205D01*
X130508102Y-117200226D01*
X130708061Y-117240000D01*
X130911939Y-117240000D01*
X131111898Y-117200226D01*
X131300256Y-117122205D01*
X131469774Y-117008937D01*
X131613937Y-116864774D01*
X131727205Y-116695256D01*
X131805226Y-116506898D01*
X131845000Y-116306939D01*
X131845000Y-116103061D01*
X131805226Y-115903102D01*
X131727205Y-115714744D01*
X131613937Y-115545226D01*
X131469774Y-115401063D01*
X131300256Y-115287795D01*
X131111898Y-115209774D01*
X130911939Y-115170000D01*
X130708061Y-115170000D01*
X130508102Y-115209774D01*
X130353832Y-115273675D01*
X130209999Y-115129842D01*
X130209999Y-111725156D01*
X130443001Y-111492154D01*
X130410000Y-111658061D01*
G36*
X141086525Y-109531632D02*
G01*
X141293368Y-109738475D01*
X141467760Y-109855000D01*
X141293368Y-109971525D01*
X141086525Y-110178368D01*
X140978526Y-110340000D01*
X139738556Y-110340000D01*
X139700000Y-110336203D01*
X139661444Y-110340000D01*
X139661439Y-110340000D01*
X139621026Y-110343980D01*
X139546113Y-110351358D01*
X139398140Y-110396246D01*
X139261767Y-110469138D01*
X139142236Y-110567236D01*
X139117653Y-110597190D01*
X138739843Y-110975000D01*
X132123711Y-110975000D01*
X132104774Y-110956063D01*
X131935256Y-110842795D01*
X131746898Y-110764774D01*
X131546939Y-110725000D01*
X131343061Y-110725000D01*
X131177154Y-110758001D01*
X132565155Y-109370000D01*
X140978526Y-109370000D01*
X141086525Y-109531632D01*
G37*
X141086525Y-109531632D02*
X141293368Y-109738475D01*
X141467760Y-109855000D01*
X141293368Y-109971525D01*
X141086525Y-110178368D01*
X140978526Y-110340000D01*
X139738556Y-110340000D01*
X139700000Y-110336203D01*
X139661444Y-110340000D01*
X139661439Y-110340000D01*
X139621026Y-110343980D01*
X139546113Y-110351358D01*
X139398140Y-110396246D01*
X139261767Y-110469138D01*
X139142236Y-110567236D01*
X139117653Y-110597190D01*
X138739843Y-110975000D01*
X132123711Y-110975000D01*
X132104774Y-110956063D01*
X131935256Y-110842795D01*
X131746898Y-110764774D01*
X131546939Y-110725000D01*
X131343061Y-110725000D01*
X131177154Y-110758001D01*
X132565155Y-109370000D01*
X140978526Y-109370000D01*
X141086525Y-109531632D01*
G36*
X127127000Y-109728000D02*
G01*
X127147000Y-109728000D01*
X127147000Y-109982000D01*
X127127000Y-109982000D01*
X127127000Y-110002000D01*
X126873000Y-110002000D01*
X126873000Y-109982000D01*
X126853000Y-109982000D01*
X126853000Y-109728000D01*
X126873000Y-109728000D01*
X126873000Y-109708000D01*
X127127000Y-109708000D01*
X127127000Y-109728000D01*
G37*
X127127000Y-109728000D02*
X127147000Y-109728000D01*
X127147000Y-109982000D01*
X127127000Y-109982000D01*
X127127000Y-110002000D01*
X126873000Y-110002000D01*
X126873000Y-109982000D01*
X126853000Y-109982000D01*
X126853000Y-109728000D01*
X126873000Y-109728000D01*
X126873000Y-109708000D01*
X127127000Y-109708000D01*
X127127000Y-109728000D01*
G36*
X138915001Y-105735158D02*
G01*
X138915000Y-107208528D01*
X138911203Y-107247081D01*
X138915000Y-107285634D01*
X138915000Y-107285641D01*
X138926359Y-107400967D01*
X138971246Y-107548940D01*
X139044138Y-107685313D01*
X139138260Y-107800000D01*
X132705157Y-107800000D01*
X133040157Y-107465000D01*
X137116289Y-107465000D01*
X137135226Y-107483937D01*
X137304744Y-107597205D01*
X137493102Y-107675226D01*
X137693061Y-107715000D01*
X137896939Y-107715000D01*
X138096898Y-107675226D01*
X138285256Y-107597205D01*
X138454774Y-107483937D01*
X138598937Y-107339774D01*
X138712205Y-107170256D01*
X138790226Y-106981898D01*
X138830000Y-106781939D01*
X138830000Y-106578061D01*
X138790226Y-106378102D01*
X138712205Y-106189744D01*
X138598937Y-106020226D01*
X138454774Y-105876063D01*
X138285256Y-105762795D01*
X138096898Y-105684774D01*
X137896939Y-105645000D01*
X137693061Y-105645000D01*
X137493102Y-105684774D01*
X137304744Y-105762795D01*
X137135226Y-105876063D01*
X137116289Y-105895000D01*
X132753556Y-105895000D01*
X132715000Y-105891203D01*
X132676444Y-105895000D01*
X132676439Y-105895000D01*
X132636026Y-105898980D01*
X132561113Y-105906358D01*
X132413140Y-105951246D01*
X132276767Y-106024138D01*
X132157236Y-106122236D01*
X132132653Y-106152190D01*
X128485000Y-109799843D01*
X128485000Y-109727998D01*
X128320156Y-109727998D01*
X128441476Y-109498110D01*
X128396825Y-109350901D01*
X128271641Y-109088080D01*
X128097588Y-108854731D01*
X127881355Y-108659822D01*
X127764466Y-108590195D01*
X127946632Y-108468475D01*
X128153475Y-108261632D01*
X128315990Y-108018411D01*
X128427932Y-107748158D01*
X128485000Y-107461260D01*
X128485000Y-107168740D01*
X128447075Y-106978082D01*
X129865158Y-105560000D01*
X135211289Y-105560000D01*
X135230226Y-105578937D01*
X135399744Y-105692205D01*
X135588102Y-105770226D01*
X135788061Y-105810000D01*
X135991939Y-105810000D01*
X136191898Y-105770226D01*
X136380256Y-105692205D01*
X136549774Y-105578937D01*
X136693937Y-105434774D01*
X136807205Y-105265256D01*
X136885226Y-105076898D01*
X136925000Y-104876939D01*
X136925000Y-104673061D01*
X136885226Y-104473102D01*
X136809382Y-104290000D01*
X137469843Y-104290000D01*
X138915001Y-105735158D01*
G37*
X138915001Y-105735158D02*
X138915000Y-107208528D01*
X138911203Y-107247081D01*
X138915000Y-107285634D01*
X138915000Y-107285641D01*
X138926359Y-107400967D01*
X138971246Y-107548940D01*
X139044138Y-107685313D01*
X139138260Y-107800000D01*
X132705157Y-107800000D01*
X133040157Y-107465000D01*
X137116289Y-107465000D01*
X137135226Y-107483937D01*
X137304744Y-107597205D01*
X137493102Y-107675226D01*
X137693061Y-107715000D01*
X137896939Y-107715000D01*
X138096898Y-107675226D01*
X138285256Y-107597205D01*
X138454774Y-107483937D01*
X138598937Y-107339774D01*
X138712205Y-107170256D01*
X138790226Y-106981898D01*
X138830000Y-106781939D01*
X138830000Y-106578061D01*
X138790226Y-106378102D01*
X138712205Y-106189744D01*
X138598937Y-106020226D01*
X138454774Y-105876063D01*
X138285256Y-105762795D01*
X138096898Y-105684774D01*
X137896939Y-105645000D01*
X137693061Y-105645000D01*
X137493102Y-105684774D01*
X137304744Y-105762795D01*
X137135226Y-105876063D01*
X137116289Y-105895000D01*
X132753556Y-105895000D01*
X132715000Y-105891203D01*
X132676444Y-105895000D01*
X132676439Y-105895000D01*
X132636026Y-105898980D01*
X132561113Y-105906358D01*
X132413140Y-105951246D01*
X132276767Y-106024138D01*
X132157236Y-106122236D01*
X132132653Y-106152190D01*
X128485000Y-109799843D01*
X128485000Y-109727998D01*
X128320156Y-109727998D01*
X128441476Y-109498110D01*
X128396825Y-109350901D01*
X128271641Y-109088080D01*
X128097588Y-108854731D01*
X127881355Y-108659822D01*
X127764466Y-108590195D01*
X127946632Y-108468475D01*
X128153475Y-108261632D01*
X128315990Y-108018411D01*
X128427932Y-107748158D01*
X128485000Y-107461260D01*
X128485000Y-107168740D01*
X128447075Y-106978082D01*
X129865158Y-105560000D01*
X135211289Y-105560000D01*
X135230226Y-105578937D01*
X135399744Y-105692205D01*
X135588102Y-105770226D01*
X135788061Y-105810000D01*
X135991939Y-105810000D01*
X136191898Y-105770226D01*
X136380256Y-105692205D01*
X136549774Y-105578937D01*
X136693937Y-105434774D01*
X136807205Y-105265256D01*
X136885226Y-105076898D01*
X136925000Y-104876939D01*
X136925000Y-104673061D01*
X136885226Y-104473102D01*
X136809382Y-104290000D01*
X137469843Y-104290000D01*
X138915001Y-105735158D01*
G36*
X140859463Y-87060506D02*
G01*
X140800498Y-87170820D01*
X140764188Y-87290518D01*
X140751928Y-87415000D01*
X140751928Y-89115000D01*
X140764188Y-89239482D01*
X140800498Y-89359180D01*
X140859463Y-89469494D01*
X140938815Y-89566185D01*
X141035506Y-89645537D01*
X141145820Y-89704502D01*
X141218380Y-89726513D01*
X141086525Y-89858368D01*
X140924010Y-90101589D01*
X140812068Y-90371842D01*
X140755000Y-90658740D01*
X140755000Y-90951260D01*
X140812068Y-91238158D01*
X140924010Y-91508411D01*
X141086525Y-91751632D01*
X141293368Y-91958475D01*
X141475534Y-92080195D01*
X141358645Y-92149822D01*
X141142412Y-92344731D01*
X140968359Y-92578080D01*
X140843175Y-92840901D01*
X140798524Y-92988110D01*
X140919845Y-93218000D01*
X142113000Y-93218000D01*
X142113000Y-93198000D01*
X142367000Y-93198000D01*
X142367000Y-93218000D01*
X142387000Y-93218000D01*
X142387000Y-93472000D01*
X142367000Y-93472000D01*
X142367000Y-95758000D01*
X142387000Y-95758000D01*
X142387000Y-96012000D01*
X142367000Y-96012000D01*
X142367000Y-97205814D01*
X142596891Y-97326481D01*
X142871252Y-97229157D01*
X143121355Y-97080178D01*
X143337588Y-96885269D01*
X143460000Y-96721154D01*
X143460000Y-99597189D01*
X143444494Y-99584463D01*
X143334180Y-99525498D01*
X143214482Y-99489188D01*
X143090000Y-99476928D01*
X141390000Y-99476928D01*
X141265518Y-99489188D01*
X141145820Y-99525498D01*
X141035506Y-99584463D01*
X140938815Y-99663815D01*
X140859463Y-99760506D01*
X140800498Y-99870820D01*
X140764188Y-99990518D01*
X140751928Y-100115000D01*
X140751928Y-101815000D01*
X140764188Y-101939482D01*
X140800498Y-102059180D01*
X140859463Y-102169494D01*
X140938815Y-102266185D01*
X141035506Y-102345537D01*
X141145820Y-102404502D01*
X141218380Y-102426513D01*
X141086525Y-102558368D01*
X140978526Y-102720000D01*
X140660158Y-102720000D01*
X138377347Y-100437190D01*
X138352764Y-100407236D01*
X138233233Y-100309138D01*
X138096860Y-100236246D01*
X137948887Y-100191359D01*
X137833561Y-100180000D01*
X137833553Y-100180000D01*
X137795000Y-100176203D01*
X137756447Y-100180000D01*
X135933711Y-100180000D01*
X135914774Y-100161063D01*
X135745256Y-100047795D01*
X135556898Y-99969774D01*
X135356939Y-99930000D01*
X135153061Y-99930000D01*
X134953102Y-99969774D01*
X134764744Y-100047795D01*
X134595226Y-100161063D01*
X134451063Y-100305226D01*
X134337795Y-100474744D01*
X134259774Y-100663102D01*
X134220000Y-100863061D01*
X134220000Y-101066939D01*
X134259774Y-101266898D01*
X134337795Y-101455256D01*
X134451063Y-101624774D01*
X134595226Y-101768937D01*
X134764744Y-101882205D01*
X134953102Y-101960226D01*
X135153061Y-102000000D01*
X135356939Y-102000000D01*
X135556898Y-101960226D01*
X135745256Y-101882205D01*
X135914774Y-101768937D01*
X135933711Y-101750000D01*
X137469843Y-101750000D01*
X139752655Y-104032813D01*
X139777236Y-104062764D01*
X139807184Y-104087342D01*
X139807187Y-104087345D01*
X139836559Y-104111450D01*
X139896767Y-104160862D01*
X140033140Y-104233754D01*
X140146672Y-104268194D01*
X140181112Y-104278641D01*
X140195490Y-104280057D01*
X140296439Y-104290000D01*
X140296446Y-104290000D01*
X140334999Y-104293797D01*
X140373552Y-104290000D01*
X140978526Y-104290000D01*
X141086525Y-104451632D01*
X141293368Y-104658475D01*
X141467760Y-104775000D01*
X141293368Y-104891525D01*
X141086525Y-105098368D01*
X140924010Y-105341589D01*
X140812068Y-105611842D01*
X140755000Y-105898740D01*
X140755000Y-106191260D01*
X140812068Y-106478158D01*
X140924010Y-106748411D01*
X141086525Y-106991632D01*
X141293368Y-107198475D01*
X141467760Y-107315000D01*
X141293368Y-107431525D01*
X141143985Y-107580908D01*
X140485000Y-106921924D01*
X140485000Y-105448556D01*
X140488797Y-105410000D01*
X140485000Y-105371444D01*
X140485000Y-105371439D01*
X140474542Y-105265256D01*
X140473642Y-105256113D01*
X140428754Y-105108140D01*
X140412055Y-105076898D01*
X140355862Y-104971767D01*
X140257764Y-104852236D01*
X140227810Y-104827653D01*
X138377347Y-102977190D01*
X138352764Y-102947236D01*
X138233233Y-102849138D01*
X138096860Y-102776246D01*
X137948887Y-102731359D01*
X137833561Y-102720000D01*
X137833553Y-102720000D01*
X137795000Y-102716203D01*
X137756447Y-102720000D01*
X129458552Y-102720000D01*
X129419999Y-102716203D01*
X129381446Y-102720000D01*
X129381439Y-102720000D01*
X129280490Y-102729943D01*
X129266112Y-102731359D01*
X129231672Y-102741806D01*
X129118140Y-102776246D01*
X128981767Y-102849138D01*
X128921559Y-102898550D01*
X128892187Y-102922655D01*
X128892184Y-102922658D01*
X128862236Y-102947236D01*
X128837658Y-102977185D01*
X128319144Y-103495698D01*
X128301185Y-103473815D01*
X128204494Y-103394463D01*
X128094180Y-103335498D01*
X127974482Y-103299188D01*
X127850000Y-103286928D01*
X126150000Y-103286928D01*
X126025518Y-103299188D01*
X125905820Y-103335498D01*
X125795506Y-103394463D01*
X125755000Y-103427705D01*
X125755000Y-101238380D01*
X130751490Y-96241890D01*
X140798524Y-96241890D01*
X140843175Y-96389099D01*
X140968359Y-96651920D01*
X141142412Y-96885269D01*
X141358645Y-97080178D01*
X141608748Y-97229157D01*
X141883109Y-97326481D01*
X142113000Y-97205814D01*
X142113000Y-96012000D01*
X140919845Y-96012000D01*
X140798524Y-96241890D01*
X130751490Y-96241890D01*
X133291490Y-93701890D01*
X140798524Y-93701890D01*
X140843175Y-93849099D01*
X140968359Y-94111920D01*
X141142412Y-94345269D01*
X141358645Y-94540178D01*
X141484255Y-94615000D01*
X141358645Y-94689822D01*
X141142412Y-94884731D01*
X140968359Y-95118080D01*
X140843175Y-95380901D01*
X140798524Y-95528110D01*
X140919845Y-95758000D01*
X142113000Y-95758000D01*
X142113000Y-93472000D01*
X140919845Y-93472000D01*
X140798524Y-93701890D01*
X133291490Y-93701890D01*
X139973381Y-87020000D01*
X140892705Y-87020000D01*
X140859463Y-87060506D01*
G37*
X140859463Y-87060506D02*
X140800498Y-87170820D01*
X140764188Y-87290518D01*
X140751928Y-87415000D01*
X140751928Y-89115000D01*
X140764188Y-89239482D01*
X140800498Y-89359180D01*
X140859463Y-89469494D01*
X140938815Y-89566185D01*
X141035506Y-89645537D01*
X141145820Y-89704502D01*
X141218380Y-89726513D01*
X141086525Y-89858368D01*
X140924010Y-90101589D01*
X140812068Y-90371842D01*
X140755000Y-90658740D01*
X140755000Y-90951260D01*
X140812068Y-91238158D01*
X140924010Y-91508411D01*
X141086525Y-91751632D01*
X141293368Y-91958475D01*
X141475534Y-92080195D01*
X141358645Y-92149822D01*
X141142412Y-92344731D01*
X140968359Y-92578080D01*
X140843175Y-92840901D01*
X140798524Y-92988110D01*
X140919845Y-93218000D01*
X142113000Y-93218000D01*
X142113000Y-93198000D01*
X142367000Y-93198000D01*
X142367000Y-93218000D01*
X142387000Y-93218000D01*
X142387000Y-93472000D01*
X142367000Y-93472000D01*
X142367000Y-95758000D01*
X142387000Y-95758000D01*
X142387000Y-96012000D01*
X142367000Y-96012000D01*
X142367000Y-97205814D01*
X142596891Y-97326481D01*
X142871252Y-97229157D01*
X143121355Y-97080178D01*
X143337588Y-96885269D01*
X143460000Y-96721154D01*
X143460000Y-99597189D01*
X143444494Y-99584463D01*
X143334180Y-99525498D01*
X143214482Y-99489188D01*
X143090000Y-99476928D01*
X141390000Y-99476928D01*
X141265518Y-99489188D01*
X141145820Y-99525498D01*
X141035506Y-99584463D01*
X140938815Y-99663815D01*
X140859463Y-99760506D01*
X140800498Y-99870820D01*
X140764188Y-99990518D01*
X140751928Y-100115000D01*
X140751928Y-101815000D01*
X140764188Y-101939482D01*
X140800498Y-102059180D01*
X140859463Y-102169494D01*
X140938815Y-102266185D01*
X141035506Y-102345537D01*
X141145820Y-102404502D01*
X141218380Y-102426513D01*
X141086525Y-102558368D01*
X140978526Y-102720000D01*
X140660158Y-102720000D01*
X138377347Y-100437190D01*
X138352764Y-100407236D01*
X138233233Y-100309138D01*
X138096860Y-100236246D01*
X137948887Y-100191359D01*
X137833561Y-100180000D01*
X137833553Y-100180000D01*
X137795000Y-100176203D01*
X137756447Y-100180000D01*
X135933711Y-100180000D01*
X135914774Y-100161063D01*
X135745256Y-100047795D01*
X135556898Y-99969774D01*
X135356939Y-99930000D01*
X135153061Y-99930000D01*
X134953102Y-99969774D01*
X134764744Y-100047795D01*
X134595226Y-100161063D01*
X134451063Y-100305226D01*
X134337795Y-100474744D01*
X134259774Y-100663102D01*
X134220000Y-100863061D01*
X134220000Y-101066939D01*
X134259774Y-101266898D01*
X134337795Y-101455256D01*
X134451063Y-101624774D01*
X134595226Y-101768937D01*
X134764744Y-101882205D01*
X134953102Y-101960226D01*
X135153061Y-102000000D01*
X135356939Y-102000000D01*
X135556898Y-101960226D01*
X135745256Y-101882205D01*
X135914774Y-101768937D01*
X135933711Y-101750000D01*
X137469843Y-101750000D01*
X139752655Y-104032813D01*
X139777236Y-104062764D01*
X139807184Y-104087342D01*
X139807187Y-104087345D01*
X139836559Y-104111450D01*
X139896767Y-104160862D01*
X140033140Y-104233754D01*
X140146672Y-104268194D01*
X140181112Y-104278641D01*
X140195490Y-104280057D01*
X140296439Y-104290000D01*
X140296446Y-104290000D01*
X140334999Y-104293797D01*
X140373552Y-104290000D01*
X140978526Y-104290000D01*
X141086525Y-104451632D01*
X141293368Y-104658475D01*
X141467760Y-104775000D01*
X141293368Y-104891525D01*
X141086525Y-105098368D01*
X140924010Y-105341589D01*
X140812068Y-105611842D01*
X140755000Y-105898740D01*
X140755000Y-106191260D01*
X140812068Y-106478158D01*
X140924010Y-106748411D01*
X141086525Y-106991632D01*
X141293368Y-107198475D01*
X141467760Y-107315000D01*
X141293368Y-107431525D01*
X141143985Y-107580908D01*
X140485000Y-106921924D01*
X140485000Y-105448556D01*
X140488797Y-105410000D01*
X140485000Y-105371444D01*
X140485000Y-105371439D01*
X140474542Y-105265256D01*
X140473642Y-105256113D01*
X140428754Y-105108140D01*
X140412055Y-105076898D01*
X140355862Y-104971767D01*
X140257764Y-104852236D01*
X140227810Y-104827653D01*
X138377347Y-102977190D01*
X138352764Y-102947236D01*
X138233233Y-102849138D01*
X138096860Y-102776246D01*
X137948887Y-102731359D01*
X137833561Y-102720000D01*
X137833553Y-102720000D01*
X137795000Y-102716203D01*
X137756447Y-102720000D01*
X129458552Y-102720000D01*
X129419999Y-102716203D01*
X129381446Y-102720000D01*
X129381439Y-102720000D01*
X129280490Y-102729943D01*
X129266112Y-102731359D01*
X129231672Y-102741806D01*
X129118140Y-102776246D01*
X128981767Y-102849138D01*
X128921559Y-102898550D01*
X128892187Y-102922655D01*
X128892184Y-102922658D01*
X128862236Y-102947236D01*
X128837658Y-102977185D01*
X128319144Y-103495698D01*
X128301185Y-103473815D01*
X128204494Y-103394463D01*
X128094180Y-103335498D01*
X127974482Y-103299188D01*
X127850000Y-103286928D01*
X126150000Y-103286928D01*
X126025518Y-103299188D01*
X125905820Y-103335498D01*
X125795506Y-103394463D01*
X125755000Y-103427705D01*
X125755000Y-101238380D01*
X130751490Y-96241890D01*
X140798524Y-96241890D01*
X140843175Y-96389099D01*
X140968359Y-96651920D01*
X141142412Y-96885269D01*
X141358645Y-97080178D01*
X141608748Y-97229157D01*
X141883109Y-97326481D01*
X142113000Y-97205814D01*
X142113000Y-96012000D01*
X140919845Y-96012000D01*
X140798524Y-96241890D01*
X130751490Y-96241890D01*
X133291490Y-93701890D01*
X140798524Y-93701890D01*
X140843175Y-93849099D01*
X140968359Y-94111920D01*
X141142412Y-94345269D01*
X141358645Y-94540178D01*
X141484255Y-94615000D01*
X141358645Y-94689822D01*
X141142412Y-94884731D01*
X140968359Y-95118080D01*
X140843175Y-95380901D01*
X140798524Y-95528110D01*
X140919845Y-95758000D01*
X142113000Y-95758000D01*
X142113000Y-93472000D01*
X140919845Y-93472000D01*
X140798524Y-93701890D01*
X133291490Y-93701890D01*
X139973381Y-87020000D01*
X140892705Y-87020000D01*
X140859463Y-87060506D01*
M02*
